<?xml version="1.0" standalone="no"?>
<!DOCTYPE svg PUBLIC "-//W3C//DTD SVG 20010904//EN"
 "http://www.w3.org/TR/2001/REC-SVG-20010904/DTD/svg10.dtd">
<svg version="1.0" xmlns="http://www.w3.org/2000/svg"
 width="1320.000000pt" height="1320.000000pt" viewBox="0 0 1320.000000 1320.000000"
 preserveAspectRatio="xMidYMid meet">
<metadata>
Created by potrace 1.14, written by Peter Selinger 2001-2017
</metadata>
<g transform="translate(0.000000,1320.000000) scale(0.100000,-0.100000)"
fill="#000000" stroke="none">
<path d="M10170 10203 c-36 -8 -72 -16 -80 -18 -54 -13 -257 -92 -370 -143
-36 -17 -68 -30 -72 -31 -5 -1 -263 -129 -575 -285 -641 -321 -705 -352 -891
-427 -74 -30 -138 -61 -143 -70 -6 -12 -3 -24 10 -40 l18 -22 77 28 c42 15 79
32 82 36 3 5 12 9 20 9 20 0 137 53 412 186 106 52 196 94 201 94 5 0 11 4 13
8 3 8 732 373 863 432 152 69 320 133 410 156 48 12 75 15 75 8 -1 -21 -73
-149 -114 -201 -65 -84 -174 -184 -296 -273 -41 -30 -77 -57 -80 -60 -13 -13
-162 -110 -170 -110 -4 0 -10 -4 -12 -8 -7 -16 -703 -442 -723 -442 -3 0 -23
-11 -45 -25 -22 -14 -40 -22 -40 -19 0 4 -9 -1 -19 -10 -11 -10 -30 -18 -43
-19 -23 0 -31 1 -123 23 -27 7 -61 13 -75 15 -14 2 -38 5 -55 8 -16 3 -50 9
-75 12 -25 3 -56 8 -70 10 -187 29 -580 20 -720 -15 -19 -5 -46 -11 -60 -13
-81 -15 -225 -60 -308 -98 -35 -16 -65 -29 -67 -29 -9 0 -179 -100 -242 -141
-185 -124 -403 -323 -530 -481 -32 -40 -61 -75 -64 -78 -6 -5 -127 -174 -146
-206 -97 -153 -233 -424 -233 -462 0 -24 24 -45 45 -40 19 4 29 21 81 138 65
145 185 345 288 480 231 304 489 531 774 681 18 9 38 22 45 27 18 13 194 83
252 99 195 54 361 77 560 76 85 0 250 -10 305 -18 14 -2 48 -6 75 -9 28 -3 61
-8 75 -11 14 -3 36 -7 50 -9 43 -7 263 -57 305 -71 22 -7 70 -20 106 -29 57
-15 70 -23 90 -54 26 -39 66 -53 124 -42 17 3 41 0 55 -7 14 -7 81 -39 150
-72 142 -69 182 -91 296 -167 75 -49 221 -162 269 -207 11 -11 74 -64 140
-120 66 -55 122 -103 125 -106 3 -4 32 -24 65 -46 33 -22 62 -43 63 -47 2 -5
7 -8 12 -8 4 0 36 -16 70 -35 161 -91 275 -103 735 -80 316 16 743 2 910 -30
11 -2 41 -7 68 -11 26 -3 50 -11 53 -15 3 -5 9 -7 15 -4 30 19 435 -132 554
-208 137 -86 262 -198 295 -262 8 -17 18 -32 22 -35 14 -11 44 -124 42 -163
-3 -97 3 -96 -81 -11 -94 95 -202 171 -328 230 -97 45 -244 99 -292 107 -16 3
-54 12 -86 21 -32 8 -77 18 -100 21 -47 7 -80 12 -117 20 -13 2 -56 7 -95 11
-38 3 -79 8 -90 10 -11 3 -139 7 -285 9 -318 6 -516 13 -573 20 -23 2 -64 7
-92 10 -27 3 -77 10 -110 16 -33 7 -70 13 -82 14 -83 11 -306 91 -413 148 -64
35 -214 136 -250 169 -14 13 -55 48 -90 79 -36 31 -108 98 -160 149 -241 235
-406 380 -522 458 -118 80 -197 87 -198 16 0 -28 17 -45 138 -143 228 -183
358 -340 553 -662 90 -151 268 -505 324 -649 20 -52 41 -104 46 -115 11 -24
97 -290 104 -319 2 -12 12 -48 20 -81 19 -76 52 -236 60 -295 14 -106 27 -310
19 -310 -10 0 -132 68 -144 80 -3 3 -16 13 -30 21 -87 56 -236 225 -325 366
-114 184 -234 477 -295 723 -15 61 -50 209 -56 240 -12 61 -34 189 -39 225
-41 278 -124 459 -290 630 -47 49 -152 130 -215 167 -32 18 -51 38 -63 67 -20
44 -34 49 -94 32 -17 -5 -34 -6 -37 -3 -8 8 -64 28 -161 58 -44 13 -94 29
-112 35 -33 10 -59 16 -103 25 -14 2 -45 9 -70 14 -25 5 -63 12 -85 15 -23 3
-51 7 -63 10 -117 22 -427 22 -542 0 -166 -32 -228 -49 -303 -86 -120 -58
-178 -107 -171 -146 1 -7 2 -17 3 -23 0 -5 16 -17 34 -27 24 -12 57 -17 132
-17 91 0 200 10 216 20 4 2 22 6 40 9 94 15 349 88 556 159 l71 24 99 -19 c94
-18 267 -62 308 -79 123 -49 142 -55 185 -55 23 0 35 -5 35 -14 0 -15 10 -23
125 -97 145 -95 283 -255 340 -394 12 -30 26 -64 30 -75 9 -21 28 -95 35 -133
2 -13 6 -31 9 -40 3 -9 8 -37 11 -62 2 -25 7 -55 9 -66 2 -12 7 -37 10 -55 5
-34 20 -110 31 -159 3 -14 8 -38 11 -55 3 -16 18 -78 33 -137 22 -83 25 -108
15 -108 -37 0 -233 -337 -322 -555 -61 -149 -133 -368 -147 -447 -3 -17 -7
-34 -9 -37 -2 -3 -7 -22 -10 -41 -3 -19 -8 -46 -11 -60 -2 -13 -7 -42 -10 -65
-4 -22 -8 -51 -10 -65 -27 -180 -22 -432 11 -610 9 -47 18 -96 20 -110 41
-229 152 -381 270 -367 41 4 44 2 102 -57 33 -33 70 -81 83 -106 78 -146 194
-199 292 -131 25 17 47 37 50 45 5 14 11 14 48 1 25 -9 58 -13 83 -10 34 5 47
2 66 -15 25 -22 100 -64 100 -56 0 2 15 0 34 -4 29 -6 42 -3 73 18 21 14 41
31 46 38 5 10 15 10 38 2 16 -5 41 -8 56 -5 20 4 40 -6 85 -39 122 -89 226
-89 287 1 19 29 30 35 60 36 20 1 47 4 61 8 16 4 38 0 62 -11 49 -24 106 -28
153 -13 39 14 105 70 105 90 0 8 30 11 93 11 89 -1 94 0 139 32 26 20 61 35
83 38 20 1 46 6 58 10 12 4 27 9 34 10 7 1 26 12 43 24 26 18 37 20 73 13 23
-5 51 -8 62 -8 11 1 34 2 50 3 81 5 156 99 164 207 1 6 14 16 30 23 16 7 46
26 66 42 29 23 46 29 88 29 81 0 164 36 191 83 10 15 23 28 29 28 23 0 114 48
136 71 46 49 62 95 59 174 -1 41 0 76 2 79 3 2 21 6 40 9 117 16 189 101 194
229 2 29 -1 62 -4 73 -4 11 -10 36 -14 56 -6 34 -4 36 34 53 89 39 123 135 91
259 l-9 38 54 24 c157 69 189 239 89 460 -26 55 -37 65 -68 57 -27 -7 -31 -45
-9 -88 51 -100 66 -217 35 -281 -16 -35 -73 -80 -110 -87 -11 -3 -38 -7 -59
-10 -57 -9 -72 -15 -78 -31 -9 -25 5 -46 35 -52 16 -3 31 -9 33 -12 6 -9 18
-101 17 -126 -1 -52 -54 -91 -120 -90 -37 0 -42 7 -62 75 -19 64 -54 144 -71
157 -8 7 -24 10 -36 6 -28 -7 -29 -45 -2 -101 11 -22 20 -48 20 -56 0 -8 5
-18 11 -21 6 -4 8 -13 5 -20 -2 -7 -2 -16 2 -19 13 -14 18 -100 8 -134 -16
-49 -108 -71 -212 -50 l-51 10 14 47 c11 33 13 73 9 147 -6 116 -19 154 -51
154 -37 0 -47 -22 -37 -80 5 -29 9 -87 8 -129 -2 -90 -29 -145 -80 -166 -36
-15 -126 -14 -176 3 l-35 12 2 102 c2 57 3 106 3 109 0 3 14 6 31 7 75 2 107
14 151 55 24 23 50 56 57 72 26 58 28 60 57 57 79 -10 212 -6 244 7 62 25 103
74 114 136 7 37 7 37 53 27 105 -24 194 2 228 67 24 48 13 145 -27 232 l-35
76 24 -3 c22 -2 53 18 53 36 0 19 -13 40 -24 40 -14 0 -115 48 -136 65 -8 7
-30 17 -47 23 -42 14 -68 -7 -58 -47 3 -14 9 -39 12 -55 l6 -29 -34 24 c-50
35 -127 69 -144 63 -17 -7 -28 -36 -20 -56 3 -8 29 -26 57 -39 28 -13 71 -44
96 -69 25 -24 52 -45 61 -47 22 -3 51 26 51 51 0 22 20 60 20 39 0 -6 16 -47
37 -90 37 -80 50 -170 28 -192 -25 -25 -178 -14 -203 14 -5 6 -19 39 -32 74
-44 126 -75 161 -111 125 l-21 -21 35 -80 c94 -214 60 -304 -113 -298 -128 4
-132 7 -145 95 -13 94 -41 167 -65 175 -24 8 -48 -3 -52 -23 -2 -10 4 -39 14
-65 10 -26 20 -62 22 -80 3 -18 5 -34 6 -37 5 -17 -3 -117 -11 -126 -5 -6 -7
-13 -4 -16 3 -3 -12 -25 -33 -48 -37 -42 -41 -44 -106 -48 -85 -6 -139 14
-200 73 -41 40 -93 120 -88 137 3 11 -31 33 -52 33 -16 0 -22 9 -28 43 -15 88
-73 151 -106 116 -17 -18 -15 -38 8 -81 17 -33 27 -84 35 -173 5 -65 -29 -85
-110 -63 -78 22 -84 22 -90 13 -3 -5 -15 -6 -28 -1 -45 17 -56 -1 -54 -89 1
-44 -3 -84 -8 -89 -8 -8 -22 -5 -48 9 -44 24 -63 25 -71 5 -4 -12 -11 -13 -23
-7 -18 10 -62 -1 -64 -15 0 -4 -2 -28 -3 -52 -5 -55 -21 -66 -65 -40 -37 22
-67 18 -76 -12 -8 -23 8 -45 45 -64 55 -29 111 -25 144 8 14 13 38 78 35 93
-5 29 3 31 44 12 77 -38 125 -28 155 32 11 23 18 57 17 89 -1 47 1 51 20 44
94 -31 143 -34 195 -10 31 15 70 72 65 97 -2 11 0 20 6 20 5 0 9 -5 9 -10 0
-31 110 -139 172 -168 32 -16 56 -30 54 -33 -2 -2 -6 -48 -8 -102 -1 -55 -6
-101 -10 -104 -5 -2 -8 -12 -8 -21 0 -28 -57 -90 -95 -102 -58 -19 -136 -16
-224 11 -39 12 -40 13 -34 48 9 59 9 194 0 224 -10 29 -32 34 -59 14 -13 -10
-17 -29 -16 -88 1 -235 -56 -349 -172 -349 -55 0 -157 40 -239 95 -46 30 -92
57 -101 60 -30 9 -40 -19 -44 -121 -16 -353 -130 -395 -390 -142 -33 32 -62
58 -66 58 -19 0 -40 -30 -45 -65 -28 -189 -80 -238 -188 -181 -60 32 -115 82
-204 182 -25 28 -48 35 -69 20 -30 -23 -8 -62 87 -156 172 -171 303 -198 388
-79 16 22 35 62 42 89 7 28 16 50 19 50 4 0 17 -11 30 -25 12 -13 41 -37 64
-52 22 -15 43 -30 46 -33 3 -4 28 -16 57 -28 82 -35 160 -27 211 21 48 45 87
152 97 271 2 32 6 61 8 63 2 2 31 -13 63 -32 144 -87 279 -97 371 -28 18 13
31 18 28 11 -2 -7 -7 -46 -9 -86 -9 -141 -57 -223 -140 -240 -35 -7 -104 -1
-141 11 -5 2 -23 7 -40 12 -16 4 -58 23 -93 42 -73 40 -102 38 -102 -7 0 -23
8 -33 39 -51 l39 -21 -14 -61 c-22 -92 -69 -172 -122 -207 -53 -35 -91 -40
-167 -25 -82 17 -175 71 -161 94 3 5 8 39 12 77 3 38 7 71 7 74 1 3 -2 15 -7
28 -13 38 -66 24 -71 -19 -2 -13 -6 -51 -10 -84 -10 -81 -40 -174 -67 -208
-13 -16 -39 -32 -60 -36 -31 -7 -47 -4 -105 25 -37 18 -96 59 -131 91 l-63 58
10 50 c18 83 20 165 4 181 -32 32 -68 2 -72 -61 -9 -151 -41 -225 -96 -225
-45 0 -113 40 -187 111 -56 53 -79 69 -98 67 -57 -6 -22 -82 74 -156 16 -12
24 -23 17 -23 -6 -1 -15 -2 -21 -3 -14 -2 -36 -36 -44 -68 -3 -15 -21 -42 -39
-61 -30 -33 -39 -35 -92 -28 -16 2 -101 84 -116 111 -24 45 -6 167 31 210 23
27 23 26 10 51 -6 10 -21 19 -34 19 -51 0 -97 -101 -100 -220 -1 -53 -20 -62
-65 -31 -51 36 -88 109 -120 231 -30 118 -35 144 -46 240 -4 30 -9 66 -11 80
-5 31 -4 281 1 335 3 22 7 65 11 95 4 30 7 63 7 73 1 9 5 17 9 17 4 0 5 6 2
13 -13 35 108 443 184 619 89 205 265 510 276 477 24 -74 63 -182 78 -217 18
-43 18 -44 -2 -49 -23 -6 -30 -26 -25 -68 4 -44 15 -125 20 -160 38 -266 49
-784 20 -955 -4 -19 -8 -44 -9 -55 -11 -97 -70 -241 -113 -274 l-28 -23 -37
44 c-21 24 -49 66 -63 94 -27 54 -67 164 -60 164 3 0 0 11 -5 24 -28 75 -31
420 -5 558 3 13 7 43 10 67 3 24 7 47 10 50 2 4 7 30 10 57 8 60 59 263 91
363 16 51 21 79 14 91 -13 25 -46 31 -63 11 -11 -13 -78 -230 -91 -297 -3 -10
-13 -64 -25 -119 -11 -55 -23 -120 -26 -145 -3 -25 -8 -56 -10 -70 -2 -14 -7
-45 -11 -70 -12 -83 -11 -345 2 -431 18 -115 23 -137 39 -175 8 -19 12 -34 10
-34 -13 0 74 -148 112 -190 80 -90 118 -93 193 -19 58 58 121 225 135 359 10
91 16 177 20 260 2 47 4 87 4 89 1 2 14 -13 30 -32 98 -124 220 -194 323 -188
20 1 63 72 73 121 10 43 5 205 -5 205 -1 0 -4 12 -6 27 l-5 28 44 -30 c25 -16
82 -47 128 -69 91 -42 113 -41 125 4 8 33 -7 308 -21 385 -45 247 -39 219 -79
375 -105 417 -402 1035 -675 1405 -73 99 -66 96 55 -21 256 -251 414 -377 558
-447 28 -14 52 -26 54 -28 2 -1 -4 -14 -13 -28 -16 -24 -16 -26 27 -73 24 -26
48 -53 53 -59 6 -6 26 -29 45 -50 83 -92 250 -314 250 -333 0 -5 4 -11 8 -13
4 -1 25 -32 46 -68 20 -36 42 -72 47 -80 49 -80 170 -380 153 -380 -3 0 -1 -8
4 -17 30 -57 35 -323 9 -422 -23 -86 -63 -176 -94 -212 -25 -29 -115 -8 -193
44 -25 17 -71 58 -102 91 -32 33 -64 61 -72 62 -8 1 -22 -7 -32 -17 -15 -17
-16 -22 -4 -45 21 -38 140 -147 196 -178 93 -52 198 -66 249 -32 43 29 106
166 135 296 15 66 19 112 15 205 -3 113 -5 132 -18 195 -8 38 -44 162 -57 194
-5 15 -7 26 -3 24 5 -1 71 -35 148 -74 202 -102 336 -144 485 -149 110 -5 183
7 242 38 53 28 59 50 54 192 -6 157 -48 281 -148 428 -43 64 -163 191 -218
233 l-35 26 45 -6 c25 -4 52 -7 60 -7 26 -2 234 -47 260 -57 14 -5 28 -10 33
-10 21 -3 142 -45 222 -77 210 -85 461 -243 595 -375 75 -74 101 -91 132 -86
56 9 89 63 77 128 -12 70 -18 89 -31 107 -8 10 -4 9 12 -4 14 -11 27 -23 30
-26 3 -4 16 -22 30 -40 61 -80 73 -90 99 -77 62 34 88 230 44 338 -4 8 -7 17
-8 20 -16 52 -101 167 -169 230 -44 41 -191 150 -202 150 -3 0 -31 15 -62 33
-31 18 -61 34 -65 35 -4 0 -32 12 -62 27 -133 62 -441 145 -600 161 -16 2 -48
5 -70 8 -165 19 -566 25 -820 11 -283 -15 -386 -13 -514 10 -25 4 -211 92
-221 104 -3 3 -27 22 -55 40 -27 19 -52 38 -55 41 -3 3 -23 19 -45 36 -21 16
-47 36 -55 44 -9 8 -30 26 -46 40 -16 14 -63 54 -105 90 -219 188 -347 276
-561 384 -174 88 -226 108 -286 109 -47 1 -58 6 -78 42 -7 13 -39 28 -95 44
-46 13 -90 25 -98 28 -8 2 28 27 80 56 52 29 165 95 252 147 86 52 165 100
175 105 9 6 43 27 75 48 31 20 59 37 61 37 3 0 82 52 178 116 438 294 586 449
683 715 11 31 11 40 -1 58 -17 24 -47 25 -144 4z m-2225 -1543 c38 -1 37 -2
-35 -25 -74 -24 -248 -74 -283 -81 -10 -2 -26 -5 -35 -8 -9 -3 -30 -8 -47 -11
-16 -2 -41 -7 -55 -10 -89 -19 -230 -27 -250 -15 -10 6 150 87 188 95 9 2 46
10 82 19 86 20 129 26 225 32 44 3 81 7 82 7 1 1 21 1 45 0 23 0 61 -2 83 -3z
m2520 -1105 c148 -57 386 -97 655 -110 63 -4 133 -7 155 -8 23 -2 54 -12 72
-25 17 -12 34 -22 38 -22 4 0 15 -8 24 -18 9 -9 33 -30 54 -46 104 -77 220
-224 276 -348 41 -91 54 -151 56 -260 l2 -97 -46 -18 c-31 -12 -73 -18 -126
-18 -105 0 -161 10 -270 46 -158 52 -463 215 -486 259 -104 202 -260 425 -427
609 -74 81 -85 98 -56 87 11 -5 46 -18 79 -31z m1605 -160 c19 -3 67 -13 105
-21 39 -9 79 -18 90 -20 61 -12 250 -79 315 -112 64 -32 83 -48 132 -112 66
-86 108 -167 108 -210 0 -17 -3 -30 -7 -30 -3 0 -31 24 -62 53 -31 28 -73 67
-94 85 -62 55 -250 177 -343 223 -49 24 -90 47 -92 52 -2 4 -9 7 -17 7 -11 0
-137 50 -177 71 -10 5 -26 9 -35 9 -10 0 -25 5 -33 10 -15 10 19 9 110 -5z
m690 -699 c0 -2 -7 -9 -15 -16 -13 -11 -14 -10 -9 4 5 14 24 23 24 12z m-3078
-123 c7 -18 16 -33 20 -33 4 0 8 -5 8 -10 0 -28 154 -248 231 -330 47 -51 60
-76 88 -181 20 -75 25 -229 7 -257 -34 -55 -219 87 -311 238 -30 51 -33 64
-39 165 -7 131 -14 215 -21 270 -3 22 -8 67 -11 100 -3 33 -7 71 -9 85 -4 24
-4 24 11 5 8 -10 20 -34 26 -52z m2983 -821 c3 -12 8 -32 11 -44 21 -86 -6
-180 -58 -205 -48 -23 -54 -22 -55 6 -1 39 -11 99 -18 110 -3 6 13 27 35 47
28 25 45 51 53 81 11 43 23 45 32 5z m-352 -118 c15 -3 55 -8 90 -12 59 -7 62
-9 68 -37 13 -58 9 -117 -8 -146 -23 -39 -84 -67 -160 -73 l-62 -5 10 27 c21
53 17 164 -8 246 -4 16 -2 18 18 12 13 -4 36 -9 52 -12z m-332 -20 c40 -10 86
-14 126 -11 l63 4 7 -41 c7 -38 8 -68 4 -129 -1 -32 -49 -103 -77 -116 -33
-15 -118 -25 -149 -17 -21 5 -25 11 -19 29 11 34 12 161 3 213 -5 26 -16 56
-26 66 -20 22 -12 22 68 2z m-118 -150 c1 -139 -20 -191 -94 -227 -57 -29
-131 -32 -219 -9 l-65 17 4 100 c2 81 0 103 -12 113 -8 7 -19 11 -23 10 -17
-6 -16 7 1 43 l17 36 41 -14 c101 -35 216 -36 284 -2 26 14 52 22 56 18 5 -4
9 -42 10 -85z m573 -228 c-8 -19 -29 -44 -47 -55 -18 -11 -34 -19 -35 -18 0 1
-4 30 -7 65 -6 56 -5 62 12 62 10 0 34 6 52 14 33 14 34 14 37 -9 2 -12 -4
-39 -12 -59z m-171 -37 c-1 -105 -33 -146 -124 -156 l-46 -5 0 80 c0 52 -5 85
-14 96 -11 14 -11 16 1 16 9 0 39 13 68 28 40 22 61 27 84 22 l31 -6 0 -75z
m-281 21 l31 0 0 -88 c0 -67 -4 -93 -18 -114 -31 -45 -61 -61 -147 -74 -19 -3
-41 -7 -47 -9 -16 -5 -16 8 -3 56 6 20 11 65 13 100 2 61 4 66 42 102 32 30
45 36 69 32 16 -3 43 -5 60 -5z m-447 -73 c28 -8 83 -13 122 -13 64 1 75 -3
73 -25 -1 -3 -2 -27 -3 -52 -2 -26 -14 -71 -28 -99 -43 -89 -109 -110 -242
-78 l-49 12 -1 54 c-1 30 -3 59 -4 64 -1 6 -3 16 -4 24 0 8 -8 22 -17 30 -8 9
-11 16 -5 16 6 0 26 20 43 45 22 31 37 43 48 40 9 -3 39 -11 67 -18z m-424
-106 c66 -17 144 -20 185 -7 26 9 31 -14 27 -109 -6 -140 -66 -200 -175 -173
-19 5 -43 11 -54 13 -28 7 -76 29 -76 36 0 3 -12 6 -27 5 -28 -1 -49 -29 -58
-75 -7 -37 -46 -111 -76 -145 -48 -56 -119 -68 -203 -37 -29 12 -105 61 -128
85 -31 31 -55 28 -92 -10 -20 -20 -36 -40 -36 -44 0 -3 -18 -16 -40 -29 -29
-16 -49 -21 -70 -16 -30 7 -93 68 -112 110 -6 14 -20 27 -30 31 -11 3 -18 8
-16 10 2 2 28 -6 58 -17 98 -37 176 -24 233 40 19 22 38 48 42 60 8 27 10 26
73 -5 146 -73 284 -63 371 26 26 26 51 53 56 61 20 27 52 104 66 157 7 28 13
52 13 52 1 0 32 -9 69 -19z m727 -211 c-24 -84 -88 -115 -177 -85 -17 6 -1 56
22 69 10 6 27 18 37 27 13 11 37 17 72 17 l54 0 -8 -28z m-2020 -58 c49 -9
112 10 139 41 12 15 16 14 42 -13 16 -16 42 -38 56 -50 16 -12 23 -24 17 -28
-5 -4 -24 -30 -42 -59 -84 -131 -173 -141 -292 -31 -14 13 -37 38 -52 57 -25
32 -25 35 -11 69 8 20 13 45 11 57 -5 21 -3 21 41 -6 25 -16 66 -33 91 -37z
m1640 24 c14 -4 44 -8 68 -11 24 -2 46 -5 48 -8 8 -8 -37 -57 -66 -72 -45 -23
-68 -20 -63 8 3 14 -2 31 -12 40 -22 22 -50 8 -70 -36 -40 -88 -58 -102 -129
-102 -49 0 -76 7 -134 34 -62 29 -77 33 -93 23 -18 -12 -19 -11 -7 10 7 13 13
24 14 26 0 1 18 -5 40 -14 135 -57 263 -28 315 71 25 48 22 47 89 31z m-1750
-257 c0 -16 -54 -49 -79 -49 -28 0 -76 37 -105 82 -16 25 -16 26 10 32 15 4
38 16 52 26 l24 20 49 -52 c27 -28 49 -55 49 -59z m1285 91 c-3 -5 10 -19 29
-31 20 -12 36 -24 36 -29 0 -15 -54 -60 -74 -61 -68 -4 -73 8 -29 74 20 31 39
57 41 57 2 0 0 -4 -3 -10z m-862 -64 c32 -52 33 -62 6 -76 -32 -18 -109 7
-109 35 0 8 63 85 70 85 3 0 17 -20 33 -44z m431 -58 c62 -39 65 -43 49 -60
-22 -24 -73 -23 -120 3 -63 35 -66 41 -37 72 13 15 29 27 34 27 5 0 38 -19 74
-42z"/>
<path d="M442 7839 c-32 -12 -40 -43 -34 -129 6 -82 5 -146 -2 -845 -4 -444
-12 -747 -20 -825 -8 -67 -17 -340 -16 -462 2 -342 11 -855 15 -866 6 -17 86
-8 100 11 9 13 10 224 5 1091 0 82 4 174 10 205 5 31 12 113 15 181 2 69 7
159 11 200 4 41 6 181 4 310 -3 257 -3 520 0 790 1 96 0 188 -1 203 -1 15 1
30 4 33 6 6 260 6 377 -1 41 -2 137 -4 213 -4 l138 -1 -5 -712 c-3 -392 -7
-731 -10 -753 -9 -73 -9 -238 0 -360 10 -147 11 -846 2 -935 -4 -36 -14 -80
-24 -98 -38 -77 15 -181 74 -144 7 5 21 38 31 74 21 72 31 133 47 273 9 82 9
386 -1 585 -4 91 -7 233 -5 315 3 216 4 395 2 435 -2 36 6 776 13 1155 2 116
1 224 -2 241 l-5 31 -51 -8 c-29 -4 -155 -10 -282 -13 -126 -3 -256 -7 -287
-9 -32 -1 -91 3 -130 9 -40 7 -89 14 -109 17 -20 2 -41 7 -45 10 -5 2 -19 1
-32 -4z"/>
<path d="M11976 7124 c-22 -21 -21 -26 19 -78 52 -69 48 -79 -24 -53 -58 21
-60 21 -80 3 -37 -34 3 -70 107 -96 59 -16 96 -8 117 24 22 34 7 85 -48 158
-43 60 -64 69 -91 42z"/>
<path d="M5710 7052 c-17 -19 -19 -112 -7 -247 4 -44 10 -136 12 -205 3 -69 7
-163 10 -210 2 -47 7 -150 10 -230 3 -80 8 -194 11 -255 2 -60 7 -159 9 -220
2 -60 7 -164 10 -230 2 -66 7 -172 9 -235 11 -260 18 -394 22 -414 5 -26 29
-45 52 -41 9 2 23 4 30 4 24 2 39 59 36 139 -3 108 -14 320 -19 362 -2 19 -6
105 -10 190 -3 85 -8 189 -10 230 -2 41 -6 143 -10 225 -3 83 -7 191 -10 240
-2 50 -7 153 -10 230 -3 77 -8 176 -10 220 -2 44 -7 155 -10 248 -7 203 -11
217 -62 217 -23 -1 -44 -8 -53 -18z"/>
<path d="M12418 7053 c-10 -2 -19 -9 -19 -14 -1 -5 -2 -15 -3 -21 -2 -12 29
-66 45 -78 3 -3 11 -15 17 -27 11 -19 9 -21 -11 -18 -12 1 -42 10 -66 19 -50
18 -71 9 -71 -29 0 -26 54 -57 128 -74 23 -5 43 -10 45 -12 4 -6 67 36 68 46
0 5 2 18 4 28 6 32 -91 190 -114 186 -3 -1 -14 -3 -23 -6z"/>
<path d="M6344 7023 c-21 -34 -26 -85 -31 -321 -5 -240 -7 -1253 -2 -1547 1
-88 -1 -200 -6 -250 -15 -164 -8 -185 65 -185 35 0 38 3 50 43 10 30 14 127
16 352 2 171 5 418 8 550 7 276 3 265 104 283 78 14 347 9 395 -7 35 -12 37
-14 38 -59 1 -66 7 -164 15 -257 4 -44 8 -258 9 -475 l3 -395 54 -3 c61 -4 79
8 79 54 0 146 -11 872 -16 1029 -9 262 -10 454 -1 590 14 218 8 395 -17 535
l-12 65 -40 1 c-55 1 -74 -23 -65 -83 8 -48 4 -686 -4 -768 -2 -27 -5 -73 -7
-101 l-2 -50 -42 6 c-22 3 -108 4 -190 2 -83 -2 -186 -5 -230 -6 l-79 -1 -7
32 c-6 31 -4 327 5 751 3 122 2 222 -2 222 -4 1 -23 3 -42 6 -27 4 -38 0 -46
-13z"/>
<path d="M2240 7018 c-19 -4 -46 -10 -59 -12 -32 -7 -119 -61 -175 -108 -74
-64 -157 -199 -227 -374 -45 -114 -109 -327 -123 -414 -12 -76 -14 -354 -2
-443 3 -26 8 -68 11 -94 3 -27 10 -68 15 -93 6 -25 12 -54 13 -65 14 -80 75
-260 110 -325 104 -191 236 -307 425 -372 169 -59 378 -10 506 118 84 84 122
167 170 364 25 107 28 123 46 242 40 273 23 655 -41 879 -7 24 -13 49 -15 56
-6 30 -38 119 -47 131 -5 6 -7 12 -3 12 12 0 -137 282 -170 321 -45 55 -119
115 -174 144 -73 37 -181 51 -260 33z m174 -107 c81 -37 206 -185 279 -328 25
-47 104 -286 110 -330 4 -22 9 -52 11 -65 19 -83 30 -216 30 -368 -1 -121 -12
-318 -19 -330 -2 -3 -6 -30 -9 -60 -7 -56 -13 -95 -16 -95 -1 0 -3 -9 -4 -20
-8 -61 -52 -213 -67 -229 -5 -6 -9 -18 -9 -28 0 -10 -3 -18 -8 -18 -4 0 -13
-15 -21 -32 -23 -54 -111 -133 -177 -158 -196 -74 -405 10 -550 220 -71 103
-144 304 -169 463 -3 17 -9 57 -14 87 -10 58 -6 450 4 510 3 19 8 44 10 55 7
43 37 153 56 204 41 112 163 343 204 387 5 6 23 28 39 48 28 36 93 75 166 101
46 16 101 11 154 -14z"/>
<path d="M7483 7002 c-13 -2 -23 -6 -24 -10 -7 -43 -8 -271 -8 -1242 1 -80 1
-264 1 -410 0 -463 2 -565 11 -571 17 -12 458 -16 527 -5 154 24 240 100 288
251 10 32 8 520 -2 565 -3 14 -9 39 -12 55 -21 96 -124 231 -209 273 -122 60
-275 72 -456 37 l-26 -5 1 532 1 532 -35 1 c-19 0 -45 -1 -57 -3z m410 -1136
c95 -13 190 -83 231 -170 38 -81 46 -130 50 -333 6 -317 -30 -426 -162 -490
-56 -27 -59 -28 -245 -27 -103 1 -190 4 -194 8 -10 9 -7 760 2 846 4 36 8 81
9 100 1 30 6 37 36 48 19 8 51 16 70 19 19 3 36 6 38 8 4 4 118 -2 165 -9z"/>
<path d="M3398 6993 c-40 -9 -41 -39 -45 -742 -1 -372 -5 -707 -7 -746 -16
-282 -21 -344 -32 -410 -34 -198 -103 -275 -209 -235 -18 7 -33 7 -46 0 -24
-13 -49 -61 -49 -93 0 -31 32 -38 142 -33 87 3 134 27 176 89 24 36 57 122 66
172 2 17 7 41 11 55 3 14 7 37 10 53 14 78 15 81 30 227 3 25 7 65 10 90 3 25
8 189 10 365 3 176 8 419 11 540 3 121 7 297 7 390 l2 170 177 0 c98 0 178 -4
178 -8 0 -5 5 -5 12 -1 12 8 237 9 244 1 2 -2 4 -192 5 -423 1 -269 6 -451 14
-509 12 -87 13 -673 1 -805 -9 -103 -15 -158 -22 -192 -21 -110 -7 -195 35
-218 66 -35 92 12 108 190 9 104 8 450 -2 595 -5 66 -9 423 -10 794 l0 674
-72 -2 c-98 -3 -215 -10 -293 -16 -145 -12 -241 -14 -262 -6 -13 5 -49 12 -81
15 -33 4 -69 11 -80 15 -12 4 -29 6 -39 4z"/>
<path d="M4768 6985 c-2 -2 -19 -5 -37 -7 -55 -4 -55 -6 -47 -223 3 -71 7
-197 10 -280 10 -289 22 -537 31 -625 2 -25 7 -144 10 -265 6 -238 13 -411 20
-490 2 -27 7 -113 10 -190 4 -77 8 -146 10 -152 3 -10 56 -12 232 -8 125 2
244 7 263 10 155 27 237 80 286 187 28 61 29 68 28 213 -1 223 -15 419 -36
485 -64 206 -239 321 -478 314 -84 -2 -111 -6 -180 -24 -19 -5 -38 -6 -42 -2
-4 4 -10 86 -13 182 -3 96 -8 200 -10 230 -7 102 -18 394 -20 514 -1 95 -4
120 -17 127 -8 5 -17 6 -20 4z m422 -1130 c102 -17 193 -93 230 -192 23 -60
42 -151 39 -181 -1 -9 0 -19 1 -22 10 -22 14 -308 6 -370 -15 -105 -71 -190
-141 -217 -60 -22 -70 -26 -85 -31 -8 -2 -92 -5 -185 -6 l-171 -3 -1 36 c-1
20 -4 65 -7 101 -17 213 -26 694 -15 810 l4 45 73 21 c75 21 165 24 252 9z"/>
<path d="M12256 6854 c-21 -21 -21 -25 14 -91 36 -70 43 -105 26 -129 -17 -22
-35 -26 -125 -25 -77 0 -101 -9 -101 -39 0 -32 28 -44 112 -45 138 -3 211 52
204 150 -5 67 -75 195 -107 195 -4 0 -15 -7 -23 -16z"/>
<path d="M10297 5828 c-26 -14 -20 -44 16 -85 67 -77 83 -120 63 -180 -11 -35
-69 -15 -106 37 -33 46 -55 55 -80 30 -22 -22 -18 -44 16 -82 65 -72 104 -88
196 -80 31 3 61 69 61 136 0 71 -21 120 -80 182 -44 47 -62 56 -86 42z"/>
<path d="M3117 3996 c-2 -6 -2 -58 -1 -116 1 -68 -3 -122 -12 -152 -31 -103
-122 -142 -185 -79 -16 16 -29 38 -30 48 0 10 -3 27 -5 38 -3 11 -5 58 -5 105
1 102 -5 136 -25 144 -34 13 -39 -2 -36 -112 6 -204 54 -282 176 -282 32 0 54
8 84 30 23 17 43 27 43 23 1 -5 3 -75 4 -156 1 -145 6 -166 36 -167 14 0 17
46 17 208 0 92 1 229 3 304 1 94 -2 142 -10 152 -16 19 -49 27 -54 12z"/>
<path d="M279 3981 c-15 -5 -16 -39 -13 -328 1 -178 6 -328 9 -333 4 -6 25 -8
53 -4 26 4 72 7 102 6 100 -1 175 -2 190 -1 48 2 100 -6 101 -15 1 -6 2 -37 3
-69 2 -45 6 -61 20 -69 12 -7 21 -7 29 1 12 12 10 152 -2 164 -5 5 -22 9 -40
9 -17 1 -31 4 -31 7 -1 3 -3 85 -6 181 -11 379 -12 394 -35 437 -10 18 -16 20
-31 12 -15 -8 -18 -16 -13 -32 8 -22 15 -573 8 -592 -2 -7 -59 -10 -151 -10
l-147 0 -1 72 c0 40 -3 75 -6 78 -3 3 -3 20 1 38 3 18 5 88 4 157 -6 288 -8
306 -44 291z"/>
<path d="M879 3982 c-9 -2 -19 -15 -21 -30 -8 -61 -1 -603 9 -613 6 -6 59 -11
119 -13 110 -3 186 7 192 25 2 5 10 9 17 9 23 0 44 73 40 139 -3 69 -37 126
-80 137 -24 6 -36 34 -15 34 19 0 70 60 72 83 4 62 -6 145 -20 169 -25 43 -82
61 -197 62 -55 1 -107 0 -116 -2z m194 -37 c60 -12 85 -50 85 -130 0 -55 -4
-71 -23 -94 -27 -31 -79 -50 -121 -45 -16 2 -44 5 -61 6 -20 1 -34 7 -37 17
-7 25 -1 235 7 248 7 12 83 11 150 -2z m34 -317 c53 -25 77 -72 75 -150 -1
-64 -12 -92 -45 -110 -30 -16 -203 -20 -215 -4 -11 13 -10 256 0 272 13 20
137 14 185 -8z"/>
<path d="M1403 3974 c-81 -37 -97 -85 -97 -289 0 -207 18 -293 68 -334 32 -27
111 -39 179 -27 73 12 97 37 97 101 0 30 -3 36 -16 31 -9 -3 -17 -6 -19 -6 -2
0 -13 -20 -23 -44 -23 -51 -32 -58 -75 -57 -114 1 -148 50 -153 224 -4 120
-12 110 81 108 158 -4 188 -2 196 10 4 7 6 16 5 19 -2 3 -7 34 -10 70 -9 87
-22 132 -47 163 -33 43 -126 58 -186 31z m137 -40 c22 -23 30 -54 35 -151 3
-49 0 -73 -8 -75 -7 -3 -55 -4 -107 -3 l-95 1 -1 72 c-2 82 24 148 64 168 34
16 90 10 112 -12z"/>
<path d="M1693 3976 c-9 -14 17 -23 60 -20 23 1 43 3 45 4 7 5 60 3 69 -3 11
-7 14 -84 16 -484 1 -132 2 -143 19 -143 35 0 40 43 34 343 l-5 288 100 -3
c94 -3 114 1 87 18 -17 11 -419 11 -425 0z"/>
<path d="M3330 3980 c-15 -9 -18 -57 -18 -305 -1 -93 -1 -200 -1 -236 0 -36
-1 -70 -2 -75 -5 -30 3 -44 26 -44 28 0 28 -3 30 105 7 250 5 235 34 242 41
10 180 8 192 -4 13 -13 20 -81 21 -220 l1 -113 28 0 28 0 -3 316 c-2 197 -7
319 -14 326 -5 5 -18 8 -27 6 -15 -3 -17 -19 -19 -123 -2 -66 -4 -129 -5 -140
-1 -19 -8 -20 -114 -21 -61 0 -115 4 -118 9 -4 5 -6 69 -4 143 2 135 -3 154
-35 134z"/>
<path d="M4274 3978 c-24 -5 -52 -21 -69 -38 -27 -28 -29 -37 -31 -115 -2
-120 9 -170 48 -209 18 -18 41 -35 50 -39 19 -7 17 -19 -17 -92 -32 -68 -56
-139 -51 -150 2 -7 15 -11 28 -8 18 3 29 18 47 66 13 34 34 87 48 118 l24 56
58 2 57 1 -4 -123 -4 -123 26 0 c14 0 26 2 27 6 10 55 18 625 9 640 -8 14
-192 20 -246 8z m179 -22 c12 1 17 -5 18 -22 1 -52 0 -274 -1 -281 -1 -5 -2
-15 -1 -25 4 -35 -133 -41 -187 -7 -41 26 -55 66 -55 168 -1 73 3 104 17 129
9 18 21 30 26 27 5 -3 11 -1 15 5 3 5 21 9 40 8 19 -1 38 1 41 4 3 3 19 2 37
-2 18 -4 40 -6 50 -4z"/>
<path d="M6062 3977 c-43 -8 -91 -53 -93 -85 0 -9 -3 -26 -5 -37 -6 -25 -7
-172 -1 -327 4 -109 7 -120 31 -153 61 -80 228 -81 268 -2 27 54 29 66 8 77
-29 16 -37 12 -49 -22 -18 -51 -49 -78 -90 -77 -48 1 -65 9 -90 41 -20 25 -22
41 -24 235 -2 114 1 225 6 246 11 42 38 65 91 77 44 10 87 -14 105 -58 13 -31
35 -47 52 -36 25 15 -10 97 -49 113 -36 15 -108 18 -160 8z"/>
<path d="M6333 3979 c-13 -4 -14 -7 -4 -14 12 -7 56 -8 141 -4 14 1 30 1 36 0
11 -1 14 -91 17 -483 1 -134 3 -148 19 -148 36 0 40 32 35 324 -3 155 -2 288
3 296 5 9 25 13 57 11 26 -1 67 -3 91 -4 42 -2 53 5 30 19 -15 9 -401 12 -425
3z"/>
<path d="M6945 3982 c-49 -11 -88 -57 -103 -121 -9 -36 -8 -327 1 -380 11 -69
42 -124 79 -141 58 -26 135 -28 207 -5 24 7 54 65 50 95 -6 40 -32 29 -62 -27
-29 -54 -34 -57 -97 -53 -67 4 -110 47 -124 125 -7 40 -10 195 -3 201 6 6 10
6 148 3 58 -1 111 1 118 5 11 7 9 89 -4 166 -10 55 -38 104 -67 118 -29 14
-110 22 -143 14z m123 -46 c19 -19 37 -102 37 -171 l0 -60 -107 0 c-105 0
-108 0 -109 22 -1 13 -2 29 -3 36 -4 29 16 123 31 148 10 16 29 33 43 38 32
11 91 4 108 -13z"/>
<path d="M7349 3967 c-62 -31 -81 -70 -82 -165 0 -42 3 -108 7 -147 11 -99 19
-358 17 -572 -1 -172 0 -183 18 -193 35 -18 40 15 40 221 -1 107 -1 202 0 211
1 14 6 15 34 6 43 -14 150 -12 179 2 82 43 96 91 93 315 -3 187 -8 226 -33
269 -32 55 -66 71 -152 73 -63 2 -86 -2 -121 -20z m185 -23 c23 -18 47 -58 53
-94 2 -8 5 -63 8 -121 2 -59 5 -111 6 -115 1 -5 1 -11 0 -14 -1 -3 -3 -40 -5
-82 -6 -125 -46 -173 -139 -165 -33 3 -56 12 -73 28 -34 31 -42 54 -48 136
-21 267 -21 267 -11 342 8 58 84 114 147 107 20 -2 48 -12 62 -22z"/>
<path d="M7860 3980 c-92 -17 -112 -60 -112 -245 -2 -233 5 -316 26 -349 61
-91 238 -97 279 -10 21 44 22 70 1 78 -27 10 -31 7 -47 -33 -20 -49 -51 -71
-98 -71 -50 0 -99 45 -100 92 -6 284 -5 399 4 431 13 45 53 77 99 79 46 2 75
-16 96 -60 18 -40 46 -53 56 -27 8 23 -18 81 -46 98 -27 18 -109 26 -158 17z"/>
<path d="M9119 3971 c-53 -20 -81 -63 -80 -123 0 -123 3 -154 17 -186 15 -37
60 -82 82 -82 17 0 15 -12 -14 -83 -14 -34 -34 -85 -44 -114 -18 -50 -18 -51
0 -56 31 -8 45 12 90 129 l43 111 59 2 58 2 -3 -115 c-2 -63 -1 -119 2 -123 5
-6 49 -14 52 -9 0 0 3 146 6 322 4 248 2 323 -7 329 -25 15 -217 12 -261 -4z
m216 -184 c1 -142 -2 -170 -15 -177 -8 -4 -47 -7 -87 -6 -111 2 -138 37 -142
184 -1 40 3 89 9 108 18 53 39 62 143 60 l92 -1 0 -168z"/>
<path d="M2385 3968 c-75 -28 -121 -75 -169 -173 -42 -86 -48 -157 -21 -265
23 -93 99 -171 197 -201 90 -29 188 -20 251 22 38 25 77 82 83 121 1 4 3 9 4
11 7 7 13 74 14 157 1 89 -1 100 -33 163 -18 37 -37 67 -41 67 -5 0 -11 8 -14
18 -3 9 -28 32 -56 51 -42 28 -60 34 -117 37 -37 2 -81 -1 -98 -8z m148 -32
c15 -6 27 -14 27 -18 0 -5 6 -8 13 -8 27 -1 101 -124 114 -190 12 -66 5 -185
-14 -230 -3 -8 -7 -18 -7 -22 -3 -22 -53 -88 -75 -99 -14 -7 -57 -14 -96 -15
-59 -2 -76 1 -117 23 -55 30 -77 53 -108 108 -29 51 -35 82 -33 176 1 88 25
144 93 221 60 69 125 86 203 54z"/>
<path d="M3889 3962 c-58 -19 -99 -49 -99 -72 0 -28 27 -31 57 -7 67 54 109
69 140 49 24 -15 43 -94 43 -177 0 -94 -4 -99 -70 -110 -25 -4 -51 -12 -57
-17 -7 -6 -13 -8 -13 -4 0 11 -58 -23 -81 -47 -28 -29 -41 -63 -43 -115 -5
-91 73 -152 188 -147 65 3 102 16 123 44 15 21 11 459 -6 517 -12 44 -53 93
-80 95 -9 1 -26 3 -37 4 -12 1 -41 -4 -65 -13z m142 -370 c9 -215 8 -224 -38
-240 -52 -17 -102 -7 -139 29 -32 31 -35 38 -33 86 4 89 75 148 182 151 23 1
27 -4 28 -26z"/>
<path d="M5367 3967 c-14 -12 -51 -97 -42 -97 2 0 -3 -17 -11 -37 -9 -20 -17
-44 -19 -52 -2 -9 -21 -65 -43 -125 l-39 -110 -15 30 c-8 16 -32 74 -52 129
-45 120 -55 145 -67 165 -5 8 -18 34 -29 58 -15 32 -25 42 -44 42 -13 0 -26
-7 -30 -15 -3 -8 -3 -97 0 -197 5 -191 5 -292 -1 -368 -4 -57 1 -67 28 -66 31
1 35 46 31 309 -2 119 -2 217 0 217 2 0 21 -46 41 -102 48 -132 99 -239 124
-262 18 -17 20 -15 54 56 36 75 106 250 112 280 2 10 8 25 13 33 8 15 12 -92
16 -415 1 -97 13 -127 39 -101 12 12 18 269 7 276 -4 3 -4 220 0 220 8 0 6 76
-1 96 -13 33 -51 52 -72 36z"/>
<path d="M5664 3965 c-78 -23 -127 -66 -108 -96 6 -10 64 10 64 22 0 5 20 19
44 31 92 44 124 4 130 -165 3 -78 -6 -106 -37 -108 -102 -7 -186 -53 -212
-116 -32 -77 -10 -158 54 -196 58 -34 195 -26 235 13 21 21 21 14 17 308 -3
208 -14 258 -63 293 -36 26 -70 30 -124 14z m133 -385 c6 -167 4 -193 -14
-212 -12 -11 -38 -19 -71 -22 -47 -3 -56 -1 -87 28 -64 58 -54 155 22 207 24
17 43 28 43 25 0 -3 9 -2 21 2 11 5 35 9 52 10 31 2 32 1 34 -38z"/>
<path d="M8182 3963 c-10 -21 -9 -589 1 -618 8 -22 46 -31 48 -12 1 7 3 66 4
133 1 109 4 123 25 152 13 18 29 32 36 32 11 0 106 -138 175 -253 21 -36 42
-60 57 -64 53 -13 43 14 -66 178 -60 90 -112 170 -116 177 -8 14 57 104 171
240 28 32 29 52 5 52 -26 0 -55 -23 -87 -72 -43 -62 -137 -187 -174 -228 l-31
-35 -1 35 c-2 45 -1 139 2 216 1 33 -1 66 -5 72 -11 18 -34 14 -44 -5z"/>
<path d="M8768 3970 c-34 -10 -108 -51 -108 -61 0 -4 -3 -14 -6 -22 -11 -30
24 -24 81 15 109 73 153 37 159 -130 2 -49 0 -95 -4 -101 -4 -7 -35 -19 -69
-26 -129 -31 -181 -78 -189 -172 -9 -102 64 -163 190 -157 73 3 127 29 129 62
3 38 -2 451 -5 469 -8 42 -36 92 -58 107 -28 19 -84 26 -120 16z m129 -405 c9
-215 10 -214 -94 -220 -37 -2 -48 3 -82 34 -33 31 -38 41 -36 77 3 82 37 126
115 150 19 6 49 10 65 10 29 -1 30 -3 32 -51z"/>
</g>
</svg>
