<svg width="597" height="486" viewBox="0 0 597 486" fill="none" xmlns="http://www.w3.org/2000/svg">
<path d="M230.072 106.869C236.091 103.711 244.376 99.3571 250.68 95.6884C347.125 39.5587 354.958 24.9161 363.281 1C330.48 1 234.524 61.6445 178.713 81.656" stroke="#EA2E5B" stroke-miterlimit="10" stroke-linecap="round" stroke-linejoin="round"/>
<path d="M1 224.786C1 224.786 26.7023 153.038 96.4658 115.699C142.589 91.0137 197.699 98.969 229.753 107.195C246.182 111.412 253.263 113.525 253.263 113.525L256.554 119.452L265.202 119.318C265.78 119.309 266.342 119.404 266.883 119.609C270.996 121.167 289.992 128.725 309.917 142.544C332.438 158.163 348.593 178.174 372.093 189.888C395.592 201.602 420.56 189.888 487.875 194.769C555.191 199.65 611.002 237.965 592.153 272.863C577.466 250.167 543.319 225.884 459.236 226.617C375.152 227.349 352.387 208.679 313.834 170.609C275.28 132.538 262.796 129.976 264.265 133.636C265.734 137.297 281.191 144.984 298.43 165.118C315.67 185.251 371.848 271.642 370.379 353.641C307.959 331.311 292.905 233.206 289.967 216.733C287.03 200.26 285.907 166.648 243.315 143.586L241.317 137.785L234.511 139.371C234.511 139.371 215.639 130.637 187.277 126.322C167.234 123.273 143.436 122.856 120.584 130.317C117.28 131.396 101.91 138.412 102.585 141.812V141.812C103.307 145.443 120.191 144.276 123.86 143.706C139.385 141.293 161.857 135.393 186.21 126.315" stroke="#EA2E5B" stroke-miterlimit="10" stroke-linecap="round" stroke-linejoin="round"/>
<path d="M378.25 346.215C378.25 346.215 393.02 366.747 409.528 363.537C410.567 363.335 411.473 362.664 412.039 361.772C450.97 300.419 365.973 218.564 365.973 218.564" stroke="#EA2E5B" stroke-miterlimit="10" stroke-linecap="round" stroke-linejoin="round"/>
<path d="M295.108 262.491C295.108 262.491 230.852 349.248 261.695 440.032C271.976 459.433 280.605 451.746 280.788 450.282C280.972 448.817 279.687 435.273 285.745 430.148" stroke="#EA2E5B" stroke-miterlimit="10" stroke-linecap="round" stroke-linejoin="round"/>
<path d="M287.397 291.243C287.397 291.243 254.365 386.661 291.355 418.71C292.497 419.699 294.17 419.931 295.441 419.114C322.492 401.715 305.389 291.243 305.389 291.243" stroke="#EA2E5B" stroke-miterlimit="10" stroke-linecap="round" stroke-linejoin="round"/>
<path d="M310.488 346.498C310.488 346.498 324.849 374.506 342.841 374.689C353.856 363.922 341.148 335.205 341.148 335.205" stroke="#EA2E5B" stroke-miterlimit="10" stroke-linecap="round" stroke-linejoin="round"/>
<path d="M304.287 434.176C304.287 434.176 337.844 474.806 339.169 424.658" stroke="#EA2E5B" stroke-miterlimit="10" stroke-linecap="round" stroke-linejoin="round"/>
<path d="M336.366 442.187C336.366 442.187 376.988 489.816 379.926 428.684" stroke="#EA2E5B" stroke-miterlimit="10" stroke-linecap="round" stroke-linejoin="round"/>
<path d="M379.925 446.988C379.925 446.988 416.276 473.345 423.986 424.658" stroke="#EA2E5B" stroke-miterlimit="10" stroke-linecap="round" stroke-linejoin="round"/>
<path d="M417.011 419.609C417.011 419.609 461.806 449.549 460.705 397.934" stroke="#EA2E5B" stroke-miterlimit="10" stroke-linecap="round" stroke-linejoin="round"/>
<path d="M280.788 450.282C280.788 450.282 299.798 480.99 310.488 449.712" stroke="#EA2E5B" stroke-miterlimit="10" stroke-linecap="round" stroke-linejoin="round"/>
<path d="M307.404 456.737C307.404 456.737 329.427 494.327 347.333 459.858" stroke="#EA2E5B" stroke-miterlimit="10" stroke-linecap="round" stroke-linejoin="round"/>
<path d="M350.918 463.763C350.918 463.763 362.301 490.382 379.925 465.573C379.925 465.573 410.956 496.742 422.245 453.013C422.245 453.013 458.134 474.443 453.361 431.247" stroke="#EA2E5B" stroke-miterlimit="10" stroke-linecap="round" stroke-linejoin="round"/>
<path d="M458.783 414.898C458.783 414.898 506.602 436.372 497.789 385.489" stroke="#EA2E5B" stroke-miterlimit="10" stroke-linecap="round" stroke-linejoin="round"/>
<path d="M453.797 444.271C453.797 444.271 490.629 463.903 487.599 417.924" stroke="#EA2E5B" stroke-miterlimit="10" stroke-linecap="round" stroke-linejoin="round"/>
<path d="M495.993 410.557C495.993 410.557 532.671 421.363 524.226 382.194" stroke="#EA2E5B" stroke-miterlimit="10" stroke-linecap="round" stroke-linejoin="round"/>
<path d="M528.632 375.971C528.632 375.971 573.427 391.712 550.663 343.758" stroke="#EA2E5B" stroke-miterlimit="10" stroke-linecap="round" stroke-linejoin="round"/>
<path d="M521.267 406.298C521.267 406.298 561.31 412.763 547.358 378.443" stroke="#EA2E5B" stroke-miterlimit="10" stroke-linecap="round" stroke-linejoin="round"/>
<path d="M483.184 442.03C483.184 442.03 517.818 446.699 510.741 417.924" stroke="#EA2E5B" stroke-miterlimit="10" stroke-linecap="round" stroke-linejoin="round"/>
<path d="M509.8 433.181C509.8 433.181 536.343 439.456 531.937 411.924" stroke="#EA2E5B" stroke-miterlimit="10" stroke-linecap="round" stroke-linejoin="round"/>
<path d="M532.43 424.658C532.43 424.658 552.498 422.325 546.623 402.443" stroke="#EA2E5B" stroke-miterlimit="10" stroke-linecap="round" stroke-linejoin="round"/>
<path d="M409.312 474.408C409.312 474.408 425.822 486.521 432.432 468.219" stroke="#EA2E5B" stroke-miterlimit="10" stroke-linecap="round" stroke-linejoin="round"/>
<path d="M425.823 463.763C425.823 463.763 451.525 481.13 457.4 456.737" stroke="#EA2E5B" stroke-miterlimit="10" stroke-linecap="round" stroke-linejoin="round"/>
<path d="M453.797 463.246C453.797 463.246 474.982 466.622 475.37 447.653" stroke="#EA2E5B" stroke-miterlimit="10" stroke-linecap="round" stroke-linejoin="round"/>
<path d="M472.846 456.736C472.846 456.736 497.456 468.282 497.439 441.345" stroke="#EA2E5B" stroke-miterlimit="10" stroke-linecap="round" stroke-linejoin="round"/>
<path d="M369.784 475.075C369.784 475.075 389.105 496.539 396.632 476.338" stroke="#EA2E5B" stroke-miterlimit="10" stroke-linecap="round" stroke-linejoin="round"/>
<path d="M336.366 473.279C336.366 473.279 349.834 489.686 357.904 473.279" stroke="#EA2E5B" stroke-miterlimit="10" stroke-linecap="round" stroke-linejoin="round"/>
<path d="M292.272 462.91C292.272 462.91 305.927 494.794 320.437 471.074" stroke="#EA2E5B" stroke-miterlimit="10" stroke-linecap="round" stroke-linejoin="round"/>
<path d="M549.25 397.058C549.25 397.058 575.814 399.215 564.248 366.27" stroke="#EA2E5B" stroke-miterlimit="10" stroke-linecap="round" stroke-linejoin="round"/>
<path d="M557.114 363.646C557.114 363.646 584.32 369.503 575.263 341.438" stroke="#EA2E5B" stroke-miterlimit="10" stroke-linecap="round" stroke-linejoin="round"/>
<path d="M333.662 405.622C333.662 405.622 368.911 451.746 373.561 403.425V403.097C373.561 403.097 416.643 453.942 415.419 385.488C415.419 385.488 465.111 427.617 461.684 361.1" stroke="#EA2E5B" stroke-miterlimit="10" stroke-linecap="round" stroke-linejoin="round"/>
<path d="M460.725 383.658C460.725 383.658 503.262 403.914 498.873 358.034" stroke="#EA2E5B" stroke-miterlimit="10" stroke-linecap="round" stroke-linejoin="round"/>
<path d="M497.439 376.244C497.439 376.244 538.056 395.86 528.632 347.54" stroke="#EA2E5B" stroke-miterlimit="10" stroke-linecap="round" stroke-linejoin="round"/>
<path d="M419.091 366.27C419.091 366.27 432.065 376.337 431.33 358.034" stroke="#EA2E5B" stroke-miterlimit="10" stroke-linecap="round" stroke-linejoin="round"/>
<path d="M437.695 356.814C437.695 356.814 452.382 369.26 448.955 343.758" stroke="#EA2E5B" stroke-miterlimit="10" stroke-linecap="round" stroke-linejoin="round"/>
<path d="M454.585 343.757C453.873 343.402 476.183 353.95 472.619 333.886C472.384 332.561 472.222 331.213 472.109 329.872C471.861 326.953 471.004 321.568 468.048 318.109" stroke="#EA2E5B" stroke-miterlimit="10" stroke-linecap="round" stroke-linejoin="round"/>
<path d="M477.595 331.921C477.595 331.921 486.162 358.508 512.109 351.803C530.051 340.95 517.984 315.082 517.984 315.082" stroke="#EA2E5B" stroke-miterlimit="10" stroke-linecap="round" stroke-linejoin="round"/>
<path d="M525.328 336.558C525.328 336.558 570.858 349.981 547.114 303.613" stroke="#EA2E5B" stroke-miterlimit="10" stroke-linecap="round" stroke-linejoin="round"/>
<path d="M515.781 302.392C515.781 302.392 548.482 308.737 530.051 281.161" stroke="#EA2E5B" stroke-miterlimit="10" stroke-linecap="round" stroke-linejoin="round"/>
<path d="M535.684 276.036C535.684 276.036 561.887 288.482 542.873 265.298" stroke="#EA2E5B" stroke-miterlimit="10" stroke-linecap="round" stroke-linejoin="round"/>
<path d="M553.558 320.988C553.558 320.988 594.357 336.803 571.591 295.437" stroke="#EA2E5B" stroke-miterlimit="10" stroke-linecap="round" stroke-linejoin="round"/>
<path d="M563.13 246.509C563.13 246.509 586.336 271.207 576.154 279.395C575.132 280.216 573.631 280.047 572.717 279.107C521.306 226.252 449.393 226.937 449.393 226.937H450.143C450.143 226.937 499.87 253.339 492.526 300.683C463.152 317.522 410.118 279.372 410.118 279.372" stroke="#EA2E5B" stroke-miterlimit="10" stroke-linecap="round" stroke-linejoin="round"/>
<path d="M357.55 383.26C357.55 383.26 363.425 393.889 372.696 391.076C380.958 378.514 366.179 367.291 366.179 367.291" stroke="#EA2E5B" stroke-miterlimit="10" stroke-linecap="round" stroke-linejoin="round"/>
<path d="M547.726 288.665C565.167 296.535 561.678 302.575 563.147 298.915C564.489 295.571 565.984 289.935 562.593 284.939C562.394 284.645 562.723 284.289 563.028 284.473C578.536 293.858 578.536 292.091 578.536 292.091" stroke="#EA2E5B" stroke-miterlimit="10" stroke-linecap="round" stroke-linejoin="round"/>
<path d="M569.634 338.363C569.634 338.363 606.351 339.243 586.034 298.732" stroke="#EA2E5B" stroke-miterlimit="10" stroke-linecap="round" stroke-linejoin="round"/>
<path d="M499.774 268.998C499.774 268.998 525.978 281.444 506.964 258.26" stroke="#EA2E5B" stroke-miterlimit="10" stroke-linecap="round" stroke-linejoin="round"/>
</svg>
