<svg width="30" height="30" viewBox="0 0 30 30" fill="none" xmlns="http://www.w3.org/2000/svg">
<g clip-path="url(#clip0_83_8)">
<path d="M1.87513 2.04125C-0.482373 4.49 0.000127003 7.09125 0.000127003 14.9937C0.000127003 21.5562 -1.14487 28.135 4.84763 29.6837C6.71888 30.165 23.2989 30.165 25.1676 29.6812C27.6626 29.0375 29.6926 27.0137 29.9701 23.485C30.0089 22.9925 30.0089 7.00375 29.9689 6.50125C29.6739 2.7425 27.3601 0.576247 24.3114 0.137497C23.6126 0.0362469 23.4726 0.00624694 19.8876 -3.05542e-06C7.17138 0.00624694 4.38388 -0.560003 1.87513 2.04125V2.04125Z" fill="url(#paint0_linear_83_8)"/>
<path d="M14.9973 3.92375C10.4585 3.92375 6.14852 3.52 4.50227 7.745C3.82227 9.49 3.92102 11.7562 3.92102 15.0012C3.92102 17.8487 3.82977 20.525 4.50227 22.2563C6.14477 26.4838 10.4898 26.0788 14.9948 26.0788C19.341 26.0788 23.8223 26.5313 25.4885 22.2563C26.1698 20.4937 26.0698 18.2612 26.0698 15.0012C26.0698 10.6737 26.3085 7.88 24.2098 5.7825C22.0848 3.6575 19.211 3.92375 14.9923 3.92375H14.9973ZM14.0048 5.92C23.4723 5.905 24.6773 4.8525 24.0123 19.4737C23.776 24.645 19.8385 24.0775 14.9985 24.0775C6.17352 24.0775 5.91977 23.825 5.91977 14.9962C5.91977 6.065 6.61977 5.925 14.0048 5.9175V5.92ZM20.9098 7.75875C20.176 7.75875 19.581 8.35375 19.581 9.0875C19.581 9.82125 20.176 10.4162 20.9098 10.4162C21.6435 10.4162 22.2385 9.82125 22.2385 9.0875C22.2385 8.35375 21.6435 7.75875 20.9098 7.75875V7.75875ZM14.9973 9.3125C11.856 9.3125 9.30977 11.86 9.30977 15.0012C9.30977 18.1425 11.856 20.6888 14.9973 20.6888C18.1385 20.6888 20.6835 18.1425 20.6835 15.0012C20.6835 11.86 18.1385 9.3125 14.9973 9.3125V9.3125ZM14.9973 11.3087C19.8785 11.3087 19.8848 18.6937 14.9973 18.6937C10.1173 18.6937 10.1098 11.3087 14.9973 11.3087Z" fill="white"/>
</g>
<defs>
<linearGradient id="paint0_linear_83_8" x1="1.93265" y1="28.0839" x2="29.8145" y2="3.95246" gradientUnits="userSpaceOnUse">
<stop stop-color="#FFDD55"/>
<stop offset="0.5" stop-color="#FF543E"/>
<stop offset="1" stop-color="#C837AB"/>
</linearGradient>
<clipPath id="clip0_83_8">
<rect width="30" height="30" fill="white"/>
</clipPath>
</defs>
</svg>
