<svg width="165" height="94" viewBox="0 0 165 94" fill="none" xmlns="http://www.w3.org/2000/svg">
<path d="M108.62 18.1069C109.52 17.6344 110.76 16.9831 111.703 16.4342C126.133 8.0363 127.305 5.84554 128.55 2.2673C123.642 2.2673 109.286 11.3407 100.936 14.3347" stroke="#8A8E7D" stroke-miterlimit="10" stroke-linecap="round" stroke-linejoin="round"/>
<path d="M74.3467 35.7494C74.3467 35.7494 78.1922 25.0147 88.6299 19.4282C95.5306 15.7349 103.776 16.9251 108.572 18.1559C111.03 18.7867 112.089 19.103 112.089 19.103L112.582 19.9896L113.875 19.9696C113.962 19.9683 114.046 19.9825 114.127 20.0131C114.742 20.2463 117.585 21.3771 120.566 23.4446C123.935 25.7814 126.352 28.7754 129.868 30.5281C133.384 32.2807 137.12 30.5281 147.191 31.2583C157.262 31.9886 165.613 37.721 162.793 42.9424C160.595 39.5467 155.486 35.9137 142.906 36.0232C130.326 36.1327 126.92 33.3395 121.152 27.6436C115.383 21.9476 113.516 21.5642 113.735 22.1119C113.955 22.6596 116.268 23.8097 118.847 26.822C121.426 29.8343 129.831 42.7598 129.612 55.028C120.273 51.6871 118.02 37.009 117.581 34.5445C117.141 32.0798 116.973 27.051 110.601 23.6005L110.302 22.7326L109.284 22.9699C109.284 22.9699 106.46 21.6632 102.217 21.0176C99.2179 20.5613 95.6573 20.499 92.2384 21.6153C91.744 21.7767 89.4444 22.8264 89.5455 23.3351V23.3351C89.6534 23.8784 92.1795 23.7037 92.7285 23.6184C95.0514 23.2574 98.4134 22.3748 102.057 21.0165" stroke="#8A8E7D" stroke-miterlimit="10" stroke-linecap="round" stroke-linejoin="round"/>
<path d="M130.79 53.9169C130.79 53.9169 132.999 56.9888 135.469 56.5085C135.625 56.4783 135.76 56.378 135.845 56.2445C141.67 47.0651 128.953 34.8183 128.953 34.8183" stroke="#8A8E7D" stroke-miterlimit="10" stroke-linecap="round" stroke-linejoin="round"/>
<path d="M118.35 41.3906C118.35 41.3906 108.736 54.3708 113.351 67.9535C114.889 70.8562 116.18 69.7061 116.208 69.487C116.235 69.2679 116.043 67.2415 116.949 66.4747" stroke="#8A8E7D" stroke-miterlimit="10" stroke-linecap="round" stroke-linejoin="round"/>
<path d="M117.196 45.6923C117.196 45.6923 112.254 59.9683 117.788 64.7633C117.959 64.9113 118.209 64.946 118.4 64.8237C122.447 62.2206 119.888 45.6923 119.888 45.6923" stroke="#8A8E7D" stroke-miterlimit="10" stroke-linecap="round" stroke-linejoin="round"/>
<path d="M120.651 53.9593C120.651 53.9593 122.8 58.1499 125.491 58.1772C127.139 56.5663 125.238 52.2698 125.238 52.2698" stroke="#8A8E7D" stroke-miterlimit="10" stroke-linecap="round" stroke-linejoin="round"/>
<path d="M119.723 67.0772C119.723 67.0772 124.744 73.1561 124.942 65.6532" stroke="#8A8E7D" stroke-miterlimit="10" stroke-linecap="round" stroke-linejoin="round"/>
<path d="M124.523 68.2759C124.523 68.2759 130.601 75.4021 131.04 66.2556" stroke="#8A8E7D" stroke-miterlimit="10" stroke-linecap="round" stroke-linejoin="round"/>
<path d="M131.04 68.9941C131.04 68.9941 136.479 72.9375 137.632 65.6532" stroke="#8A8E7D" stroke-miterlimit="10" stroke-linecap="round" stroke-linejoin="round"/>
<path d="M136.588 64.898C136.588 64.898 143.291 69.3775 143.126 61.6551" stroke="#8A8E7D" stroke-miterlimit="10" stroke-linecap="round" stroke-linejoin="round"/>
<path d="M116.208 69.487C116.208 69.487 119.052 74.0813 120.651 69.4017" stroke="#8A8E7D" stroke-miterlimit="10" stroke-linecap="round" stroke-linejoin="round"/>
<path d="M120.189 70.4528C120.189 70.4528 123.485 76.0769 126.163 70.9198" stroke="#8A8E7D" stroke-miterlimit="10" stroke-linecap="round" stroke-linejoin="round"/>
<path d="M126.7 71.5039C126.7 71.5039 128.403 75.4865 131.04 71.7748C131.04 71.7748 135.683 76.4381 137.372 69.8955C137.372 69.8955 142.741 73.1018 142.027 66.639" stroke="#8A8E7D" stroke-miterlimit="10" stroke-linecap="round" stroke-linejoin="round"/>
<path d="M142.838 64.1929C142.838 64.1929 149.993 67.4058 148.674 59.7929" stroke="#8A8E7D" stroke-miterlimit="10" stroke-linecap="round" stroke-linejoin="round"/>
<path d="M142.092 68.5877C142.092 68.5877 147.603 71.5251 147.15 64.6458" stroke="#8A8E7D" stroke-miterlimit="10" stroke-linecap="round" stroke-linejoin="round"/>
<path d="M148.406 63.5435C148.406 63.5435 153.893 65.1603 152.63 59.3" stroke="#8A8E7D" stroke-miterlimit="10" stroke-linecap="round" stroke-linejoin="round"/>
<path d="M153.289 58.3689C153.289 58.3689 159.991 60.724 156.585 53.5493" stroke="#8A8E7D" stroke-miterlimit="10" stroke-linecap="round" stroke-linejoin="round"/>
<path d="M152.187 62.9064C152.187 62.9064 158.178 63.8736 156.091 58.7388" stroke="#8A8E7D" stroke-miterlimit="10" stroke-linecap="round" stroke-linejoin="round"/>
<path d="M146.489 68.2525C146.489 68.2525 151.671 68.9509 150.612 64.6458" stroke="#8A8E7D" stroke-miterlimit="10" stroke-linecap="round" stroke-linejoin="round"/>
<path d="M150.471 66.9283C150.471 66.9283 154.442 67.8672 153.783 63.7479" stroke="#8A8E7D" stroke-miterlimit="10" stroke-linecap="round" stroke-linejoin="round"/>
<path d="M153.857 65.6532C153.857 65.6532 156.859 65.3042 155.98 62.3295" stroke="#8A8E7D" stroke-miterlimit="10" stroke-linecap="round" stroke-linejoin="round"/>
<path d="M135.437 73.0967C135.437 73.0967 137.907 74.9091 138.896 72.1707" stroke="#8A8E7D" stroke-miterlimit="10" stroke-linecap="round" stroke-linejoin="round"/>
<path d="M137.907 71.5039C137.907 71.5039 141.752 74.1023 142.631 70.4528" stroke="#8A8E7D" stroke-miterlimit="10" stroke-linecap="round" stroke-linejoin="round"/>
<path d="M142.092 71.4267C142.092 71.4267 145.262 71.9319 145.32 69.0938" stroke="#8A8E7D" stroke-miterlimit="10" stroke-linecap="round" stroke-linejoin="round"/>
<path d="M144.942 70.4528C144.942 70.4528 148.624 72.1803 148.622 68.15" stroke="#8A8E7D" stroke-miterlimit="10" stroke-linecap="round" stroke-linejoin="round"/>
<path d="M129.522 73.1966C129.522 73.1966 132.413 76.4078 133.539 73.3856" stroke="#8A8E7D" stroke-miterlimit="10" stroke-linecap="round" stroke-linejoin="round"/>
<path d="M124.523 72.9278C124.523 72.9278 126.538 75.3827 127.745 72.9278" stroke="#8A8E7D" stroke-miterlimit="10" stroke-linecap="round" stroke-linejoin="round"/>
<path d="M117.926 71.3765C117.926 71.3765 119.969 76.1469 122.14 72.5979" stroke="#8A8E7D" stroke-miterlimit="10" stroke-linecap="round" stroke-linejoin="round"/>
<path d="M156.374 61.524C156.374 61.524 160.348 61.8467 158.617 56.9175" stroke="#8A8E7D" stroke-miterlimit="10" stroke-linecap="round" stroke-linejoin="round"/>
<path d="M157.55 56.525C157.55 56.525 161.621 57.4014 160.266 53.2024" stroke="#8A8E7D" stroke-miterlimit="10" stroke-linecap="round" stroke-linejoin="round"/>
<path d="M124.118 62.8052C124.118 62.8052 129.392 69.7061 130.088 62.4766V62.4274C130.088 62.4274 136.534 70.0347 136.35 59.7929C136.35 59.7929 143.785 66.0961 143.272 56.144" stroke="#8A8E7D" stroke-miterlimit="10" stroke-linecap="round" stroke-linejoin="round"/>
<path d="M143.129 59.5191C143.129 59.5191 149.493 62.5496 148.837 55.6852" stroke="#8A8E7D" stroke-miterlimit="10" stroke-linecap="round" stroke-linejoin="round"/>
<path d="M148.622 58.4099C148.622 58.4099 154.699 61.3447 153.289 54.1152" stroke="#8A8E7D" stroke-miterlimit="10" stroke-linecap="round" stroke-linejoin="round"/>
<path d="M136.9 56.9175C136.9 56.9175 138.841 58.4237 138.731 55.6852" stroke="#8A8E7D" stroke-miterlimit="10" stroke-linecap="round" stroke-linejoin="round"/>
<path d="M139.683 55.5027C139.683 55.5027 141.881 57.3648 141.368 53.5493" stroke="#8A8E7D" stroke-miterlimit="10" stroke-linecap="round" stroke-linejoin="round"/>
<path d="M142.21 53.5493C142.103 53.4961 145.441 55.0742 144.908 52.0723C144.873 51.8741 144.849 51.6724 144.832 51.4718C144.795 51.035 144.667 50.2294 144.224 49.7119" stroke="#8A8E7D" stroke-miterlimit="10" stroke-linecap="round" stroke-linejoin="round"/>
<path d="M145.653 51.7784C145.653 51.7784 146.935 55.7562 150.817 54.7531C153.501 53.1294 151.696 49.259 151.696 49.259" stroke="#8A8E7D" stroke-miterlimit="10" stroke-linecap="round" stroke-linejoin="round"/>
<path d="M152.794 52.4721C152.794 52.4721 159.606 54.4803 156.054 47.5429" stroke="#8A8E7D" stroke-miterlimit="10" stroke-linecap="round" stroke-linejoin="round"/>
<path d="M151.366 47.3604C151.366 47.3604 156.259 48.3097 153.501 44.1838" stroke="#8A8E7D" stroke-miterlimit="10" stroke-linecap="round" stroke-linejoin="round"/>
<path d="M154.344 43.417C154.344 43.417 158.264 45.2792 155.419 41.8105" stroke="#8A8E7D" stroke-miterlimit="10" stroke-linecap="round" stroke-linejoin="round"/>
<path d="M157.018 50.1425C157.018 50.1425 163.122 52.5087 159.716 46.3198" stroke="#8A8E7D" stroke-miterlimit="10" stroke-linecap="round" stroke-linejoin="round"/>
<path d="M158.45 38.9995C158.45 38.9995 161.922 42.6947 160.399 43.9197C160.246 44.0426 160.021 44.0173 159.884 43.8767C152.193 35.9687 141.433 36.0712 141.433 36.0712H141.546C141.546 36.0712 148.985 40.0214 147.887 47.1048C143.492 49.6242 135.557 43.9162 135.557 43.9162" stroke="#8A8E7D" stroke-miterlimit="10" stroke-linecap="round" stroke-linejoin="round"/>
<path d="M127.692 59.4595C127.692 59.4595 128.571 61.0497 129.958 60.6288C131.195 58.7495 128.983 57.0703 128.983 57.0703" stroke="#8A8E7D" stroke-miterlimit="10" stroke-linecap="round" stroke-linejoin="round"/>
<path d="M156.146 45.3065C158.755 46.4841 158.233 47.3878 158.453 46.8401C158.654 46.3398 158.877 45.4966 158.37 44.7491C158.34 44.7051 158.389 44.6518 158.435 44.6794C160.755 46.0835 160.755 45.8192 160.755 45.8192" stroke="#8A8E7D" stroke-miterlimit="10" stroke-linecap="round" stroke-linejoin="round"/>
<path d="M159.423 52.7421C159.423 52.7421 164.917 52.8738 161.877 46.8127" stroke="#8A8E7D" stroke-miterlimit="10" stroke-linecap="round" stroke-linejoin="round"/>
<path d="M148.971 42.3641C148.971 42.3641 152.892 44.2263 150.047 40.7576" stroke="#8A8E7D" stroke-miterlimit="10" stroke-linecap="round" stroke-linejoin="round"/>
<path d="M15.5286 51.8307C15.623 50.3412 15.6818 48.9405 15.7061 47.628C15.7295 46.3161 15.7416 44.9856 15.7416 43.6373V32.8369H15.0326C14.2282 32.8369 13.3538 32.8369 12.4089 32.8369C11.4625 32.8369 10.7302 32.802 10.2108 32.7303H6.59452V33.3155C6.64072 33.5642 6.66503 33.8037 6.66503 34.034V34.7521V36.242C6.66503 36.7036 6.64072 37.1288 6.59452 37.5191V37.5719C6.59452 37.8206 6.58236 38.0427 6.55902 38.2371C6.5347 38.4325 6.52351 38.6187 6.52351 38.7957V39.8066V41.2431C6.52351 41.7755 6.54686 42.3258 6.59452 42.8926C6.59452 43.3895 6.60522 43.8768 6.63002 44.3558C6.65287 44.8344 6.66503 45.2334 6.66503 45.5529V46.8828C6.66503 47.3444 6.65287 47.8409 6.63002 48.3728C6.60522 48.9046 6.5702 49.437 6.52351 49.9689V50.0222C6.47586 50.6258 6.44035 51.2013 6.41701 51.7511C6.39269 52.3009 6.38151 52.8246 6.38151 53.3201L6.09799 55.0762V57.6303C6.09799 57.9145 6.10917 58.1801 6.13349 58.4284C6.15683 58.6766 6.16899 58.9249 6.16899 59.1731V70.3992C6.02699 70.6125 5.76681 70.7182 5.38894 70.7182C4.96341 70.7182 4.75089 70.7007 4.75089 70.6658V64.3338C4.75089 64.1214 4.73873 63.8373 4.71539 63.4824C4.69107 63.1285 4.66773 62.7202 4.64439 62.2586C4.62007 61.798 4.60889 61.3374 4.60889 60.8759C4.60889 60.4153 4.60889 59.9712 4.60889 59.5455C4.60889 58.4817 4.63223 57.5237 4.67989 56.6723C4.72658 55.8209 4.77423 54.9346 4.82141 54.0124C4.91575 53.0195 4.9746 51.9732 4.99891 50.8736C5.02226 49.7744 5.03441 48.5507 5.03441 47.2023V39.2747L5.24693 36.9867V35.6568C5.24693 35.267 5.24693 34.9208 5.24693 34.6192C5.24693 34.3181 5.19927 34.0432 5.10542 33.7945C5.10542 33.6175 5.09326 33.4488 5.06991 33.2893C5.0456 33.1293 5.03441 32.9616 5.03441 32.7836C5.03441 31.8973 5.24693 31.4537 5.67246 31.4537C5.86066 31.4537 5.95598 31.4362 5.95598 31.4004V31.5599H6.23999L7.65809 31.7727C8.22514 31.8794 8.69735 31.9322 9.07619 31.9322H9.74974C10.0089 31.9322 10.3046 31.9148 10.6363 31.8794C10.9198 31.8445 11.1912 31.8178 11.4514 31.7994C11.7111 31.7819 11.9357 31.7727 12.1254 31.7727H13.827H14.9261C14.9261 31.7727 15.7878 31.7553 16.0252 31.7194L16.5217 31.6665L17.2307 31.5599C17.2307 31.7019 17.2419 31.8261 17.2662 31.9322C17.2891 32.0389 17.3017 32.1984 17.3017 32.4113C17.3017 32.5533 17.3124 32.6862 17.3368 32.8103C17.3601 32.9349 17.3723 33.0498 17.3723 33.156V33.5283C17.3723 33.7063 17.3601 33.9458 17.3368 34.2469C17.3124 34.5484 17.3017 34.93 17.3017 35.3906V35.7101C17.2541 36.242 17.2307 36.899 17.2307 37.6786V40.3918V43.2649V45.1539C17.2307 45.7042 17.2064 46.2268 17.1597 46.7233V46.7767C17.1597 47.1316 17.1476 47.4506 17.1242 47.7342C17.0999 48.0183 17.0887 48.2845 17.0887 48.5323V49.2241C17.0887 49.2241 17.1121 49.6324 17.1597 49.8093C17.1597 50.0222 17.1709 50.2001 17.1952 50.3412C17.2186 50.4833 17.2307 50.6428 17.2307 50.8202C17.2307 51.2459 17.2186 51.6542 17.1952 52.044C17.1709 52.4348 17.1597 52.8246 17.1597 53.2144C17.1121 53.6052 17.0887 54.0037 17.0887 54.411V55.7676C17.0887 56.4784 17.0999 57.1775 17.1242 57.8699C17.1476 58.5612 17.1831 59.2264 17.2307 59.8645C17.2769 60.3619 17.3017 60.9021 17.3017 61.4877V63.11V64.2804C17.3017 64.8128 17.2662 65.4334 17.1952 66.1432C17.1242 66.853 17.0289 67.526 16.9117 68.165C16.7931 68.803 16.6632 69.3538 16.5217 69.8144C16.3797 70.275 16.2134 70.5058 16.0252 70.5058C15.6463 70.5058 15.3983 70.3371 15.2806 70.0006C15.162 69.6632 15.1036 69.4072 15.1036 69.2287C15.1036 68.9097 15.2451 68.6091 15.5286 68.324V68.1117C15.623 67.4028 15.6818 66.6135 15.7061 65.7437C15.7295 64.8749 15.7416 63.9973 15.7416 63.11C15.7416 61.7631 15.7295 60.3261 15.7061 58.8007C15.6818 57.2764 15.5996 55.6619 15.4581 53.9591L15.5286 51.8307Z" fill="#8A8E7D"/>
<path d="M36.8006 52.5754C36.895 53.2503 36.9776 53.9678 37.0486 54.73C37.1196 55.4932 37.1551 56.3184 37.1551 57.2046C37.1551 57.6662 37.143 58.1268 37.1196 58.5874C37.0953 59.049 37.0598 59.5813 37.0131 60.1835C36.9236 61.1774 36.7782 62.2053 36.5769 63.27C36.3751 64.3338 36.095 65.4159 35.737 66.5156C35.2638 67.8634 34.5071 68.9184 33.4679 69.6806C32.4276 70.4438 31.1511 70.8248 29.6386 70.8248H28.8591C26.2111 70.1868 24.2143 68.7323 22.8672 66.4622C21.5196 64.1922 20.7507 60.9467 20.5625 56.7256V55.0229C20.5625 54.314 20.6092 53.6663 20.703 53.0815C20.7974 52.4959 20.9627 51.8307 21.1976 51.0859C21.574 49.7386 22.0448 48.3994 22.6099 47.069C23.175 45.7391 23.8806 44.5779 24.7283 43.5845C25.1042 43.1942 25.7389 42.7331 26.6342 42.2007C27.3875 41.8468 28.1875 41.6688 29.0351 41.6688C30.3049 41.6688 31.4117 42.0945 32.3532 42.9459C32.8697 43.3367 33.2816 43.7532 33.5875 44.1963C33.8934 44.64 34.1648 45.1098 34.3997 45.6062C35.5761 47.628 36.3775 49.9514 36.8006 52.5754ZM35.595 56.7256C35.595 55.7676 35.5362 54.7756 35.419 53.7458C35.3013 52.7179 35.1486 51.7424 34.9604 50.8202C34.7255 50.1109 34.5018 49.437 34.2898 48.7984C34.0782 48.1599 33.8545 47.5931 33.6196 47.0957C33.4776 46.8125 33.2782 46.493 33.0205 46.1381C32.7608 45.7842 32.5614 45.4647 32.4208 45.1806V45.1272C31.1978 43.567 30.0928 42.7864 29.1061 42.7864C28.7759 42.7864 28.4233 42.8577 28.0479 42.9992C27.671 43.1413 27.2479 43.3367 26.7781 43.5845C26.4012 43.8327 25.7666 44.5953 24.8737 45.8719V45.9253L24.1676 47.3619C23.9327 47.7876 23.7211 48.2132 23.5329 48.6389C23.3447 49.0641 23.1575 49.5257 22.9688 50.0222V50.075C22.5924 51.1751 22.3575 52.3009 22.2631 53.4539C22.1693 54.6069 22.1226 55.7676 22.1226 56.939C22.1226 58.0745 22.2155 59.1915 22.4037 60.2902C22.5924 61.3898 22.8749 62.4545 23.2513 63.4824C24.3796 66.6746 26.214 68.5732 28.7535 69.1754C28.8464 69.2113 28.9874 69.2287 29.1757 69.2287C29.3639 69.2287 29.5049 69.2287 29.5987 69.2287C30.3034 69.2287 30.9629 69.1046 31.5742 68.8564C32.1859 68.6091 32.7501 68.165 33.2675 67.526C34.0198 66.4622 34.5723 65.061 34.9249 63.3234C35.277 61.5857 35.5012 59.6347 35.595 57.4703V56.7256Z" fill="#8A8E7D"/>
<path d="M51.2655 43.4778H50.5565C49.7521 43.4778 48.8777 43.4778 47.9328 43.4778C46.9864 43.4778 46.254 43.4429 45.7346 43.3716H43.5365V44.7015C43.5365 44.8436 43.5477 44.9677 43.572 45.0739C43.5953 45.1806 43.6075 45.3052 43.6075 45.4462C43.6075 45.9786 43.5953 46.4838 43.572 46.9628C43.5477 47.4419 43.5122 47.8763 43.4655 48.2661C43.4178 48.5148 43.3945 48.7369 43.3945 48.9313V49.4898L43.3235 59.5988C43.1343 63.0034 42.7919 65.6467 42.2954 67.526C41.7994 69.4072 40.8885 70.3458 39.5657 70.3458H38.7857C38.5021 70.3458 38.2415 70.3274 38.0056 70.2925C37.7683 70.2576 37.6511 70.1868 37.6511 70.0801L37.5801 69.9143C37.6268 69.6923 37.7221 69.4353 37.8636 69.1395C38.0056 68.8447 38.2181 68.6964 38.5021 68.6964C38.6437 68.6964 38.738 68.7061 38.7857 68.7235C38.8319 68.742 38.8795 68.7497 38.9272 68.7497C39.1159 68.8564 39.2817 68.9097 39.4237 68.9097C39.8959 68.9097 40.2748 68.7245 40.5583 68.3521C40.8418 67.9808 41.0655 67.4765 41.2318 66.8385C41.3972 66.2024 41.5153 65.4576 41.5864 64.6082C41.6574 63.7587 41.7162 62.8569 41.7639 61.9008C41.8101 61.3704 41.8344 60.8303 41.8344 60.2815C41.8344 59.7326 41.8811 59.176 41.9764 58.6088V58.5554C41.9764 57.2813 41.9642 55.9887 41.9409 54.6786C41.9166 53.3695 41.9054 52.0779 41.9054 50.8028C41.9054 50.7679 41.9054 50.6971 41.9054 50.5909C41.9054 50.4842 41.9287 50.3073 41.9764 50.0595V43.422C41.9764 43.0332 42.0231 42.7137 42.1184 42.4659C42.2122 42.2182 42.3542 42.0945 42.5439 42.0945H42.8274C42.8274 42.1658 42.9213 42.2007 43.111 42.2007L44.5291 42.4136C44.9546 42.5561 45.474 42.6264 46.0892 42.6264C46.325 42.6264 46.538 42.6089 46.7272 42.5736C47.0574 42.5386 47.6493 42.4853 48.4998 42.4136C49.3509 42.3433 50.7923 42.2725 52.8256 42.2007C52.8718 42.5915 52.8961 42.8659 52.8961 43.0254V43.7973V44.5953C52.8961 44.9503 52.8718 45.4462 52.8256 46.0848V46.4043C52.8256 46.7951 52.8134 47.4419 52.7901 48.3461C52.7658 49.2508 52.7546 50.1642 52.7546 51.0859V54.3315C52.7546 55.1121 52.7658 56.0168 52.7901 57.0446C52.8134 58.0745 52.8485 59.049 52.8961 59.9712C52.9428 60.5743 52.9783 61.1774 53.0026 61.7806C53.026 62.3837 53.0381 62.8094 53.0381 63.0567V64.6528V66.4884C53.0381 67.1808 53.0026 67.8188 52.9316 68.4045C52.8606 68.9892 52.7658 69.4867 52.6481 69.8939C52.5294 70.3012 52.3758 70.5058 52.1871 70.5058C51.4304 70.5058 51.0525 70.0617 51.0525 69.1754C51.0525 68.9989 51.0525 68.8302 51.0525 68.6702C51.0525 68.5102 51.0758 68.3425 51.1235 68.165C51.1702 67.9168 51.2178 67.6152 51.2655 67.2603C51.3117 66.9063 51.3594 66.4186 51.407 65.797C51.4537 65.1774 51.5014 64.3968 51.549 63.4562C51.5957 62.5166 51.62 61.3549 51.62 59.9712C51.62 59.049 51.6079 58.0648 51.5845 57.0185C51.5602 55.9722 51.4537 54.8997 51.2655 53.7991V43.4778Z" fill="#8A8E7D"/>
<path d="M65.6687 70.0636C65.4358 70.1092 65.2252 70.1364 65.038 70.1441C64.8512 70.1529 64.664 70.1606 64.4768 70.1684C64.1957 70.181 63.9024 70.1936 63.598 70.2062C63.2936 70.2188 63.0236 70.213 62.7878 70.1878C62.6472 70.1936 62.4474 70.1936 62.1896 70.1868C61.9314 70.18 61.7548 70.179 61.662 70.1829L61.0949 70.2072C60.7462 70.2217 60.4355 70.2353 60.1622 70.2469C59.8884 70.2586 59.7254 70.2304 59.6734 70.1616L59.5796 67.9817C59.5552 67.4154 59.5163 66.8045 59.4648 66.15C59.4123 65.4955 59.3734 64.8487 59.3456 64.2116L59.2197 61.288C59.2027 60.8982 59.1988 60.5433 59.209 60.2233C59.2187 59.9033 59.2172 59.5833 59.2031 59.2643L59.1346 57.6701C59.1054 56.9971 59.0675 56.395 59.0213 55.8645C58.9736 55.3332 58.9415 54.8386 58.9216 54.3771L58.7445 50.2845L58.4829 42.574C58.5272 42.4654 58.6478 42.3806 58.8433 42.319C59.0383 42.257 59.2352 42.222 59.4341 42.2138L60.0299 42.2414L60.0625 44.6366L60.5327 55.5329C61.6469 55.2372 62.5081 55.0752 63.117 55.049C63.8197 55.019 64.5385 55.0772 65.2724 55.2236C66.0062 55.37 66.6876 55.6599 67.3159 56.0944C67.9447 56.5288 68.4772 57.1455 68.9105 57.9426C69.3443 58.7416 69.5879 59.7598 69.6414 61L69.888 65.0901C69.9279 66.0123 69.8311 66.7793 69.6001 67.3922C69.3681 68.0069 69.0613 68.4986 68.678 68.87C68.2948 69.2414 67.8377 69.5187 67.3066 69.701C66.7746 69.8833 66.2285 70.0045 65.6687 70.0636ZM61.0468 69.0911L64.6334 69.0969C66.1268 68.9621 67.1505 68.4918 67.701 67.6869C68.252 66.8831 68.4918 65.6293 68.4184 63.9284C68.3726 62.8657 68.3167 61.8562 68.252 60.9001C68.1873 59.944 67.9875 59.1101 67.6529 58.3964C67.3168 57.6837 66.7892 57.1203 66.0685 56.7072C65.3473 56.2941 64.3085 56.1167 62.9512 56.1748C62.3423 56.201 61.6012 56.3921 60.7273 56.7499L60.7501 57.2813C60.7545 57.387 60.7472 57.4946 60.7282 57.6013C60.7088 57.7089 60.702 57.8156 60.7068 57.9222C60.7112 58.0279 60.7044 58.1443 60.6864 58.2694C60.6674 58.3945 60.6611 58.5098 60.666 58.6165C60.6349 59.0083 60.6232 59.559 60.6305 60.2689C60.6368 60.9787 60.6718 62.0424 60.7326 63.4591L60.8313 65.7447L61.0195 68.453L61.0468 69.0911ZM71.3859 45.535C71.3479 44.6497 71.256 43.6237 71.1111 42.4582C71.0838 41.8201 71.2312 41.4061 71.5546 41.2145C71.4593 41.2184 71.5531 41.1796 71.8333 41.0958C72.0215 41.088 72.2121 41.1156 72.4047 41.1777C72.5958 41.2412 72.6979 41.3968 72.7086 41.6441L73.5966 62.215C73.6253 62.8889 73.6628 63.4902 73.71 64.0206C73.7562 64.552 73.7902 65.0649 73.8116 65.5614L73.9424 68.5907C73.9687 69.1938 73.867 69.5885 73.639 69.7756C73.4065 69.892 73.2207 69.9531 73.0792 69.9589C72.9839 69.9638 72.8647 69.9327 72.7203 69.8678C72.5754 69.8028 72.4733 69.6486 72.4164 69.4023L71.5283 48.8309C71.4719 47.5204 71.4243 46.4213 71.3859 45.535Z" fill="#8A8E7D"/>
<path d="M88.571 41.4026C88.7587 42.0771 88.9007 42.7689 88.996 43.4778C89.0904 44.1876 89.1381 44.9502 89.1381 45.7657V47.1757C89.1381 47.6542 89.1137 48.1599 89.067 48.6918V48.7451C89.0194 49.3487 88.9844 49.9873 88.961 50.6602C88.9367 51.3342 88.925 52.0265 88.925 52.7354V53.1077V53.7729C88.925 53.7729 88.9717 54.2781 89.067 54.5962C89.0194 54.7727 88.996 54.9579 88.996 55.1528C88.996 55.3477 88.996 55.5329 88.996 55.7094C88.996 56.7343 89.032 57.6274 89.1021 58.3877C89.1731 59.1469 89.2091 60.0575 89.2091 61.1183V62.5495V64.5122C89.2091 64.6179 89.1964 64.7246 89.1731 64.8302C89.1488 64.9369 89.1381 65.061 89.1381 65.2016V65.6787C89.1381 65.927 89.1488 66.1655 89.1731 66.3944C89.1964 66.6251 89.2091 66.8278 89.2091 67.0043V68.0118C89.2091 68.4365 89.2324 68.772 89.2801 69.0203C89.3267 69.2675 89.3267 69.444 89.2801 69.5497C89.2324 69.7272 89.1847 69.8678 89.1381 69.9744C89.0904 70.0801 88.9007 70.1335 88.571 70.1335C88.3337 70.1335 88.1207 70.1238 87.933 70.1063C87.7433 70.0889 87.6246 70.0617 87.578 70.0268L87.649 63.3767C87.649 62.5961 87.6246 61.8785 87.578 61.2211C87.5303 60.5656 87.4826 59.8296 87.4359 59.0131L87.2229 55.3952C86.7979 55.2187 86.4186 55.1121 86.0889 55.0762C85.7572 55.0413 85.4508 55.0229 85.1668 55.0229H84.3872C84.1037 55.0229 83.7604 55.0151 83.3592 54.9967C82.957 54.9792 82.4959 55.0229 81.9766 55.1295C81.8346 55.1295 81.5865 55.1741 81.232 55.2624C80.8775 55.3516 80.6523 55.5911 80.5585 55.9809V56.0876C80.5585 56.265 80.5692 56.4328 80.5935 56.5928C80.6168 56.7518 80.629 56.9031 80.629 57.0446V57.737C80.629 58.3401 80.6168 58.792 80.5935 59.0936C80.5692 59.3952 80.5463 59.7762 80.523 60.2368C80.4987 60.6984 80.4753 61.32 80.452 62.0996C80.4276 62.8802 80.4165 64.0332 80.4165 65.5575V66.8879C80.4165 67.3854 80.4398 67.8983 80.4875 68.4307C80.4875 68.6091 80.4753 68.7953 80.452 68.9892C80.4276 69.1851 80.3921 69.3887 80.3455 69.6011L80.0619 70.5058C79.9199 70.5058 79.6598 70.4971 79.2819 70.4787C78.903 70.4612 78.7148 70.2227 78.7148 69.763C78.7148 69.3393 78.7503 68.836 78.8209 68.2523C78.8919 67.6685 78.9274 67.0411 78.9274 66.3691C78.9274 65.733 78.9152 65.1677 78.8919 64.6722C78.8675 64.1777 78.8564 63.7006 78.8564 63.2409V59.7937C78.8564 59.016 78.8442 58.2296 78.8209 57.4335C78.7965 56.6383 78.7854 55.8335 78.7854 55.0209V50.2879C78.7854 49.9689 78.7965 49.6149 78.8209 49.2241C78.8442 48.8343 78.8675 48.444 78.8919 48.0532C78.9152 47.6634 78.9385 47.3003 78.9629 46.9628C78.9862 46.6259 78.9984 46.3694 78.9984 46.1914V46.1381C78.9984 45.8545 78.9862 45.4554 78.9629 44.941C78.9385 44.4271 78.9385 43.9127 78.9629 43.3983C78.9862 42.8843 79.0451 42.4402 79.1399 42.0679C79.2342 41.6955 79.4239 41.5093 79.7074 41.5093C80.0853 41.5093 80.3455 41.5806 80.4875 41.7222L80.3455 47.7875C80.2978 48.5323 80.2856 49.3036 80.31 50.1017C80.3333 50.8997 80.3211 51.7065 80.2745 52.522V53.0544V53.4539C80.2745 53.4539 80.3211 53.676 80.4165 53.8524V54.2248C81.3614 54.2248 82.2246 54.1986 83.0046 54.1453C83.7847 54.092 84.6464 54.0658 85.5928 54.0658C86.1122 54.0658 86.6559 54.1181 87.2229 54.2238V53.6934C87.2696 52.8779 87.3173 52.1681 87.3649 51.565C87.4116 50.9618 87.4476 50.4212 87.4719 49.9422C87.4953 49.4636 87.5069 49.0205 87.5069 48.6123C87.5069 48.205 87.5069 47.806 87.5069 47.4152C87.5069 46.351 87.4953 45.3934 87.4719 44.542C87.4476 43.6906 87.4116 43.0521 87.3649 42.6264V42.0945C87.3649 41.8109 87.6246 41.6688 88.145 41.6688H88.571V41.4026Z" fill="#8A8E7D"/>
<path d="M99.1727 70.0268C98.9374 70.0617 98.7263 70.0801 98.5386 70.0801C98.3518 70.0801 98.1641 70.0801 97.9774 70.0801C97.6953 70.0801 97.4026 70.0801 97.0972 70.0801C96.7927 70.0801 96.5233 70.0617 96.2889 70.0268C96.1479 70.0268 95.9485 70.0181 95.6917 70.0006C95.433 69.9822 95.2569 69.9735 95.1645 69.9735H94.5965C94.2483 69.9735 93.9361 69.9735 93.6628 69.9735C93.3895 69.9735 93.2271 69.9386 93.1784 69.8678V67.686C93.1784 67.1187 93.1668 66.5068 93.1434 65.8504C93.1191 65.1948 93.1074 64.5471 93.1074 63.9081V60.9825C93.1074 60.5917 93.1191 60.2368 93.1434 59.9178C93.1668 59.5988 93.1784 59.2798 93.1784 58.9607V57.3637C93.1784 56.6907 93.1668 56.0876 93.1434 55.5552C93.1191 55.0228 93.1074 54.5264 93.1074 54.0658V49.9688L93.1784 42.254C93.2271 42.1478 93.3516 42.0678 93.55 42.0145C93.7474 41.9617 93.9458 41.935 94.1452 41.935L94.7385 41.9883L94.6675 44.3825V55.2895C95.7938 55.0413 96.6614 54.9171 97.2703 54.9171C97.9735 54.9171 98.6893 55.0054 99.4159 55.1828C100.143 55.3603 100.812 55.6803 101.42 56.1399C102.03 56.6015 102.535 57.2405 102.934 58.056C103.333 58.8725 103.532 59.9004 103.532 61.1416L103.602 65.2385C103.602 66.1616 103.473 66.9238 103.216 67.526C102.957 68.1301 102.629 68.6091 102.231 68.963C101.832 69.318 101.363 69.5749 100.824 69.7339C100.285 69.8939 99.734 69.9909 99.1727 70.0268ZM94.5965 68.8564L98.1797 69.0164C99.6775 68.9456 100.72 68.5199 101.306 67.7393C101.89 66.9597 102.184 65.7175 102.184 64.0147C102.184 62.951 102.171 61.9396 102.149 60.9825C102.126 60.0245 101.961 59.1818 101.658 58.4546C101.353 57.7283 100.851 57.1426 100.147 56.6994C99.4451 56.2563 98.4151 56.0342 97.0563 56.0342C96.4474 56.0342 95.6985 56.1933 94.8095 56.5133V57.0446C94.8095 57.1513 94.7979 57.258 94.7745 57.3637C94.7502 57.4703 94.7385 57.577 94.7385 57.6837C94.7385 57.7894 94.7269 57.9057 94.7035 58.0289C94.6792 58.154 94.6675 58.2684 94.6675 58.375C94.6199 58.7658 94.5848 59.3156 94.5615 60.0245C94.5372 60.7343 94.5255 61.798 94.5255 63.2167V65.5042L94.5965 68.2183V68.8564Z" fill="#8A8E7D"/>
<path d="M9.75362 89.1742V89.4787C9.75362 89.5708 9.77356 89.6464 9.8149 89.7075C9.77356 89.82 9.64663 89.9218 9.43363 90.013C9.26293 90.013 9.16129 89.9645 9.12919 89.8675C9.09709 89.7715 9.08153 89.6513 9.08153 89.5097V88.9754C9.08153 88.8736 9.08153 88.7747 9.08153 88.6777C9.08153 88.5808 9.07132 88.4925 9.05089 88.4111C9.05089 88.3597 9.04603 88.3141 9.03582 88.2734C9.02512 88.2326 9.02026 88.1968 9.02026 88.1667V87.9989C8.59278 87.9989 8.15996 87.996 7.72228 87.9912C7.28411 87.9863 6.85177 87.9834 6.4243 87.9834C6.32217 87.9834 6.21518 87.9834 6.10333 87.9834C5.99148 87.9834 5.87428 87.9786 5.75221 87.9679C5.63014 87.9582 5.50759 87.9505 5.38553 87.9456C5.26346 87.9398 5.16134 87.9379 5.08012 87.9379C5.01885 87.9379 4.95806 87.9398 4.89678 87.9456C4.83599 87.9505 4.76402 87.9582 4.68329 87.9679V87.9834C4.70323 87.9834 4.63709 87.9883 4.48438 87.9989C4.33168 88.0086 4.13326 88.0242 3.88913 88.0445L3.67515 88.0901C3.45096 88.0901 3.33911 87.9631 3.33911 87.709C3.33911 87.6586 3.34397 87.6072 3.35418 87.5568C3.3644 87.5054 3.36975 87.4549 3.36975 87.4036C3.38968 87.3328 3.40038 87.2542 3.40038 87.167C3.40038 87.0806 3.40038 86.9817 3.40038 86.8693V86.4882L3.33911 85.8172V83.5132C3.33911 83.2785 3.33376 83.0807 3.32403 82.9178C3.31333 82.7549 3.30847 82.6026 3.30847 82.4601C3.28804 82.2875 3.27783 82.0557 3.27783 81.7658C3.27783 81.4759 3.27783 81.1278 3.27783 80.7205C3.27783 80.5072 3.29826 80.3695 3.33911 80.3084V79.744C3.37947 79.7236 3.47139 79.713 3.61388 79.713C3.79722 79.713 3.90907 79.7392 3.94992 79.7896L3.91928 80.2318V80.4606C3.91928 80.5731 3.9295 80.705 3.94992 80.8582C3.96986 81.2141 3.99077 81.6485 4.0112 82.1624C4.03114 82.6763 4.04183 83.1573 4.04183 83.6043V83.9854C4.04183 84.0872 4.03649 84.2075 4.02627 84.3442C4.01606 84.4819 4.0112 84.6215 4.0112 84.7641C3.99077 84.927 3.98056 85.087 3.98056 85.245V85.6639V85.9539C3.98056 86.0053 3.98542 86.0586 3.99563 86.1148C4.00585 86.1701 4.0112 86.2341 4.0112 86.3049V86.3204C4.03114 86.4329 4.04183 86.5541 4.04183 86.687V87.1291V87.3425C4.04183 87.3425 4.03114 87.4705 4.0112 87.5413V87.7245H5.59951C5.82321 87.7139 6.13883 87.7061 6.54637 87.7012C6.95341 87.6964 7.32982 87.6935 7.67656 87.6935H7.82927V87.5257C7.82927 86.6307 7.83413 85.7357 7.84434 84.8407C7.85456 83.9457 7.85991 83.0497 7.85991 82.1546C7.85991 82.0635 7.85456 81.9694 7.84434 81.8725C7.83413 81.7755 7.82927 81.6717 7.82927 81.5593C7.82927 81.3566 7.82927 81.1501 7.82927 80.9416C7.82927 80.7331 7.80884 80.5576 7.76799 80.415V80.3394C7.66586 80.2579 7.61529 80.1765 7.61529 80.095C7.61529 80.0436 7.64058 79.968 7.69164 79.8662C7.74222 79.7644 7.84921 79.713 8.01261 79.713C8.15461 79.713 8.2616 79.8206 8.33309 80.0339C8.40458 80.2473 8.45564 80.4887 8.48579 80.7583C8.51643 81.0279 8.53637 81.2848 8.54707 81.5292C8.55728 81.7736 8.56215 81.9258 8.56215 81.9869V82.7578C8.56215 82.9352 8.57236 83.1108 8.59278 83.2843C8.59278 83.4269 8.603 83.5917 8.62342 83.7798C8.64336 83.968 8.65892 84.2172 8.66914 84.5275C8.67935 84.8378 8.68907 85.2344 8.69977 85.7173C8.70999 86.2011 8.71485 86.8082 8.71485 87.5413V87.6935H8.93564C8.99789 87.6935 9.07181 87.6993 9.15545 87.709C9.23958 87.7187 9.37575 87.7449 9.56444 87.7856V87.8002C9.62767 87.8002 9.67484 87.8389 9.70645 87.9146C9.73806 87.9912 9.75362 88.1308 9.75362 88.3345C9.75362 88.4663 9.74827 88.5662 9.73855 88.6321C9.72785 88.6981 9.72298 88.7514 9.72298 88.7921V88.9143V89.0132C9.72298 89.0132 9.7332 89.1131 9.75362 89.1742Z" fill="#8A8E7D"/>
<path d="M13.4668 87.9379C13.3438 87.9476 13.2305 87.9534 13.1284 87.9534C13.0258 87.9534 12.9231 87.9534 12.821 87.9534C12.6776 87.9534 12.5594 87.9505 12.4675 87.9456C12.3756 87.9398 12.2778 87.933 12.1757 87.9223C12.094 87.9126 12.0167 87.9049 11.9447 87.9C11.8732 87.8942 11.7861 87.8923 11.6835 87.8923H11.4379C11.0892 87.8923 10.884 87.8438 10.8227 87.7468C10.761 87.6508 10.7308 87.5054 10.7308 87.3124V86.2293C10.7308 85.8627 10.7255 85.5321 10.7153 85.2373C10.7051 84.9425 10.7002 84.6671 10.7002 84.413V83.4977C10.7002 83.2329 10.7002 82.9915 10.7002 82.7723C10.7002 82.5542 10.7099 82.3379 10.7308 82.1246V82.0325C10.7308 82.0024 10.7255 81.9665 10.7153 81.9258C10.7051 81.8851 10.7002 81.8395 10.7002 81.7881L10.7308 79.7896C10.7308 79.7692 10.7765 79.7518 10.868 79.7363C10.9599 79.7207 11.046 79.713 11.1277 79.713L11.3723 79.7285C11.7793 79.6878 12.1455 79.6674 12.4718 79.6674C12.7359 79.6674 13.0214 79.6829 13.3268 79.713C13.6327 79.744 13.9172 79.8129 14.1822 79.9195C14.4468 80.0262 14.6656 80.1765 14.8387 80.3695C15.0119 80.5624 15.1087 80.8223 15.1291 81.1481V81.4526C15.149 81.6058 15.1597 81.7406 15.1597 81.857V82.078C15.1597 82.1091 15.1646 82.1323 15.1748 82.1469C15.185 82.1624 15.1904 82.1954 15.1904 82.2468C15.1904 82.5619 15.0984 82.8441 14.9156 83.0933C14.7322 83.3425 14.4978 83.5132 14.2129 83.6043V83.6344L14.0908 83.6955V83.9243L14.6403 84.1076C14.8032 84.2608 14.9696 84.4363 15.1408 84.6341C15.311 84.8329 15.4077 85.0637 15.4306 85.3284L15.4651 86.0605C15.4651 86.4271 15.4189 86.7277 15.3265 86.9614C15.2341 87.1951 15.1062 87.3813 14.9423 87.518C14.7784 87.6557 14.5684 87.7546 14.3121 87.8157C14.0558 87.8768 13.7742 87.9175 13.4668 87.9379ZM11.4331 81.4894V81.7968C11.4331 81.888 11.4229 81.9859 11.4024 82.0877V82.1033C11.4024 82.3069 11.4073 82.5086 11.418 82.7083C11.4277 82.9081 11.4331 83.1098 11.4331 83.3134V83.4666L12.2885 83.5277C12.3498 83.5277 12.3955 83.5306 12.4261 83.5355C12.4563 83.5413 12.4918 83.5432 12.5326 83.5432C12.5735 83.5432 12.6139 83.5461 12.6552 83.551C12.6956 83.5558 12.7359 83.5588 12.7773 83.5588C13.4284 83.5588 13.8817 83.4152 14.1365 83.1292C14.3909 82.8431 14.5183 82.4649 14.5183 81.9956V81.9801C14.4978 81.8987 14.4876 81.8114 14.4876 81.7193C14.4876 81.6271 14.4876 81.5302 14.4876 81.4284C14.4876 81.1937 14.4468 80.9891 14.3656 80.8155C14.2839 80.6419 14.0908 80.4732 13.7854 80.3093V80.2793L13.5408 80.2172C13.2553 80.1561 13.0369 80.1106 12.8842 80.0795C12.7315 80.0495 12.5832 80.0291 12.4412 80.0184C12.4004 80.0291 12.3036 80.0369 12.1509 80.0417C11.9982 80.0466 11.881 80.0543 11.7998 80.064L11.4331 80.095V81.4894ZM11.4331 87.3735V87.5257L12.3498 87.5868C12.4106 87.5975 12.4767 87.6023 12.5482 87.6023H12.716H12.9912C13.7037 87.6023 14.1822 87.4928 14.4268 87.2736C14.671 87.0554 14.793 86.6918 14.793 86.1827V85.7706C14.793 85.5679 14.7673 85.3536 14.7167 85.1306C14.6656 84.9066 14.5586 84.703 14.3962 84.5197C14.2328 84.3364 14.0091 84.1842 13.7241 84.062C13.4386 83.9398 13.0827 83.8787 12.6552 83.8787H12.4412C12.3191 83.8787 12.1864 83.8846 12.0439 83.8943C11.9014 83.9049 11.7181 83.935 11.4944 83.9854V84.1386C11.4944 84.1687 11.4837 84.1997 11.4637 84.2298C11.4433 84.2608 11.4331 84.2909 11.4331 84.3219C11.4126 84.4945 11.4024 84.6652 11.4024 84.8329C11.4024 85.0007 11.4024 85.1762 11.4024 85.3595V86.5648L11.4331 87.3735Z" fill="#8A8E7D"/>
<path d="M20.4743 86.2293C20.5964 86.2894 20.6576 86.4116 20.6576 86.5948C20.6576 86.9003 20.6119 87.1418 20.52 87.3202C20.4286 87.4976 20.3012 87.6382 20.1383 87.7391C19.9749 87.8409 19.7818 87.9097 19.5581 87.9456C19.3334 87.9805 19.0893 88.0087 18.8247 88.029C18.4376 88.029 18.0408 87.966 17.6337 87.839C17.2262 87.7119 16.9412 87.4598 16.7783 87.0836L16.7477 86.9914C16.6455 86.8693 16.5643 86.6511 16.5035 86.3359C16.4423 86.0208 16.3965 85.6698 16.3659 85.2829C16.3353 84.896 16.3148 84.4974 16.3051 84.0853C16.2944 83.6732 16.2896 83.3144 16.2896 83.0089C16.2896 82.3786 16.3304 81.8492 16.4116 81.4225C16.4928 80.9949 16.6202 80.6516 16.7934 80.3927C16.9665 80.1329 17.18 79.9476 17.4348 79.8352C17.6897 79.7236 17.9999 79.6674 18.3666 79.6674C18.7941 79.6674 19.1403 79.7236 19.4054 79.8352C19.6694 79.9476 19.8786 80.1406 20.0313 80.415C20.184 80.6895 20.2958 81.0667 20.3673 81.5447C20.4383 82.0228 20.4942 82.6279 20.5356 83.36C20.4743 83.4618 20.291 83.5132 19.9856 83.5132C19.9039 83.5132 19.7156 83.5132 19.4205 83.5132C19.1253 83.5132 18.5903 83.4977 17.8171 83.4666C17.6537 83.4666 17.5063 83.4666 17.374 83.4666C17.2413 83.4666 17.1246 83.4773 17.0229 83.4977V83.7265C17.0229 83.7973 17.0176 83.8661 17.0074 83.9321C16.9971 83.999 16.9923 84.062 16.9923 84.1231C16.9923 84.7234 17.0122 85.245 17.0531 85.6872C17.0939 86.1294 17.18 86.4988 17.3128 86.7936C17.445 87.0884 17.6488 87.3095 17.9236 87.4569C18.1988 87.6043 18.5806 87.678 19.0693 87.678C19.2527 87.678 19.3845 87.6605 19.4662 87.6247C19.5474 87.5897 19.614 87.5306 19.6651 87.4491C19.7156 87.3687 19.7667 87.2562 19.8178 87.1136C19.8684 86.9711 19.9447 86.7985 20.0468 86.5948V86.5338C20.1076 86.3815 20.2501 86.2952 20.4743 86.2749V86.2293ZM17.4197 80.5072C17.2563 80.7612 17.145 81.023 17.0837 81.2926C17.0229 81.5622 16.9923 81.8492 16.9923 82.1547V82.6123C16.9923 82.6123 17.002 82.8974 17.0229 83.04V83.1767H17.7101C17.9644 83.1767 18.2645 83.1874 18.6112 83.2077C18.7737 83.2077 18.9876 83.2029 19.2527 83.1922C19.5167 83.1825 19.6801 83.1767 19.7414 83.1767V83.0245C19.7414 82.3534 19.7156 81.8191 19.6651 81.4225C19.614 81.0259 19.5323 80.7234 19.4205 80.5149C19.3081 80.3064 19.171 80.1736 19.0081 80.1173C18.8451 80.0621 18.6618 80.0339 18.4585 80.0339H18.3058C18.1424 80.0543 17.9897 80.0921 17.8472 80.1484C17.7047 80.2046 17.5622 80.319 17.4197 80.4916V80.5072Z" fill="#8A8E7D"/>
<path d="M26.6143 79.9535V80.0019C26.6143 80.0233 26.6036 80.0339 26.5836 80.0339C26.3589 80.0136 26.1508 80.0029 25.9572 80.0029C25.7637 80.0029 25.5755 80.0029 25.3921 80.0029C25.2088 80.0029 25.0206 79.9981 24.827 79.9884C24.6335 79.9777 24.4249 79.968 24.2012 79.9573V80.1251C24.2012 80.1755 24.1905 80.2162 24.1705 80.2473V80.2929C24.1705 80.3132 24.1652 80.3287 24.155 80.3384C24.1447 80.3481 24.1399 80.3636 24.1399 80.384V80.6429C24.1399 80.6933 24.1447 80.7496 24.155 80.8107C24.1652 80.8718 24.1705 80.9726 24.1705 81.1151C24.1705 81.4099 24.1652 81.6407 24.155 81.8075C24.1447 81.9753 24.1399 82.1149 24.1399 82.2264V82.5774C24.1399 82.6889 24.1447 82.8363 24.155 83.0186C24.1652 83.2009 24.1905 83.4754 24.2313 83.8409V87.2067C24.2313 87.3793 24.1905 87.5364 24.1092 87.679C24.0275 87.8205 23.9055 87.8923 23.7426 87.8923C23.5796 87.8923 23.4984 87.8971 23.4984 87.9068C23.5388 87.6431 23.5641 87.2979 23.5748 86.8712C23.585 86.4455 23.5899 86.0441 23.5899 85.6688C23.5899 85.405 23.5899 85.1607 23.5899 84.9376C23.5899 84.7146 23.5694 84.4964 23.5291 84.2831C23.5086 84.0494 23.4931 83.8128 23.4833 83.5743C23.4726 83.3357 23.4678 83.0642 23.4678 82.7597C23.4678 82.5571 23.4726 82.3563 23.4833 82.1585C23.4931 81.9607 23.4984 81.7648 23.4984 81.5719V80.4596C23.4984 80.3278 23.4877 80.2085 23.4678 80.1018C23.4474 79.9961 23.3657 79.9418 23.2237 79.9418C23.1823 79.9418 23.1264 79.9447 23.0554 79.9496C22.9839 79.9554 22.8973 79.9632 22.7957 79.9729C22.5919 79.9932 22.3532 80.0107 22.0779 80.0262C21.8031 80.0417 21.5741 80.0436 21.3907 80.0339C21.2074 80.0339 21.0955 79.9418 21.0547 79.7595C21.0746 79.6984 21.258 79.6674 21.6047 79.6674H21.7574C21.8182 79.6674 21.8688 79.6732 21.9101 79.6829C22.0521 79.6936 22.2155 79.7033 22.3989 79.713C22.5822 79.7236 22.7655 79.7285 22.9484 79.7285H23.5899H24.384C24.384 79.7285 25.076 79.713 25.6669 79.6829C25.8298 79.6829 26.0132 79.6878 26.2169 79.6984C26.4202 79.7081 26.5325 79.7392 26.553 79.7896L26.6143 79.9535Z" fill="#8A8E7D"/>
<path d="M34.2193 82.8722C34.2601 83.0652 34.2956 83.2717 34.3263 83.4899C34.3569 83.7091 34.372 83.9457 34.372 84.1997C34.372 84.3316 34.3671 84.4644 34.3569 84.5963C34.3462 84.7282 34.3311 84.8814 34.3112 85.054C34.2723 85.3391 34.2101 85.6339 34.123 85.9393C34.0364 86.2438 33.9153 86.5541 33.7612 86.8693C33.5574 87.2562 33.2316 87.5587 32.7837 87.7779C32.3358 87.996 31.7858 88.1056 31.1346 88.1056H30.7985C29.6576 87.9223 28.7978 87.5054 28.2172 86.8547C27.637 86.2031 27.3058 85.2732 27.2246 84.062V83.5743C27.2246 83.3706 27.2445 83.1845 27.2854 83.0167C27.3258 82.849 27.3968 82.6579 27.4979 82.4446C27.6603 82.0587 27.8631 81.6737 28.1068 81.2926C28.3499 80.9115 28.6539 80.5779 29.0191 80.2929C29.1811 80.1813 29.4544 80.0495 29.84 79.8963C30.1644 79.7944 30.5092 79.744 30.8744 79.744C31.421 79.744 31.8981 79.8662 32.3037 80.1106C32.5259 80.2221 32.7034 80.3413 32.8352 80.4684C32.967 80.5964 33.0842 80.7312 33.1854 80.8727C33.6921 81.4526 34.0374 82.1188 34.2193 82.8722ZM33.7004 84.062C33.7004 83.7876 33.6751 83.5025 33.6245 83.2077C33.574 82.9129 33.5078 82.6327 33.4266 82.368C33.3254 82.1653 33.2292 81.9714 33.1382 81.7881C33.0468 81.6058 32.9505 81.4429 32.8493 81.3004C32.7881 81.2189 32.7025 81.1278 32.5911 81.0259C32.4793 80.9241 32.3937 80.833 32.3329 80.7506V80.736C31.8057 80.288 31.3301 80.064 30.9051 80.064C30.7626 80.064 30.6108 80.0844 30.4489 80.1251C30.2869 80.1658 30.1046 80.2221 29.9023 80.2929C29.7398 80.3646 29.4665 80.5828 29.0819 80.9493V80.9649L28.7779 81.377C28.6763 81.4982 28.5853 81.6204 28.5041 81.7425C28.4229 81.8647 28.3427 81.9976 28.2614 82.1391V82.1547C28.099 82.4698 27.9979 82.7937 27.9575 83.1234C27.9166 83.454 27.8967 83.7876 27.8967 84.1231C27.8967 84.4489 27.9366 84.7689 28.0178 85.0841C28.099 85.4002 28.2206 85.7047 28.383 86.0004C28.8688 86.9158 29.6591 87.4598 30.7533 87.6324C30.7932 87.6431 30.854 87.6479 30.9347 87.6479H31.1171C31.421 87.6479 31.7046 87.612 31.9681 87.5413C32.2317 87.4705 32.4744 87.3425 32.6976 87.1592C33.0215 86.8547 33.2598 86.4523 33.4115 85.9539C33.5633 85.4555 33.6595 84.896 33.7004 84.2754V84.062Z" fill="#8A8E7D"/>
<path d="M39.7176 83.07C39.7176 83.1515 39.7122 83.2281 39.702 83.2989C39.6918 83.3706 39.6869 83.4463 39.6869 83.5277V83.9854V84.5653C39.6869 84.5653 39.6971 84.7999 39.7176 84.9018C39.7176 84.9929 39.7224 85.0976 39.7326 85.214C39.7429 85.3313 39.7482 85.5165 39.7482 85.7706C39.7482 85.853 39.7429 85.9442 39.7326 86.046C39.7224 86.1478 39.7176 86.2545 39.7176 86.366V87.388C39.7176 87.4094 39.7122 87.452 39.702 87.518C39.6918 87.5849 39.6816 87.6528 39.6719 87.7245C39.6612 87.7953 39.6359 87.8593 39.5955 87.9146C39.5542 87.9708 39.5036 87.9989 39.4428 87.9989C39.3815 87.9989 39.3052 87.9534 39.2133 87.8612C39.1218 87.7701 39.0761 87.5461 39.0761 87.1902V86.7781C39.0761 86.6763 39.081 86.5696 39.0912 86.4581C39.1014 86.3456 39.1068 86.2186 39.1068 86.0761C39.1068 85.629 39.1014 85.2344 39.0912 84.894C39.081 84.5527 39.0557 84.189 39.0148 83.8031V83.7566C38.7906 84.0213 38.5567 84.2356 38.3126 84.3975C38.068 84.5604 37.7728 84.6419 37.4265 84.6419C36.7136 84.6419 36.1743 84.3927 35.8076 83.8943C35.4414 83.3958 35.2581 82.719 35.2581 81.8647V81.4836C35.2581 81.1374 35.2581 80.8882 35.2581 80.736C35.2581 80.5828 35.2474 80.4558 35.2274 80.3539C35.2274 80.2929 35.2221 80.2318 35.2119 80.1707C35.2016 80.1106 35.1968 80.0184 35.1968 79.8963C35.1968 79.7537 35.2882 79.6829 35.4715 79.6829C35.6957 79.6829 35.8382 79.7363 35.8995 79.8439C35.9603 79.9506 35.9909 80.0863 35.9909 80.2492V80.4024L35.9603 81.3818C35.9603 81.76 35.9705 82.1246 35.9909 82.4766C36.0109 82.8286 36.0673 83.1379 36.1592 83.4026C36.2506 83.6683 36.3926 83.8826 36.5867 84.0465C36.7797 84.2094 37.0496 84.2909 37.3959 84.2909C37.7013 84.2909 37.9556 84.1939 38.1599 84C38.3632 83.806 38.531 83.5762 38.6637 83.3115C38.796 83.0458 38.8874 82.7675 38.9385 82.4766C38.9891 82.1857 39.0148 81.9481 39.0148 81.7648V81.3973C39.0148 81.3159 39.0148 81.2082 39.0148 81.0754C39.0148 80.9435 39.0046 80.8048 38.9842 80.6623C38.9638 80.5091 38.9487 80.3588 38.9385 80.2104C38.9283 80.063 38.9234 79.9224 38.9234 79.7896C38.9234 79.7081 38.9331 79.6344 38.9541 79.5685C38.974 79.5026 39.0455 79.4696 39.1675 79.4696C39.4525 79.4696 39.6257 79.5763 39.6869 79.7896C39.7482 80.0029 39.7784 80.2318 39.7784 80.4761V81.0104C39.7784 81.0104 39.7784 81.4322 39.7784 81.6669C39.7784 81.9006 39.7735 82.1391 39.7633 82.3835C39.7526 82.6279 39.7375 82.8567 39.7176 83.07Z" fill="#8A8E7D"/>
<path d="M45.582 79.6674C45.6632 79.8613 45.7245 80.0592 45.7653 80.2628C45.8057 80.4664 45.8266 80.6846 45.8266 80.9193V81.3236C45.8266 81.4603 45.8159 81.6058 45.796 81.758V81.7736C45.7755 81.9462 45.76 82.1294 45.7502 82.3224C45.7395 82.5163 45.7347 82.7142 45.7347 82.9178V83.0244V83.2155C45.7347 83.2155 45.7546 83.36 45.796 83.4511C45.7755 83.5025 45.7653 83.5549 45.7653 83.6111V83.7701C45.7653 84.0649 45.7804 84.3209 45.811 84.5391C45.8417 84.7563 45.8567 85.0181 45.8567 85.3216V85.7328V86.2952C45.8567 86.3253 45.8519 86.3563 45.8417 86.3863C45.831 86.4174 45.8266 86.4523 45.8266 86.493V86.6297C45.8266 86.7005 45.831 86.7694 45.8417 86.8353C45.8519 86.9012 45.8567 86.9594 45.8567 87.0099V87.2988C45.8567 87.421 45.867 87.517 45.8874 87.5878C45.9073 87.6595 45.9073 87.71 45.8874 87.74C45.867 87.7904 45.8465 87.8312 45.8266 87.8612C45.8057 87.8923 45.7245 87.9068 45.582 87.9068C45.4798 87.9068 45.3884 87.9049 45.3072 87.9C45.2255 87.8942 45.1744 87.8864 45.1545 87.8767L45.1851 85.9694C45.1851 85.7454 45.1744 85.5398 45.1545 85.3517C45.1341 85.1636 45.1132 84.9522 45.0932 84.7185L45.0018 83.6809C44.8185 83.6295 44.6551 83.5995 44.513 83.5888C44.3701 83.5791 44.2383 83.5743 44.1157 83.5743H43.7797C43.6576 83.5743 43.5098 83.5714 43.3371 83.5665C43.1635 83.5607 42.9651 83.5743 42.7414 83.6043C42.6801 83.6043 42.5731 83.6169 42.4204 83.6421C42.2677 83.6683 42.1709 83.7362 42.1306 83.8487V83.8787C42.1306 83.9301 42.1354 83.9786 42.1457 84.0242C42.1559 84.0698 42.1612 84.1134 42.1612 84.1532V84.3519C42.1612 84.5255 42.1559 84.6545 42.1457 84.7408C42.1354 84.8281 42.1252 84.9367 42.115 85.0695C42.1048 85.2014 42.0946 85.3798 42.0844 85.6028C42.0742 85.8268 42.0693 86.1575 42.0693 86.5948V86.9769C42.0693 86.9769 42.0795 87.2668 42.0999 87.4191C42.0999 87.4704 42.0946 87.5238 42.0844 87.5791C42.0742 87.6353 42.0586 87.6935 42.0387 87.7546L41.9166 88.0144C41.8553 88.0144 41.7435 88.0115 41.5806 88.0067C41.4172 88.0009 41.3364 87.933 41.3364 87.8011C41.3364 87.6799 41.3515 87.5354 41.3821 87.3677C41.4128 87.1999 41.4279 87.0205 41.4279 86.8275C41.4279 86.6452 41.4225 86.4833 41.4128 86.3408C41.4021 86.1992 41.3972 86.0625 41.3972 85.9306V84.9415C41.3972 84.7185 41.3919 84.4935 41.3821 84.2656C41.3714 84.0368 41.3666 83.806 41.3666 83.5733V82.2157C41.3666 82.1246 41.3714 82.0228 41.3821 81.9103C41.3919 81.7988 41.4021 81.6873 41.4128 81.5748C41.4225 81.4633 41.4327 81.3585 41.4429 81.2625C41.4531 81.1656 41.4585 81.0919 41.4585 81.0405V81.0259C41.4585 80.9445 41.4531 80.8301 41.4429 80.6827C41.4327 80.5353 41.4327 80.3869 41.4429 80.2395C41.4531 80.0921 41.4784 79.9651 41.5198 79.8584C41.5601 79.7518 41.6418 79.6984 41.7639 79.6984C41.9268 79.6984 42.0387 79.7188 42.0999 79.7595L42.0387 81.4982C42.0182 81.7125 42.0129 81.9336 42.0236 82.1624C42.0333 82.3912 42.0285 82.623 42.008 82.8567V83.0089V83.1234C42.008 83.1495 42.0285 83.1874 42.0693 83.2378V83.3444C42.4764 83.3444 42.8484 83.3377 43.1844 83.3221C43.5205 83.3066 43.8915 83.2989 44.2991 83.2989C44.5228 83.2989 44.7572 83.3144 45.0018 83.3444V83.1922C45.0217 82.9585 45.0422 82.7549 45.0626 82.5823C45.083 82.4087 45.0981 82.2536 45.1088 82.1168C45.1185 81.9791 45.1239 81.8521 45.1239 81.7348C45.1239 81.6184 45.1239 81.504 45.1239 81.3915C45.1239 81.087 45.1185 80.8116 45.1088 80.5682C45.0981 80.3239 45.083 80.1406 45.0626 80.0184V79.8662C45.0626 79.7847 45.1744 79.744 45.3986 79.744H45.582V79.6674Z" fill="#8A8E7D"/>
<path d="M51.0493 85.0841C51.0493 85.3187 51.0648 85.5903 51.0955 85.9006C51.1256 86.2109 51.1412 86.4989 51.1412 86.7626C51.1412 86.9362 51.1256 87.101 51.0955 87.2591C51.0648 87.4162 50.9778 87.5568 50.8358 87.678C50.6928 87.8002 50.4793 87.8971 50.1943 87.9679C49.9089 88.0397 49.5115 88.0756 49.0028 88.0756H48.8501C48.5647 88.0445 48.3103 87.9737 48.0866 87.8622C47.8624 87.7507 47.6742 87.613 47.5215 87.4511C47.3688 87.2882 47.2511 87.1078 47.1704 86.91C47.0887 86.7122 47.0479 86.5173 47.0479 86.3233C47.0479 85.7144 47.2273 85.2072 47.5872 84.8009C47.9471 84.3946 48.5997 84.1057 49.5451 83.9331C49.565 83.9331 49.6214 83.9301 49.7138 83.9253C49.8067 83.9205 49.904 83.903 50.0071 83.872C50.1097 83.8419 50.2021 83.7857 50.2843 83.7042C50.3665 83.6237 50.4078 83.5064 50.4078 83.3542V82.0751C50.4078 82.0645 50.403 82.0548 50.3927 82.0441C50.382 82.0344 50.3777 82.0189 50.3777 81.9985V81.9229C50.3777 81.76 50.3563 81.5777 50.3154 81.3741C50.2746 81.1714 50.2177 80.9833 50.1462 80.8107C50.0737 80.6381 49.9813 80.4936 49.868 80.3772C49.7552 80.2599 49.6161 80.2017 49.4517 80.2017C49.3695 80.2017 49.2664 80.225 49.1434 80.2705C49.0194 80.3161 48.8959 80.3724 48.7728 80.4383C48.6493 80.5042 48.5258 80.5808 48.4027 80.6672C48.2787 80.7535 48.1863 80.833 48.1246 80.9038C48.0429 80.9745 47.9602 81.0405 47.878 81.1016C47.7953 81.1627 47.6927 81.1937 47.5697 81.1937C47.4257 81.1937 47.3533 81.1278 47.3533 80.9949C47.3533 80.8116 47.4345 80.6468 47.5979 80.4994C47.7608 80.352 47.9539 80.2259 48.1781 80.1212C48.4022 80.0165 48.626 79.937 48.8501 79.8846C49.0738 79.8313 49.2572 79.8051 49.4002 79.8051C49.7255 79.8051 50.0003 79.8788 50.2245 80.0262C50.4487 80.1736 50.6218 80.3724 50.7439 80.6216C50.8659 80.8708 50.9525 81.1627 51.0036 81.4982C51.0541 81.8347 51.0799 82.1905 51.0799 82.5668C51.0799 82.8005 51.0746 83.0574 51.0648 83.3377C51.0541 83.6169 51.0493 83.8846 51.0493 84.1386V85.0841ZM50.0625 87.5713C50.2498 87.5005 50.3694 87.3706 50.4214 87.1825C50.4735 86.9944 50.4997 86.7888 50.4997 86.5648C50.4997 86.463 50.4944 86.3204 50.4842 86.1372C50.474 85.9539 50.4637 85.7658 50.454 85.5728C50.4433 85.3798 50.4331 85.2043 50.4234 85.0463C50.4127 84.8892 50.4078 84.7893 50.4078 84.7486V84.2453C49.991 84.2453 49.5636 84.3035 49.1264 84.4208C48.6887 84.5381 48.3244 84.7738 48.0326 85.1306V85.1452C47.9281 85.2984 47.8498 85.471 47.7978 85.6639C47.7457 85.8579 47.7199 86.0606 47.7199 86.2749C47.7199 86.4174 47.7355 86.5648 47.7666 86.717C47.7978 86.8693 47.8654 86.9915 47.9699 87.0836V87.0981C48.2403 87.3124 48.428 87.4676 48.5316 87.5636C48.6357 87.6605 48.8443 87.709 49.1565 87.709H49.3442C49.406 87.709 49.495 87.6993 49.6093 87.678C49.7241 87.6586 49.8748 87.6227 50.0625 87.5713Z" fill="#8A8E7D"/>
<path d="M53.9016 79.6829C53.9429 79.6732 54.0037 79.6674 54.0859 79.6674C54.1681 79.6674 54.26 79.6674 54.3631 79.6674L56.0239 79.7285C56.3113 79.7285 56.4752 79.7799 56.516 79.8817C56.5574 79.9826 56.5671 80.1106 56.5472 80.2628V82.3534V83.6121C56.5472 83.6121 56.5365 84.3723 56.5165 84.6574C56.5165 84.861 56.5112 85.0443 56.5015 85.2062C56.4908 85.3692 56.4859 85.5224 56.4859 85.6639V86.3359L56.4251 87.8467C56.4251 87.8865 56.3857 87.9146 56.3079 87.9301C56.2301 87.9456 56.1523 87.9534 56.075 87.9534H55.7837C55.7837 87.8409 55.7783 87.742 55.7681 87.6557C55.7579 87.5694 55.753 87.4705 55.753 87.358C55.753 87.2562 55.753 87.0933 55.753 86.8693C55.753 86.6462 55.7579 86.4067 55.7681 86.1527C55.7783 85.8986 55.7885 85.662 55.7987 85.4429C55.8089 85.2247 55.8143 85.0695 55.8143 84.9774V84.8096C55.5877 84.8504 55.3406 84.8814 55.0731 84.9018C54.8057 84.9221 54.6102 84.9318 54.4866 84.9318H54.3325V85.054C54.2294 85.278 54.1423 85.4681 54.0704 85.6261C53.9979 85.7842 53.9366 85.9238 53.8851 86.046C53.8335 86.1682 53.7873 86.2797 53.746 86.3815C53.7051 86.4833 53.6638 86.5851 53.623 86.687C53.5821 86.8392 53.5306 86.9973 53.4688 87.1592C53.4065 87.3221 53.3039 87.5665 53.1605 87.8923C53.1196 87.9126 52.9956 87.9223 52.7904 87.9223C52.5963 87.9223 52.5 87.8923 52.5 87.8312C52.5428 87.5771 52.6323 87.2765 52.7685 86.9304C52.9051 86.5851 53.0544 86.2341 53.2178 85.8782L53.584 85.0084V84.8407C53.3195 84.7592 53.0238 84.5633 52.6985 84.253C52.3726 83.9427 52.2097 83.4666 52.2097 82.8257C52.2097 82.5823 52.2044 82.3913 52.1946 82.2536C52.1839 82.1168 52.1791 82.0102 52.1791 81.9336C52.1791 81.857 52.1742 81.8036 52.164 81.7736C52.1533 81.7425 52.1489 81.7222 52.1489 81.7125V81.6359C52.1489 81.28 52.1844 80.9852 52.2559 80.7505C52.3279 80.5168 52.4407 80.3268 52.5944 80.1784C52.7481 80.031 52.9329 79.9224 53.1483 79.8507C53.3633 79.7799 53.6142 79.7285 53.9016 79.6984V79.6829ZM55.9057 80.0495L55.0727 80.0029C54.9696 79.9932 54.8256 79.9884 54.6403 79.9884C54.4555 79.9884 54.3218 79.9884 54.2396 79.9884C53.602 79.9884 53.2008 80.1455 53.0369 80.4606C52.8721 80.7767 52.7904 81.2596 52.7904 81.9103L52.8205 82.5212C52.8205 82.7549 52.8414 82.9915 52.8823 83.23C52.9231 83.4695 53.0058 83.6858 53.1293 83.8787C53.2524 84.0727 53.4377 84.2298 53.6847 84.352C53.9313 84.4741 54.2707 84.5352 54.7026 84.5352C54.8057 84.5352 54.9803 84.5226 55.2273 84.4974C55.4744 84.4712 55.6801 84.4286 55.8444 84.3675V84.2298L55.8751 84.0009C55.895 83.8584 55.9057 83.7091 55.9057 83.551C55.9057 83.3929 55.9057 83.2378 55.9057 83.0855V80.0495Z" fill="#8A8E7D"/>
<path d="M62.2281 79.9573C62.2685 79.937 62.3449 79.9195 62.4572 79.904C62.5691 79.8885 62.6756 79.8817 62.7777 79.8817C62.8589 79.8817 62.9046 79.8914 62.9153 79.9118C62.9255 79.9321 62.9406 79.968 62.961 80.0184C63.0019 80.1105 63.0476 80.2318 63.0986 80.385C63.1492 80.5372 63.2256 80.6953 63.3277 80.8582C63.4697 81.0618 63.5874 81.2751 63.6788 81.4982C63.7707 81.7222 63.867 81.9869 63.9692 82.2923C64.0708 82.5968 64.1982 82.9508 64.3509 83.3522C64.5036 83.7546 64.6918 84.2201 64.916 84.7486L65.13 85.1917L65.1606 85.1762L66.1989 82.2923C66.2393 82.1799 66.2903 82.0276 66.3516 81.8346C66.4129 81.6417 66.4737 81.4322 66.535 81.2092C66.5753 81.0356 66.6264 80.8679 66.6877 80.705C66.7489 80.543 66.7995 80.3947 66.8404 80.2628C66.9016 80.1105 66.9522 79.9631 66.9931 79.8206C67.0334 79.8206 67.1356 79.8274 67.2985 79.8429C67.4614 79.8584 67.563 79.8817 67.6039 79.9118L67.7566 79.9884V80.0184C67.8791 80.1202 67.9555 80.2017 67.9856 80.2628C68.0163 80.3239 68.0518 80.4461 68.0926 80.6293C68.0518 81.0356 68.0163 81.4555 67.9856 81.888C67.9555 82.3205 67.9399 82.7655 67.9399 83.2232C67.9399 83.4977 67.9448 83.7595 67.9555 84.0087C67.9652 84.2579 67.9808 84.5149 68.0012 84.7796C68.0211 85.0947 68.0416 85.4303 68.062 85.7861C68.0824 86.143 68.0926 86.5541 68.0926 87.0225C68.0926 87.2261 68.0776 87.4094 68.0469 87.5713C68.0163 87.7342 67.9297 87.8157 67.7872 87.8157C67.5431 87.8157 67.4205 87.775 67.4205 87.6935C67.4205 87.6528 67.4254 87.6101 67.4361 87.5636C67.4458 87.518 67.4512 87.4705 67.4512 87.4191C67.4512 87.3881 67.456 87.3376 67.4667 87.2668C67.4765 87.1951 67.4818 87.1165 67.4818 87.0302C67.4818 86.9439 67.4818 86.8596 67.4818 86.7781C67.4818 86.6967 67.4818 86.6356 67.4818 86.5948C67.4818 86.5037 67.4711 86.3233 67.4512 86.0538C67.4308 85.7842 67.4157 85.4584 67.4055 85.0763C67.3948 84.6952 67.385 84.2734 67.3748 83.8099C67.3646 83.3474 67.3598 82.8722 67.3598 82.3835V81.8346C67.3598 81.6814 67.3544 81.534 67.3442 81.3915C67.334 81.2499 67.3393 81.087 67.3598 80.9037V80.8727C67.2168 81.2907 67.0592 81.7377 66.8861 82.2157C66.713 82.6938 66.535 83.1699 66.3516 83.6421C66.1683 84.1154 65.9801 84.5682 65.7865 85.0007C65.593 85.4332 65.3941 85.8016 65.1908 86.1071C64.9262 85.8928 64.7122 85.6261 64.5493 85.3061C64.3864 84.9852 64.2337 84.6574 64.0912 84.3219C64.0504 84.1997 63.9998 84.0698 63.9385 83.9321C63.8777 83.7954 63.8165 83.6654 63.7552 83.5432C63.6331 83.1466 63.4955 82.7374 63.3428 82.3146C63.1901 81.8928 63.032 81.534 62.8696 81.2393V81.2848C62.8696 81.5399 62.8745 81.791 62.8847 82.0402C62.8949 82.2894 62.9002 82.5415 62.9002 82.7956V83.3066C62.9002 83.3066 62.91 83.6344 62.9304 83.7876C62.9508 84.0417 62.9659 84.286 62.9766 84.5197C62.9863 84.7544 62.9917 84.9978 62.9917 85.2518L62.8696 87.9068C62.8696 87.9175 62.8083 87.9253 62.6863 87.9301C62.5642 87.935 62.4723 87.9379 62.4115 87.9379C62.2481 87.9379 62.1669 87.8564 62.1669 87.6935C62.1669 87.6227 62.1669 87.551 62.1669 87.4802C62.1669 87.4094 62.1771 87.3173 62.1975 87.2058V87.1902C62.2174 87.038 62.233 86.8644 62.2432 86.6715C62.2534 86.4785 62.2588 86.2545 62.2588 86.0004C62.2787 85.949 62.2889 85.8705 62.2889 85.7638C62.2889 85.6562 62.2889 85.5272 62.2889 85.374C62.2889 85.0492 62.2787 84.6671 62.2588 84.2298C62.2379 83.7924 62.2174 83.3803 62.1975 82.9944C62.1771 82.7297 62.1615 82.4931 62.1518 82.2846C62.1411 82.0761 62.1362 81.9161 62.1362 81.8036C62.1362 81.1733 62.1669 80.5275 62.2281 79.8662V79.9573Z" fill="#8A8E7D"/>
<path d="M73.1015 85.0841C73.1015 85.3187 73.1171 85.5903 73.1477 85.9006C73.1779 86.2109 73.1934 86.4989 73.1934 86.7626C73.1934 86.9362 73.1779 87.101 73.1477 87.2591C73.1171 87.4162 73.03 87.5568 72.888 87.678C72.745 87.8002 72.5316 87.8971 72.2466 87.9679C71.9611 88.0397 71.5638 88.0756 71.0551 88.0756H70.9024C70.6169 88.0445 70.3626 87.9737 70.1389 87.8622C69.9147 87.7507 69.7265 87.613 69.5738 87.4511C69.4211 87.2882 69.3034 87.1078 69.2226 86.91C69.1409 86.7122 69.1001 86.5173 69.1001 86.3233C69.1001 85.7144 69.2795 85.2072 69.6394 84.8009C69.9993 84.3946 70.6519 84.1057 71.5973 83.9331C71.6173 83.9331 71.6737 83.9301 71.7661 83.9253C71.859 83.9205 71.9562 83.903 72.0593 83.872C72.1619 83.8419 72.2543 83.7857 72.3365 83.7042C72.4187 83.6237 72.4601 83.5064 72.4601 83.3542V82.0751C72.4601 82.0645 72.4552 82.0548 72.445 82.0441C72.4343 82.0344 72.4299 82.0189 72.4299 81.9985V81.9229C72.4299 81.76 72.4085 81.5777 72.3677 81.3741C72.3268 81.1714 72.2699 80.9833 72.1984 80.8107C72.126 80.6381 72.0336 80.4936 71.9203 80.3772C71.8074 80.2599 71.6683 80.2017 71.504 80.2017C71.4218 80.2017 71.3187 80.225 71.1956 80.2705C71.0716 80.3161 70.9481 80.3724 70.8251 80.4383C70.7015 80.5042 70.578 80.5808 70.455 80.6672C70.331 80.7535 70.2386 80.833 70.1768 80.9038C70.0951 80.9745 70.0124 81.0405 69.9302 81.1016C69.8476 81.1627 69.745 81.1937 69.6219 81.1937C69.478 81.1937 69.4055 81.1278 69.4055 80.9949C69.4055 80.8116 69.4867 80.6468 69.6501 80.4994C69.813 80.352 70.0061 80.2259 70.2303 80.1212C70.4545 80.0165 70.6782 79.937 70.9024 79.8846C71.1261 79.8313 71.3094 79.8051 71.4524 79.8051C71.7778 79.8051 72.0525 79.8788 72.2767 80.0262C72.5009 80.1736 72.674 80.3724 72.7961 80.6216C72.9182 80.8708 73.0047 81.1627 73.0558 81.4982C73.1064 81.8347 73.1322 82.1905 73.1322 82.5668C73.1322 82.8005 73.1268 83.0574 73.1171 83.3377C73.1064 83.6169 73.1015 83.8846 73.1015 84.1386V85.0841ZM72.1148 87.5713C72.302 87.5005 72.4216 87.3706 72.4737 87.1825C72.5257 86.9944 72.552 86.7888 72.552 86.5648C72.552 86.463 72.5466 86.3204 72.5364 86.1372C72.5262 85.9539 72.516 85.7658 72.5063 85.5728C72.4956 85.3798 72.4854 85.2043 72.4756 85.0463C72.4649 84.8892 72.4601 84.7893 72.4601 84.7486V84.2453C72.0433 84.2453 71.6158 84.3035 71.1786 84.4208C70.7409 84.5381 70.3767 84.7738 70.0849 85.1306V85.1452C69.9803 85.2984 69.902 85.471 69.85 85.6639C69.798 85.8579 69.7722 86.0606 69.7722 86.2749C69.7722 86.4174 69.7877 86.5648 69.8189 86.717C69.85 86.8693 69.9176 86.9915 70.0222 87.0836V87.0981C70.2925 87.3124 70.4803 87.4676 70.5839 87.5636C70.6879 87.6605 70.8966 87.709 71.2088 87.709H71.3965C71.4582 87.709 71.5472 87.6993 71.6615 87.678C71.7763 87.6586 71.9271 87.6227 72.1148 87.5713Z" fill="#8A8E7D"/>
<path d="M78.1113 86.2749C78.3963 86.3156 78.5387 86.4174 78.5387 86.5793C78.5387 86.7529 78.4877 86.9459 78.386 87.1592C78.2839 87.3735 78.1823 87.5364 78.0806 87.6479C77.9382 87.8002 77.7548 87.9127 77.5311 87.9834C77.3064 88.0542 77.0521 88.0901 76.7671 88.0901C76.3805 88.0901 76.0192 88.0242 75.6831 87.8923C75.3471 87.7604 75.0976 87.5771 74.9347 87.3425V87.3279C74.7513 87.1136 74.639 86.8751 74.5986 86.6104C74.5578 86.3456 74.5374 86.0819 74.5374 85.8172V84.3675C74.4965 84.0931 74.4766 83.8206 74.4766 83.551C74.4766 83.2814 74.4766 82.9992 74.4766 82.7045V81.8647C74.4965 81.5699 74.5374 81.2625 74.5986 80.9416C74.6599 80.6216 74.8126 80.3442 75.0567 80.1106V80.095C75.1788 79.9632 75.3621 79.8662 75.6068 79.8051C75.8509 79.744 76.1154 79.713 76.4009 79.713C76.5429 79.713 76.7569 79.7236 77.0424 79.744C77.3273 79.7644 77.5204 79.7847 77.6225 79.8051C77.8462 79.8963 78.0451 80.0621 78.2183 80.3006C78.3909 80.5401 78.478 80.7913 78.478 81.056C78.478 81.1171 78.4673 81.1685 78.4473 81.2092V81.2548C78.4473 81.3159 78.386 81.3459 78.264 81.3459H78.1113V81.3304C77.9688 81.28 77.8822 81.2189 77.8516 81.1481C77.8209 81.0764 77.7952 81.0007 77.7752 80.9193C77.7752 80.8989 77.7699 80.8882 77.7602 80.8882C77.7495 80.8882 77.7446 80.8785 77.7446 80.8582V80.8272C77.6634 80.5731 77.5155 80.385 77.3021 80.2628C77.0881 80.1406 76.879 80.0795 76.6757 80.0795H76.3703C75.8407 80.2221 75.5046 80.4664 75.3621 80.8116C75.2197 81.1578 75.1486 81.5399 75.1486 81.9568V82.3069C75.1486 82.4194 75.1584 82.5309 75.1788 82.6434V82.9479C75.1992 83.2029 75.2143 83.4802 75.225 83.7798C75.2347 84.0805 75.2401 84.3568 75.2401 84.6118V84.9551C75.2401 85.0618 75.2294 85.1762 75.2094 85.2984V85.9238C75.2094 86.1168 75.2197 86.3078 75.2401 86.4959C75.26 86.6841 75.3213 86.8644 75.4234 87.038C75.5455 87.2814 75.7288 87.4443 75.973 87.5257C76.2176 87.6072 76.4515 87.6479 76.6757 87.6479H76.7977C77.0424 87.6276 77.2354 87.5364 77.3784 87.3735C77.5204 87.2106 77.6425 86.9914 77.7446 86.717V86.687C77.7446 86.6666 77.7495 86.6482 77.7602 86.6336C77.7699 86.6181 77.7752 86.6007 77.7752 86.5793C77.7952 86.5192 77.8258 86.4523 77.8671 86.3815C77.9075 86.3107 77.9892 86.2749 78.1113 86.2749Z" fill="#8A8E7D"/>
<path d="M84.6177 79.9535V80.0019C84.6177 80.0233 84.607 80.0339 84.587 80.0339C84.3624 80.0136 84.1542 80.0029 83.9607 80.0029C83.7671 80.0029 83.5789 80.0029 83.3956 80.0029C83.2122 80.0029 83.024 79.9981 82.8305 79.9884C82.6369 79.9777 82.4283 79.968 82.2046 79.9573V80.1251C82.2046 80.1755 82.1939 80.2162 82.1739 80.2473V80.2929C82.1739 80.3132 82.1686 80.3287 82.1584 80.3384C82.1482 80.3481 82.1433 80.3636 82.1433 80.384V80.6429C82.1433 80.6933 82.1482 80.7496 82.1584 80.8107C82.1686 80.8718 82.1739 80.9726 82.1739 81.1151C82.1739 81.4099 82.1686 81.6407 82.1584 81.8075C82.1482 81.9753 82.1433 82.1149 82.1433 82.2264V82.5774C82.1433 82.6889 82.1482 82.8363 82.1584 83.0186C82.1686 83.2009 82.1939 83.4754 82.2347 83.8409V87.2067C82.2347 87.3793 82.1939 87.5364 82.1127 87.679C82.031 87.8205 81.9089 87.8923 81.746 87.8923C81.5831 87.8923 81.5018 87.8971 81.5018 87.9068C81.5422 87.6431 81.5675 87.2979 81.5782 86.8712C81.5884 86.4455 81.5933 86.0441 81.5933 85.6688C81.5933 85.405 81.5933 85.1607 81.5933 84.9376C81.5933 84.7146 81.5728 84.4964 81.5325 84.2831C81.5121 84.0494 81.4965 83.8128 81.4868 83.5743C81.4761 83.3357 81.4712 83.0642 81.4712 82.7597C81.4712 82.5571 81.4761 82.3563 81.4868 82.1585C81.4965 81.9607 81.5018 81.7648 81.5018 81.5719V80.4596C81.5018 80.3278 81.4911 80.2085 81.4712 80.1018C81.4508 79.9961 81.3691 79.9418 81.2271 79.9418C81.1857 79.9418 81.1298 79.9447 81.0588 79.9496C80.9873 79.9554 80.9008 79.9632 80.7991 79.9729C80.5953 79.9932 80.3566 80.0107 80.0813 80.0262C79.8065 80.0417 79.5775 80.0436 79.3941 80.0339C79.2108 80.0339 79.099 79.9418 79.0581 79.7595C79.078 79.6984 79.2614 79.6674 79.6081 79.6674H79.7608C79.8216 79.6674 79.8722 79.6732 79.9135 79.6829C80.0555 79.6936 80.2189 79.7033 80.4023 79.713C80.5856 79.7236 80.769 79.7285 80.9518 79.7285H81.5933H82.3874C82.3874 79.7285 83.0795 79.713 83.6703 79.6829C83.8332 79.6829 84.0166 79.6878 84.2203 79.6984C84.4236 79.7081 84.536 79.7392 84.5564 79.7896L84.6177 79.9535Z" fill="#8A8E7D"/>
<path d="M89.5651 86.2293C89.6877 86.2894 89.749 86.4116 89.749 86.5948C89.749 86.9003 89.7032 87.1418 89.6108 87.3202C89.5194 87.4976 89.392 87.6382 89.2296 87.7391C89.0662 87.8409 88.8726 87.9097 88.6489 87.9456C88.4242 87.9805 88.1801 88.0087 87.9155 88.029C87.5284 88.029 87.1316 87.966 86.725 87.839C86.3175 87.7119 86.0325 87.4598 85.8691 87.0836L85.839 86.9914C85.7368 86.8693 85.6551 86.6511 85.5948 86.3359C85.5336 86.0208 85.4878 85.6698 85.4567 85.2829C85.4266 84.896 85.4061 84.4974 85.3964 84.0853C85.3857 83.6732 85.3809 83.3144 85.3809 83.0089C85.3809 82.3786 85.4217 81.8492 85.5024 81.4225C85.5841 80.9949 85.7116 80.6516 85.8847 80.3927C86.0578 80.1329 86.2708 79.9476 86.5257 79.8352C86.7805 79.7236 87.0908 79.6674 87.4574 79.6674C87.8854 79.6674 88.2317 79.7236 88.4962 79.8352C88.7608 79.9476 88.9699 80.1406 89.1226 80.415C89.2753 80.6895 89.3871 81.0667 89.4581 81.5447C89.5291 82.0228 89.5856 82.6279 89.6264 83.36C89.5651 83.4618 89.3823 83.5132 89.0769 83.5132C88.9952 83.5132 88.8065 83.5132 88.5118 83.5132C88.2161 83.5132 87.6811 83.4977 86.9079 83.4666C86.7445 83.4666 86.5976 83.4666 86.4653 83.4666C86.3321 83.4666 86.2154 83.4773 86.1142 83.4977V83.7265C86.1142 83.7973 86.1084 83.8661 86.0987 83.9321C86.088 83.999 86.0831 84.062 86.0831 84.1231C86.0831 84.7234 86.1035 85.245 86.1444 85.6872C86.1852 86.1294 86.2708 86.4988 86.4041 86.7936C86.5363 87.0884 86.7396 87.3095 87.0149 87.4569C87.2901 87.6043 87.6714 87.678 88.1606 87.678C88.3435 87.678 88.4758 87.6605 88.5575 87.6247C88.6382 87.5897 88.7053 87.5306 88.7559 87.4491C88.8065 87.3687 88.858 87.2562 88.9086 87.1136C88.9592 86.9711 89.036 86.7985 89.1381 86.5948V86.5338C89.1985 86.3815 89.3414 86.2952 89.5651 86.2749V86.2293ZM86.5111 80.5072C86.3477 80.7612 86.2358 81.023 86.1745 81.2926C86.1142 81.5622 86.0831 81.8492 86.0831 82.1547V82.6123C86.0831 82.6123 86.0928 82.8974 86.1142 83.04V83.1767H86.8009C86.8009 83.1767 87.3553 83.1874 87.7025 83.2077C87.865 83.2077 88.0789 83.2029 88.3435 83.1922C88.6081 83.1825 88.7715 83.1767 88.8327 83.1767V83.0245C88.8327 82.3534 88.8065 81.8191 88.7559 81.4225C88.7053 81.0259 88.6236 80.7234 88.5118 80.5149C88.3989 80.3064 88.2618 80.1736 88.0994 80.1173C87.936 80.0621 87.7531 80.0339 87.5498 80.0339H87.3971C87.2337 80.0543 87.081 80.0921 86.938 80.1484C86.796 80.2046 86.6531 80.319 86.5111 80.4916V80.5072Z" fill="#8A8E7D"/>
<path d="M95.6737 83.6043C95.6942 83.8177 95.7049 84.0417 95.7049 84.2754V84.9929V85.4962C95.7049 85.8627 95.663 86.2167 95.5813 86.557C95.4996 86.8974 95.345 87.1999 95.1193 87.4647C94.9345 87.678 94.6933 87.8283 94.3957 87.9146C94.0981 88.0009 93.7752 88.0445 93.426 88.0445C93.1391 88.0445 92.8463 88.0164 92.5487 87.9611C92.251 87.9049 92.0001 87.8205 91.7949 87.709L91.825 87.8157V88.6932C91.825 88.6932 91.825 89.2702 91.825 89.5553C91.825 89.8501 91.8299 90.14 91.8406 90.4251C91.8503 90.7092 91.8562 90.9943 91.8562 91.2794V92.0115C91.8562 92.2462 91.8455 92.4847 91.825 92.7291C91.825 92.7591 91.8202 92.7979 91.8095 92.8435C91.7997 92.8891 91.7949 92.9327 91.7949 92.9734V93.2168C91.7949 93.2886 91.7842 93.3448 91.7638 93.3856L91.6723 93.4311C91.469 93.4311 91.3261 93.3875 91.2444 93.3012C91.1636 93.2149 91.1228 93.1053 91.1228 92.9734V92.7591C91.1228 92.6476 91.1277 92.4847 91.1384 92.2714C91.1481 92.0581 91.1529 91.7167 91.1529 91.2493C91.1938 91.0457 91.2142 90.8392 91.2142 90.6307C91.2142 90.4222 91.2142 90.2166 91.2142 90.013C91.2142 89.7386 91.2094 89.4738 91.1987 89.2198C91.1889 88.9648 91.1636 88.6952 91.1228 88.4111L91.0742 86.366L91.0002 84.2909L90.939 83.6955V83.6809C90.8981 83.4056 90.868 83.1292 90.8475 82.849C90.8271 82.5697 90.8174 82.2924 90.8174 82.017C90.8174 81.7532 90.832 81.5011 90.8631 81.2625C90.8932 81.023 90.9701 80.7864 91.0917 80.5527V80.5372C91.2551 80.2124 91.5546 79.9758 91.9933 79.8274C92.431 79.68 92.8735 79.6063 93.3219 79.6063C93.7693 79.6063 94.0747 79.6422 94.2381 79.713C94.564 79.8352 94.8237 80.0029 95.0172 80.2172C95.2108 80.4306 95.3528 80.6701 95.4452 80.9338C95.5366 81.1985 95.5979 81.4836 95.628 81.7881C95.6582 82.0936 95.6737 82.4039 95.6737 82.719V83.6043ZM93.9853 87.5413C94.2109 87.4705 94.3908 87.3483 94.5241 87.1747C94.6573 87.0021 94.7604 86.7985 94.8324 86.5648C94.9044 86.3311 94.9501 86.0761 94.9705 85.8016C94.991 85.5272 95.0017 85.247 95.0017 84.9619V84.4431C95.0017 84.2812 95.0065 84.126 95.0172 83.9786C95.0269 83.8312 95.0221 83.6955 95.0017 83.5743C94.9812 83.5132 94.9715 83.424 94.9715 83.3066C94.9715 83.1903 94.9715 83.0652 94.9715 82.9333C94.9715 82.7801 94.9657 82.6182 94.9559 82.4446C94.9452 82.272 94.9307 82.1013 94.9102 81.9336C94.8898 81.7658 94.8694 81.6058 94.849 81.4526C94.8285 81.3004 94.8081 81.1733 94.7877 81.0715C94.6846 80.7156 94.4949 80.4286 94.2177 80.2095C93.9395 79.9903 93.6575 79.8817 93.3705 79.8817C93.3083 79.8817 93.2363 79.8817 93.1537 79.8817C93.0719 79.8817 93 79.8866 92.9377 79.8963V79.9118C92.7743 79.9525 92.5992 80.034 92.4144 80.1561C92.2287 80.2783 92.0341 80.415 91.8289 80.5683C91.7462 80.6594 91.6791 80.7719 91.6276 80.9038C91.576 81.0356 91.541 81.1782 91.5206 81.3304C91.4992 81.4836 91.4846 81.6388 91.4739 81.7959C91.4632 81.9539 91.4583 82.0994 91.4583 82.2313C91.4583 82.465 91.469 82.6938 91.4895 82.9178C91.5089 83.1418 91.5294 83.36 91.5498 83.5743V83.5888C91.5702 83.742 91.5858 83.8894 91.5965 84.032C91.6062 84.1745 91.6111 84.3161 91.6111 84.4586C91.6111 84.5507 91.6159 84.6448 91.6266 84.7408C91.6363 84.8378 91.6422 84.9318 91.6422 85.023C91.6626 85.3488 91.6879 85.6717 91.719 85.9927C91.7492 86.3127 91.827 86.6104 91.9505 86.8848V86.9003C92.1353 87.1544 92.3503 87.3425 92.5973 87.4647C92.8434 87.5868 93.0904 87.6479 93.3375 87.6479C93.5427 87.6479 93.7586 87.6169 93.9853 87.5568V87.5413Z" fill="#8A8E7D"/>
<path d="M100.469 86.2749C100.754 86.3156 100.897 86.4174 100.897 86.5793C100.897 86.7529 100.846 86.9459 100.744 87.1592C100.642 87.3735 100.54 87.5364 100.439 87.6479C100.296 87.8002 100.113 87.9127 99.8895 87.9834C99.6648 88.0542 99.41 88.0901 99.125 88.0901C98.7389 88.0901 98.3771 88.0242 98.0415 87.8923C97.705 87.7604 97.456 87.5771 97.2926 87.3425V87.3279C97.1097 87.1136 96.9969 86.8751 96.957 86.6104C96.9162 86.3456 96.8957 86.0819 96.8957 85.8172V84.3675C96.8549 84.0931 96.8345 83.8206 96.8345 83.551C96.8345 83.2814 96.8345 82.9992 96.8345 82.7045V81.8647C96.8549 81.5699 96.8957 81.2625 96.957 80.9416C97.0183 80.6216 97.171 80.3442 97.4151 80.1106V80.095C97.5367 79.9632 97.7205 79.8662 97.9647 79.8051C98.2088 79.744 98.4734 79.713 98.7593 79.713C98.9013 79.713 99.1153 79.7236 99.4003 79.744C99.6853 79.7644 99.8788 79.7847 99.981 79.8051C100.205 79.8963 100.403 80.0621 100.576 80.3006C100.749 80.5401 100.836 80.7913 100.836 81.056C100.836 81.1171 100.825 81.1685 100.806 81.2092V81.2548C100.806 81.3159 100.744 81.3459 100.622 81.3459H100.469V81.3304C100.327 81.28 100.241 81.2189 100.21 81.1481C100.179 81.0764 100.153 81.0007 100.134 80.9193C100.134 80.8989 100.128 80.8882 100.118 80.8882C100.107 80.8882 100.103 80.8785 100.103 80.8582V80.8272C100.022 80.5731 99.874 80.385 99.66 80.2628C99.446 80.1406 99.2369 80.0795 99.0336 80.0795H98.7282C98.1991 80.2221 97.8626 80.4664 97.7205 80.8116C97.5776 81.1578 97.5066 81.5399 97.5066 81.9568V82.3069C97.5066 82.4194 97.5163 82.5309 97.5367 82.6434V82.9479C97.5571 83.2029 97.5727 83.4802 97.5834 83.7798C97.5931 84.0805 97.598 84.3568 97.598 84.6118V84.9551C97.598 85.0618 97.5873 85.1762 97.5678 85.2984V85.9238C97.5678 86.1168 97.5776 86.3078 97.598 86.4959C97.6184 86.6841 97.6797 86.8644 97.7818 87.038C97.9034 87.2814 98.0872 87.4443 98.3314 87.5257C98.5755 87.6072 98.8099 87.6479 99.0336 87.6479H99.1562C99.4003 87.6276 99.5938 87.5364 99.7368 87.3735C99.8788 87.2106 100 86.9914 100.103 86.717V86.687C100.103 86.6666 100.107 86.6482 100.118 86.6336C100.128 86.6181 100.134 86.6007 100.134 86.5793C100.153 86.5192 100.184 86.4523 100.225 86.3815C100.266 86.3107 100.348 86.2749 100.469 86.2749Z" fill="#8A8E7D"/>
<path d="M106.823 87.1747C106.863 87.2261 106.915 87.2998 106.976 87.3958C107.037 87.4928 107.098 87.5771 107.159 87.6479C107.118 87.8001 106.976 87.8767 106.731 87.8767C106.629 87.8767 106.533 87.8409 106.441 87.7701C106.35 87.6993 106.257 87.6101 106.166 87.5024C106.075 87.3958 105.993 87.2736 105.922 87.1369C105.85 86.9992 105.774 86.8595 105.693 86.717L105.421 86.1827C105.26 85.9694 105.104 85.7454 104.952 85.5117C104.801 85.278 104.651 85.0511 104.5 84.8329C104.348 84.6138 104.207 84.4111 104.077 84.222C103.946 84.0339 103.83 83.8787 103.73 83.7566C103.69 83.7566 103.624 83.8176 103.533 83.9398C103.443 84.062 103.346 84.1793 103.246 84.2909L102.975 84.6118V84.6719C102.953 84.8756 102.944 85.1248 102.944 85.4205V86.2894V86.8392C102.944 86.8392 102.953 87.1698 102.975 87.3124V87.4491C102.975 87.5306 102.953 87.6382 102.914 87.7701C102.872 87.902 102.791 87.9679 102.668 87.9679C102.452 87.9679 102.315 87.869 102.261 87.6712C102.206 87.4724 102.18 87.2814 102.18 87.0981C102.18 86.4271 102.185 85.8346 102.196 85.3207C102.205 84.8077 102.21 84.3519 102.21 83.9553V82.75C102.21 82.4853 102.21 82.2642 102.21 82.0858C102.21 81.9083 102.205 81.758 102.196 81.6359C102.185 81.5137 102.18 81.4148 102.18 81.3382C102.18 81.2625 102.18 81.1937 102.18 81.1326V80.5983C102.18 80.3539 102.196 80.1532 102.228 79.9961C102.259 79.8381 102.371 79.7595 102.562 79.7595C102.668 79.7595 102.753 79.808 102.817 79.904C102.881 80.001 102.914 80.1154 102.914 80.2473V80.4305C102.914 80.4305 102.903 80.5527 102.882 80.6138V80.6293C102.882 80.6894 102.878 80.7534 102.868 80.8194C102.857 80.8863 102.852 80.9445 102.852 80.9949C102.852 81.3818 102.846 81.6892 102.837 81.918C102.826 82.1469 102.821 82.3331 102.821 82.4756V82.7655V83.2C102.821 83.2 102.842 83.5587 102.882 83.8332V83.8943C103.185 83.6295 103.484 83.3066 103.776 82.9255C104.069 82.5435 104.357 82.1702 104.639 81.8036V81.7881C104.679 81.7377 104.715 81.695 104.745 81.6591C104.775 81.6233 104.811 81.5748 104.851 81.5137L105.275 80.8882C105.437 80.6138 105.617 80.3568 105.82 80.1173C106.022 79.8788 106.223 79.7595 106.426 79.7595C106.69 79.7595 106.823 79.8148 106.823 79.9273C106.823 79.9777 106.767 80.0621 106.655 80.1784C106.542 80.2958 106.436 80.4102 106.334 80.5217L106.029 80.8882L105.327 81.8036L104.502 82.8722L104.227 83.1922V83.3299L104.502 83.742C104.603 83.8943 104.73 84.0824 104.883 84.3064C105.036 84.5304 105.204 84.7738 105.387 85.0385C105.571 85.3032 105.754 85.5805 105.937 85.8705C106.12 86.1604 106.304 86.4474 106.487 86.7325C106.528 86.8237 106.578 86.9051 106.64 86.9769C106.701 87.0477 106.762 87.1136 106.823 87.1747ZM107.159 87.5868C107.22 87.6993 107.246 87.7526 107.235 87.7468C107.225 87.742 107.2 87.709 107.159 87.6479V87.6324V87.5868Z" fill="#8A8E7D"/>
<path d="M111.862 85.0841C111.862 85.3187 111.878 85.5903 111.908 85.9006C111.938 86.2109 111.954 86.4989 111.954 86.7626C111.954 86.9362 111.938 87.101 111.908 87.2591C111.878 87.4162 111.79 87.5568 111.648 87.678C111.505 87.8002 111.292 87.8971 111.007 87.9679C110.721 88.0397 110.325 88.0756 109.816 88.0756H109.663C109.377 88.0445 109.123 87.9737 108.9 87.8622C108.675 87.7507 108.487 87.613 108.335 87.4511C108.182 87.2882 108.064 87.1078 107.983 86.91C107.902 86.7122 107.861 86.5173 107.861 86.3233C107.861 85.7144 108.04 85.2072 108.4 84.8009C108.76 84.3946 109.412 84.1057 110.358 83.9331C110.378 83.9331 110.434 83.9301 110.527 83.9253C110.619 83.9205 110.716 83.903 110.82 83.872C110.923 83.8419 111.015 83.7857 111.097 83.7042C111.179 83.6237 111.22 83.5064 111.22 83.3542V82.0751C111.22 82.0645 111.215 82.0548 111.206 82.0441C111.195 82.0344 111.19 82.0189 111.19 81.9985V81.9229C111.19 81.76 111.169 81.5777 111.128 81.3741C111.087 81.1714 111.031 80.9833 110.959 80.8107C110.887 80.6381 110.794 80.4936 110.681 80.3772C110.568 80.2599 110.429 80.2017 110.264 80.2017C110.183 80.2017 110.079 80.225 109.956 80.2705C109.832 80.3161 109.709 80.3724 109.585 80.4383C109.462 80.5042 109.338 80.5808 109.216 80.6672C109.091 80.7535 108.999 80.833 108.938 80.9038C108.856 80.9745 108.773 81.0405 108.69 81.1016C108.608 81.1627 108.506 81.1937 108.382 81.1937C108.238 81.1937 108.166 81.1278 108.166 80.9949C108.166 80.8116 108.247 80.6468 108.41 80.4994C108.574 80.352 108.766 80.2259 108.991 80.1212C109.215 80.0165 109.438 79.937 109.663 79.8846C109.887 79.8313 110.07 79.8051 110.213 79.8051C110.539 79.8051 110.813 79.8788 111.037 80.0262C111.261 80.1736 111.434 80.3724 111.557 80.6216C111.678 80.8708 111.765 81.1627 111.817 81.4982C111.867 81.8347 111.892 82.1905 111.892 82.5668C111.892 82.8005 111.888 83.0574 111.878 83.3377C111.867 83.6169 111.862 83.8846 111.862 84.1386V85.0841ZM110.875 87.5713C111.063 87.5005 111.182 87.3706 111.234 87.1825C111.286 86.9944 111.313 86.7888 111.313 86.5648C111.313 86.463 111.307 86.3204 111.297 86.1372C111.286 85.9539 111.277 85.7658 111.267 85.5728C111.256 85.3798 111.246 85.2043 111.236 85.0463C111.225 84.8892 111.22 84.7893 111.22 84.7486V84.2453C110.804 84.2453 110.376 84.3035 109.939 84.4208C109.502 84.5381 109.137 84.7738 108.845 85.1306V85.1452C108.741 85.2984 108.662 85.471 108.611 85.6639C108.558 85.8579 108.533 86.0606 108.533 86.2749C108.533 86.4174 108.548 86.5648 108.58 86.717C108.611 86.8693 108.678 86.9915 108.783 87.0836V87.0981C109.053 87.3124 109.241 87.4676 109.344 87.5636C109.448 87.6605 109.657 87.709 109.97 87.709H110.157C110.219 87.709 110.308 87.6993 110.422 87.678C110.537 87.6586 110.687 87.6227 110.875 87.5713Z" fill="#8A8E7D"/>
<path d="M114.714 79.6829C114.756 79.6732 114.816 79.6674 114.899 79.6674H115.176L116.836 79.7285C117.124 79.7285 117.288 79.7799 117.329 79.8817C117.37 79.9826 117.38 80.1106 117.36 80.2628V82.3534V83.6121C117.36 83.6121 117.349 84.3723 117.33 84.6574C117.33 84.861 117.324 85.0443 117.314 85.2062C117.303 85.3692 117.298 85.5224 117.298 85.6639V86.3359L117.238 87.8467C117.238 87.8865 117.198 87.9146 117.12 87.9301C117.043 87.9456 116.965 87.9534 116.888 87.9534H116.596C116.596 87.8409 116.591 87.742 116.581 87.6557C116.571 87.5694 116.566 87.4705 116.566 87.358C116.566 87.2562 116.566 87.0933 116.566 86.8693C116.566 86.6462 116.571 86.4067 116.581 86.1527C116.591 85.8986 116.601 85.662 116.612 85.4429C116.621 85.2247 116.627 85.0695 116.627 84.9774V84.8096C116.401 84.8504 116.154 84.8814 115.886 84.9018C115.619 84.9221 115.423 84.9318 115.3 84.9318H115.145V85.054C115.042 85.278 114.955 85.4681 114.883 85.6261C114.81 85.7842 114.749 85.9238 114.698 86.046C114.646 86.1682 114.6 86.2797 114.558 86.3815C114.518 86.4833 114.477 86.5851 114.436 86.687C114.395 86.8392 114.344 86.9973 114.281 87.1592C114.219 87.3221 114.117 87.5665 113.973 87.8923C113.932 87.9126 113.809 87.9223 113.603 87.9223C113.409 87.9223 113.313 87.8923 113.313 87.8312C113.355 87.5771 113.445 87.2765 113.581 86.9304C113.718 86.5851 113.867 86.2341 114.03 85.8782L114.397 85.0084V84.8407C114.132 84.7592 113.837 84.5633 113.511 84.253C113.185 83.9427 113.023 83.4666 113.023 82.8257C113.023 82.5823 113.017 82.3913 113.007 82.2536C112.996 82.1168 112.992 82.0102 112.992 81.9336C112.992 81.857 112.987 81.8036 112.977 81.7736C112.966 81.7425 112.961 81.7222 112.961 81.7125V81.6359C112.961 81.28 112.997 80.9852 113.068 80.7505C113.14 80.5168 113.253 80.3268 113.407 80.1784C113.561 80.031 113.745 79.9224 113.961 79.8507C114.176 79.7799 114.427 79.7285 114.714 79.6984V79.6829ZM116.719 80.0495L115.885 80.0029C115.782 79.9932 115.638 79.9884 115.453 79.9884C115.269 79.9884 115.134 79.9884 115.053 79.9884C114.415 79.9884 114.014 80.1455 113.849 80.4606C113.685 80.7767 113.603 81.2596 113.603 81.9103L113.634 82.5212C113.634 82.7549 113.654 82.9915 113.695 83.23C113.736 83.4695 113.818 83.6858 113.942 83.8787C114.065 84.0727 114.25 84.2298 114.497 84.352C114.744 84.4741 115.084 84.5352 115.516 84.5352C115.619 84.5352 115.793 84.5226 116.04 84.4974C116.287 84.4712 116.493 84.4286 116.657 84.3675V84.2298L116.688 84.0009C116.708 83.8584 116.719 83.7091 116.719 83.551C116.719 83.3929 116.719 83.2378 116.719 83.0855V80.0495Z" fill="#8A8E7D"/>
</svg>
