<svg width="156" height="89" viewBox="0 0 156 89" fill="none" xmlns="http://www.w3.org/2000/svg">
<path d="M102.554 17.1438C103.399 16.6965 104.562 16.0798 105.447 15.5601C118.988 7.60886 120.088 5.53463 121.256 2.14673C116.651 2.14673 103.179 10.7375 95.3428 13.5723" stroke="#DDDDDD" stroke-miterlimit="10" stroke-linecap="round" stroke-linejoin="round"/>
<path d="M70.3916 33.848C70.3916 33.848 74.0003 23.6843 83.7952 18.395C90.2709 14.8981 98.0086 16.025 102.509 17.1903C104.816 17.7876 105.81 18.087 105.81 18.087L106.272 18.9265L107.486 18.9075C107.567 18.9063 107.646 18.9197 107.722 18.9487C108.3 19.1695 110.967 20.2402 113.764 22.1977C116.926 24.4102 119.194 27.245 122.494 28.9044C125.793 30.5638 129.299 28.9044 138.75 29.5958C148.201 30.2872 156.037 35.7148 153.391 40.6584C151.329 37.4433 146.534 34.0035 134.729 34.1072C122.923 34.211 119.727 31.5663 114.314 26.1733C108.901 20.7803 107.148 20.4174 107.355 20.9359C107.561 21.4545 109.731 22.5434 112.151 25.3955C114.572 28.2476 122.459 40.4855 122.253 52.1012C113.489 48.938 111.376 35.0407 110.963 32.7071C110.551 30.3736 110.393 25.6122 104.413 22.3453L104.133 21.5236L103.177 21.7483C103.177 21.7483 100.527 20.5111 96.5452 19.8998C93.7312 19.4678 90.3899 19.4088 87.1815 20.4657C86.7176 20.6186 84.5596 21.6124 84.6544 22.094V22.094C84.7557 22.6085 87.1263 22.4431 87.6414 22.3623C89.8212 22.0205 92.9762 21.1848 96.3954 19.8988" stroke="#DDDDDD" stroke-miterlimit="10" stroke-linecap="round" stroke-linejoin="round"/>
<path d="M123.359 51.049C123.359 51.049 125.432 53.9575 127.75 53.5028C127.896 53.4742 128.023 53.3792 128.103 53.2528C133.569 44.5616 121.635 32.9663 121.635 32.9663" stroke="#DDDDDD" stroke-miterlimit="10" stroke-linecap="round" stroke-linejoin="round"/>
<path d="M111.685 39.189C111.685 39.189 102.663 51.4788 106.993 64.339C108.437 67.0873 109.648 65.9983 109.674 65.7909C109.7 65.5835 109.52 63.6648 110.37 62.9389" stroke="#DDDDDD" stroke-miterlimit="10" stroke-linecap="round" stroke-linejoin="round"/>
<path d="M110.602 43.2617C110.602 43.2617 105.964 56.7783 111.158 61.3183C111.318 61.4584 111.553 61.4913 111.732 61.3755C115.53 58.9108 113.128 43.2617 113.128 43.2617" stroke="#DDDDDD" stroke-miterlimit="10" stroke-linecap="round" stroke-linejoin="round"/>
<path d="M113.844 51.0891C113.844 51.0891 115.861 55.0568 118.387 55.0827C119.933 53.5575 118.149 49.4895 118.149 49.4895" stroke="#DDDDDD" stroke-miterlimit="10" stroke-linecap="round" stroke-linejoin="round"/>
<path d="M112.974 63.5094C112.974 63.5094 117.685 69.2649 117.871 62.1611" stroke="#DDDDDD" stroke-miterlimit="10" stroke-linecap="round" stroke-linejoin="round"/>
<path d="M117.478 64.6442C117.478 64.6442 123.181 71.3913 123.593 62.7314" stroke="#DDDDDD" stroke-miterlimit="10" stroke-linecap="round" stroke-linejoin="round"/>
<path d="M123.594 65.3243C123.594 65.3243 128.697 69.058 129.78 62.1611" stroke="#DDDDDD" stroke-miterlimit="10" stroke-linecap="round" stroke-linejoin="round"/>
<path d="M128.8 61.4459C128.8 61.4459 135.09 65.6872 134.935 58.3755" stroke="#DDDDDD" stroke-miterlimit="10" stroke-linecap="round" stroke-linejoin="round"/>
<path d="M109.674 65.791C109.674 65.791 112.343 70.1409 113.844 65.7102" stroke="#DDDDDD" stroke-miterlimit="10" stroke-linecap="round" stroke-linejoin="round"/>
<path d="M113.411 66.7053C113.411 66.7053 116.503 72.0302 119.017 67.1475" stroke="#DDDDDD" stroke-miterlimit="10" stroke-linecap="round" stroke-linejoin="round"/>
<path d="M119.521 67.7006C119.521 67.7006 121.119 71.4713 123.594 67.957C123.594 67.957 127.95 72.3723 129.535 66.1777C129.535 66.1777 134.574 69.2134 133.904 63.0945" stroke="#DDDDDD" stroke-miterlimit="10" stroke-linecap="round" stroke-linejoin="round"/>
<path d="M134.665 60.7785C134.665 60.7785 141.379 63.8205 140.142 56.6125" stroke="#DDDDDD" stroke-miterlimit="10" stroke-linecap="round" stroke-linejoin="round"/>
<path d="M133.965 64.9395C133.965 64.9395 139.137 67.7207 138.711 61.2073" stroke="#DDDDDD" stroke-miterlimit="10" stroke-linecap="round" stroke-linejoin="round"/>
<path d="M139.89 60.1635C139.89 60.1635 145.039 61.6943 143.854 56.1458" stroke="#DDDDDD" stroke-miterlimit="10" stroke-linecap="round" stroke-linejoin="round"/>
<path d="M144.472 55.2642C144.472 55.2642 150.762 57.494 147.565 50.7009" stroke="#DDDDDD" stroke-miterlimit="10" stroke-linecap="round" stroke-linejoin="round"/>
<path d="M143.438 59.5603C143.438 59.5603 149.06 60.4762 147.101 55.6145" stroke="#DDDDDD" stroke-miterlimit="10" stroke-linecap="round" stroke-linejoin="round"/>
<path d="M138.091 64.6221C138.091 64.6221 142.954 65.2834 141.96 61.2073" stroke="#DDDDDD" stroke-miterlimit="10" stroke-linecap="round" stroke-linejoin="round"/>
<path d="M141.828 63.3684C141.828 63.3684 145.555 64.2574 144.936 60.3572" stroke="#DDDDDD" stroke-miterlimit="10" stroke-linecap="round" stroke-linejoin="round"/>
<path d="M145.005 62.1611C145.005 62.1611 147.823 61.8306 146.998 59.0142" stroke="#DDDDDD" stroke-miterlimit="10" stroke-linecap="round" stroke-linejoin="round"/>
<path d="M127.72 69.2085C127.72 69.2085 130.038 70.9246 130.966 68.3318" stroke="#DDDDDD" stroke-miterlimit="10" stroke-linecap="round" stroke-linejoin="round"/>
<path d="M130.038 67.7005C130.038 67.7005 133.646 70.1607 134.471 66.7053" stroke="#DDDDDD" stroke-miterlimit="10" stroke-linecap="round" stroke-linejoin="round"/>
<path d="M133.965 67.6273C133.965 67.6273 136.94 68.1056 136.994 65.4185" stroke="#DDDDDD" stroke-miterlimit="10" stroke-linecap="round" stroke-linejoin="round"/>
<path d="M136.64 66.7055C136.64 66.7055 140.095 68.3411 140.093 64.5251" stroke="#DDDDDD" stroke-miterlimit="10" stroke-linecap="round" stroke-linejoin="round"/>
<path d="M122.169 69.3032C122.169 69.3032 124.882 72.3436 125.939 69.4821" stroke="#DDDDDD" stroke-miterlimit="10" stroke-linecap="round" stroke-linejoin="round"/>
<path d="M117.478 69.0486C117.478 69.0486 119.368 71.3729 120.501 69.0486" stroke="#DDDDDD" stroke-miterlimit="10" stroke-linecap="round" stroke-linejoin="round"/>
<path d="M111.287 67.5801C111.287 67.5801 113.204 72.0967 115.241 68.7365" stroke="#DDDDDD" stroke-miterlimit="10" stroke-linecap="round" stroke-linejoin="round"/>
<path d="M147.367 58.2515C147.367 58.2515 151.097 58.5571 149.473 53.8901" stroke="#DDDDDD" stroke-miterlimit="10" stroke-linecap="round" stroke-linejoin="round"/>
<path d="M148.471 53.5185C148.471 53.5185 152.291 54.3482 151.019 50.3726" stroke="#DDDDDD" stroke-miterlimit="10" stroke-linecap="round" stroke-linejoin="round"/>
<path d="M117.098 59.4643C117.098 59.4643 122.047 65.9981 122.7 59.1532V59.1066C122.7 59.1066 128.749 66.3093 128.577 56.6123C128.577 56.6123 135.554 62.5802 135.073 53.1575" stroke="#DDDDDD" stroke-miterlimit="10" stroke-linecap="round" stroke-linejoin="round"/>
<path d="M134.938 56.3533C134.938 56.3533 140.91 59.2226 140.294 52.7234" stroke="#DDDDDD" stroke-miterlimit="10" stroke-linecap="round" stroke-linejoin="round"/>
<path d="M140.093 55.3031C140.093 55.3031 145.795 58.0818 144.472 51.2368" stroke="#DDDDDD" stroke-miterlimit="10" stroke-linecap="round" stroke-linejoin="round"/>
<path d="M129.092 53.8901C129.092 53.8901 130.914 55.3162 130.811 52.7234" stroke="#DDDDDD" stroke-miterlimit="10" stroke-linecap="round" stroke-linejoin="round"/>
<path d="M131.705 52.5505C131.705 52.5505 133.767 54.3135 133.285 50.7009" stroke="#DDDDDD" stroke-miterlimit="10" stroke-linecap="round" stroke-linejoin="round"/>
<path d="M134.076 50.7009C133.976 50.6506 137.108 52.1447 136.608 49.3025C136.575 49.1148 136.552 48.9239 136.536 48.7339C136.502 48.3204 136.381 47.5577 135.966 47.0676" stroke="#DDDDDD" stroke-miterlimit="10" stroke-linecap="round" stroke-linejoin="round"/>
<path d="M137.307 49.0243C137.307 49.0243 138.51 52.7905 142.153 51.8408C144.672 50.3034 142.977 46.6389 142.977 46.6389" stroke="#DDDDDD" stroke-miterlimit="10" stroke-linecap="round" stroke-linejoin="round"/>
<path d="M144.008 49.6809C144.008 49.6809 150.401 51.5823 147.067 45.0139" stroke="#DDDDDD" stroke-miterlimit="10" stroke-linecap="round" stroke-linejoin="round"/>
<path d="M142.668 44.8411C142.668 44.8411 147.259 45.74 144.671 41.8335" stroke="#DDDDDD" stroke-miterlimit="10" stroke-linecap="round" stroke-linejoin="round"/>
<path d="M145.462 41.1078C145.462 41.1078 149.141 42.8709 146.472 39.5867" stroke="#DDDDDD" stroke-miterlimit="10" stroke-linecap="round" stroke-linejoin="round"/>
<path d="M147.972 47.4754C147.972 47.4754 153.7 49.7157 150.504 43.856" stroke="#DDDDDD" stroke-miterlimit="10" stroke-linecap="round" stroke-linejoin="round"/>
<path d="M149.316 36.9252C149.316 36.9252 152.574 40.4238 151.144 41.5837C151.001 41.7 150.79 41.676 150.662 41.543C143.443 34.0556 133.347 34.1526 133.347 34.1526H133.452C133.452 34.1526 140.434 37.8927 139.403 44.5994C135.279 46.9847 127.833 41.5804 127.833 41.5804" stroke="#DDDDDD" stroke-miterlimit="10" stroke-linecap="round" stroke-linejoin="round"/>
<path d="M120.452 56.2968C120.452 56.2968 121.277 57.8024 122.579 57.4039C123.739 55.6245 121.664 54.0347 121.664 54.0347" stroke="#DDDDDD" stroke-miterlimit="10" stroke-linecap="round" stroke-linejoin="round"/>
<path d="M147.153 42.8966C149.602 44.0115 149.112 44.8671 149.318 44.3485C149.506 43.8748 149.716 43.0766 149.24 42.3688C149.212 42.3272 149.259 42.2767 149.301 42.3028C151.479 43.6323 151.479 43.382 151.479 43.382" stroke="#DDDDDD" stroke-miterlimit="10" stroke-linecap="round" stroke-linejoin="round"/>
<path d="M150.229 49.9366C150.229 49.9366 155.384 50.0612 152.532 44.3225" stroke="#DDDDDD" stroke-miterlimit="10" stroke-linecap="round" stroke-linejoin="round"/>
<path d="M140.42 40.1109C140.42 40.1109 144.1 41.874 141.43 38.5898" stroke="#DDDDDD" stroke-miterlimit="10" stroke-linecap="round" stroke-linejoin="round"/>
<path d="M15.196 49.0736C15.2845 47.6634 15.3398 46.3371 15.3626 45.0945C15.3845 43.8523 15.3959 42.5926 15.3959 41.316V31.0902H14.7305C13.9757 31.0902 13.1551 31.0902 12.2684 31.0902C11.3803 31.0902 10.693 31.0571 10.2056 30.9892H6.81208V31.5432C6.85543 31.7787 6.87825 32.0055 6.87825 32.2236V32.9034V34.3141C6.87825 34.7511 6.85543 35.1537 6.81208 35.5232V35.5733C6.81208 35.8088 6.80067 36.019 6.77876 36.2031C6.75595 36.3881 6.74545 36.5644 6.74545 36.7319V37.689V39.0492C6.74545 39.5533 6.76735 40.0743 6.81208 40.6109C6.81208 41.0814 6.82212 41.5428 6.84539 41.9963C6.86684 42.4494 6.87825 42.8272 6.87825 43.1297V44.3889C6.87825 44.8259 6.86684 45.296 6.84539 45.7996C6.82212 46.3032 6.78926 46.8072 6.74545 47.3108V47.3613C6.70072 47.9328 6.66741 48.4777 6.6455 48.9983C6.62269 49.5188 6.61219 50.0146 6.61219 50.4838L6.34613 52.1465V54.5648C6.34613 54.8338 6.35662 55.0853 6.37944 55.3204C6.40135 55.5554 6.41276 55.7904 6.41276 56.0255V66.6544C6.2795 66.8564 6.03534 66.9564 5.68074 66.9564C5.28142 66.9564 5.08199 66.9399 5.08199 66.9069V60.9116C5.08199 60.7106 5.07058 60.4416 5.04867 60.1055C5.02586 59.7704 5.00395 59.3839 4.98205 58.9469C4.95923 58.5108 4.94873 58.0747 4.94873 57.6377C4.94873 57.2016 4.94873 56.7811 4.94873 56.378C4.94873 55.3709 4.97064 54.4638 5.01536 53.6577C5.05917 52.8516 5.1039 52.0124 5.14816 51.1393C5.2367 50.1992 5.29192 49.2085 5.31474 48.1674C5.33664 47.1267 5.34805 45.9681 5.34805 44.6914V37.1855L5.54748 35.0192V33.76C5.54748 33.3909 5.54748 33.0632 5.54748 32.7776C5.54748 32.4926 5.50276 32.2323 5.41468 31.9968C5.41468 31.8292 5.40327 31.6695 5.38137 31.5185C5.35855 31.367 5.34805 31.2081 5.34805 31.0397C5.34805 30.2005 5.54748 29.7805 5.94681 29.7805C6.12342 29.7805 6.21287 29.764 6.21287 29.73V29.881H6.47939L7.81015 30.0825C8.34228 30.1835 8.78541 30.2336 9.14092 30.2336H9.77299C10.0162 30.2336 10.2937 30.217 10.6049 30.1835C10.871 30.1505 11.1257 30.1252 11.3698 30.1078C11.6135 30.0913 11.8244 30.0825 12.0023 30.0825H13.5992H14.6306C14.6306 30.0825 15.4392 30.066 15.662 30.032L16.1279 29.982L16.7933 29.881C16.7933 30.0155 16.8038 30.133 16.8266 30.2336C16.8481 30.3346 16.8599 30.4856 16.8599 30.6871C16.8599 30.8216 16.87 30.9474 16.8928 31.0649C16.9147 31.1829 16.9261 31.2917 16.9261 31.3922V31.7448C16.9261 31.9132 16.9147 32.14 16.8928 32.4251C16.87 32.7106 16.8599 33.0719 16.8599 33.508V33.8105C16.8152 34.3141 16.7933 34.9361 16.7933 35.6743V38.2431V40.9635V42.7519C16.7933 43.273 16.7705 43.7678 16.7267 44.2379V44.2884C16.7267 44.6244 16.7153 44.9265 16.6933 45.195C16.6705 45.464 16.66 45.716 16.66 45.9506V46.6057C16.66 46.6057 16.6819 46.9922 16.7267 47.1598C16.7267 47.3613 16.7372 47.5298 16.76 47.6634C16.7819 47.7979 16.7933 47.9489 16.7933 48.1169C16.7933 48.5199 16.7819 48.9065 16.76 49.2755C16.7372 49.6455 16.7267 50.0146 16.7267 50.3837C16.6819 50.7537 16.66 51.131 16.66 51.5166V52.8011C16.66 53.474 16.6705 54.136 16.6933 54.7915C16.7153 55.4461 16.7486 56.076 16.7933 56.6801C16.8366 57.1511 16.8599 57.6624 16.8599 58.217V59.753V60.8611C16.8599 61.3652 16.8266 61.9528 16.76 62.6248C16.6933 63.2969 16.6039 63.934 16.4939 64.5391C16.3826 65.1432 16.2607 65.6647 16.1279 66.1008C15.9946 66.5369 15.8386 66.7554 15.662 66.7554C15.3064 66.7554 15.0737 66.5956 14.9633 66.277C14.8519 65.9575 14.7971 65.7152 14.7971 65.5462C14.7971 65.2442 14.9299 64.9596 15.196 64.6896V64.4886C15.2845 63.8174 15.3398 63.0701 15.3626 62.2466C15.3845 61.4239 15.3959 60.593 15.3959 59.753C15.3959 58.4777 15.3845 57.1171 15.3626 55.6729C15.3398 54.2296 15.2626 52.701 15.1298 51.0888L15.196 49.0736Z" fill="#DDDDDD"/>
<path d="M35.1575 49.7788C35.2461 50.4178 35.3236 51.0972 35.3903 51.8188C35.4569 52.5414 35.4902 53.3227 35.4902 54.1618C35.4902 54.5988 35.4788 55.0349 35.4569 55.471C35.4341 55.9081 35.4008 56.4121 35.357 56.9823C35.273 57.9233 35.1365 58.8965 34.9476 59.9046C34.7582 60.9117 34.4953 61.9364 34.1595 62.9775C33.7154 64.2537 33.0053 65.2526 32.03 65.9742C31.0539 66.6967 29.8559 67.0575 28.4366 67.0575H27.7051C25.2201 66.4534 23.3463 65.0763 22.0822 62.927C20.8176 60.7777 20.096 57.7048 19.9194 53.7083V52.0961C19.9194 51.425 19.9632 50.8117 20.0513 50.258C20.1399 49.7035 20.295 49.0737 20.5154 48.3686C20.8687 47.0929 21.3104 45.825 21.8407 44.5653C22.371 43.3061 23.0332 42.2067 23.8287 41.2661C24.1814 40.8966 24.777 40.46 25.6172 39.956C26.3241 39.6209 27.0748 39.4524 27.8703 39.4524C29.0618 39.4524 30.1005 39.8554 30.9841 40.6615C31.4687 41.0315 31.8553 41.4259 32.1423 41.8454C32.4294 42.2655 32.684 42.7103 32.9044 43.1804C34.0084 45.0946 34.7605 47.2944 35.1575 49.7788ZM34.0262 53.7083C34.0262 52.8012 33.971 51.862 33.861 50.8869C33.7506 49.9138 33.6073 48.9901 33.4306 48.117C33.2102 47.4454 33.0003 46.8073 32.8013 46.2028C32.6028 45.5982 32.3929 45.0616 32.1724 44.5906C32.0392 44.3225 31.8521 44.02 31.6102 43.6839C31.3665 43.3488 31.1794 43.0463 31.0475 42.7773V42.7268C29.8997 41.2496 28.8629 40.5105 27.9369 40.5105C27.627 40.5105 27.2962 40.578 26.9438 40.712C26.5902 40.8465 26.1931 41.0315 25.7523 41.2661C25.3986 41.5011 24.803 42.2232 23.9651 43.4319V43.4824L23.3025 44.8426C23.0821 45.2456 22.8835 45.6487 22.7069 46.0517C22.5303 46.4543 22.3546 46.8913 22.1775 47.3614V47.4115C21.8243 48.453 21.6039 49.519 21.5153 50.6106C21.4273 51.7022 21.3835 52.8012 21.3835 53.9103C21.3835 54.9854 21.4706 56.043 21.6472 57.0832C21.8243 58.1244 22.0895 59.1325 22.4427 60.1056C23.5015 63.1281 25.2229 64.9257 27.606 65.4958C27.6932 65.5298 27.8255 65.5463 28.0022 65.5463C28.1788 65.5463 28.3111 65.5463 28.3992 65.5463C29.0605 65.5463 29.6793 65.4288 30.253 65.1938C30.8271 64.9597 31.3565 64.5392 31.842 63.9342C32.548 62.927 33.0665 61.6003 33.3973 59.9551C33.7277 58.3098 33.9381 56.4626 34.0262 54.4134V53.7083Z" fill="#DDDDDD"/>
<path d="M48.7318 41.1651H48.0664C47.3116 41.1651 46.491 41.1651 45.6043 41.1651C44.7162 41.1651 44.0289 41.1321 43.5415 41.0646H41.4787V42.3238C41.4787 42.4583 41.4892 42.5758 41.5121 42.6764C41.534 42.7773 41.5454 42.8953 41.5454 43.0289C41.5454 43.5329 41.534 44.0113 41.5121 44.4648C41.4892 44.9184 41.4559 45.3297 41.4121 45.6988C41.3674 45.9343 41.3455 46.1445 41.3455 46.3286V46.8574L41.2789 56.4287C41.1013 59.6521 40.78 62.1549 40.3141 63.9342C39.8486 65.7153 38.9938 66.604 37.7525 66.604H37.0205C36.7544 66.604 36.5098 66.5866 36.2885 66.5536C36.0658 66.5205 35.9558 66.4535 35.9558 66.3525L35.8892 66.1955C35.933 65.9852 36.0224 65.7419 36.1552 65.4619C36.2885 65.1828 36.4879 65.0423 36.7544 65.0423C36.8872 65.0423 36.9758 65.0515 37.0205 65.0681C37.0638 65.0855 37.1086 65.0928 37.1533 65.0928C37.3304 65.1938 37.486 65.2443 37.6192 65.2443C38.0624 65.2443 38.4179 65.069 38.684 64.7164C38.95 64.3648 39.1599 63.8874 39.316 63.2833C39.4712 62.681 39.5821 61.9759 39.6487 61.1716C39.7153 60.3673 39.7706 59.5135 39.8153 58.6083C39.8586 58.1061 39.8815 57.5947 39.8815 57.075C39.8815 56.5554 39.9253 56.0284 40.0147 55.4913V55.4408C40.0147 54.2344 40.0033 53.0106 39.9814 51.7702C39.9586 50.5308 39.9481 49.3078 39.9481 48.1005C39.9481 48.0675 39.9481 48.0005 39.9481 47.8999C39.9481 47.7989 39.97 47.6314 40.0147 47.3968V41.1124C40.0147 40.7442 40.0585 40.4417 40.148 40.2071C40.2361 39.9725 40.3693 39.8555 40.5473 39.8555H40.8134C40.8134 39.9229 40.9014 39.956 41.0794 39.956L42.4102 40.1575C42.8095 40.2925 43.2969 40.3591 43.8742 40.3591C44.0956 40.3591 44.2954 40.3425 44.473 40.309C44.7828 40.276 45.3382 40.2255 46.1364 40.1575C46.9351 40.091 48.2877 40.0239 50.1958 39.956C50.2392 40.326 50.262 40.5858 50.262 40.7369V41.4677V42.2233C50.262 42.5593 50.2392 43.0289 50.1958 43.6335V43.936C50.1958 44.306 50.1844 44.9184 50.1625 45.7745C50.1397 46.6311 50.1292 47.496 50.1292 48.3686V51.4415C50.1292 52.1806 50.1397 53.0372 50.1625 54.0104C50.1844 54.9854 50.2173 55.9081 50.262 56.7812C50.3058 57.3523 50.3391 57.9233 50.3619 58.4944C50.3838 59.0655 50.3952 59.4685 50.3952 59.7026V61.2138V62.9518C50.3952 63.6073 50.3619 64.2115 50.2953 64.766C50.2287 65.3196 50.1397 65.7906 50.0292 66.1762C49.9179 66.5618 49.7737 66.7555 49.5966 66.7555C48.8865 66.7555 48.5319 66.335 48.5319 65.4959C48.5319 65.3288 48.5319 65.169 48.5319 65.0176C48.5319 64.8661 48.5538 64.7072 48.5985 64.5392C48.6423 64.3042 48.6871 64.0187 48.7318 63.6826C48.7751 63.3475 48.8199 62.8857 48.8646 62.2972C48.9084 61.7105 48.9531 60.9715 48.9978 60.0809C49.0417 59.1913 49.0645 58.0914 49.0645 56.7812C49.0645 55.9081 49.0531 54.9762 49.0312 53.9856C49.0083 52.995 48.9084 51.9795 48.7318 50.9375V41.1651Z" fill="#DDDDDD"/>
<path d="M62.2482 66.3369C62.0296 66.3801 61.832 66.4058 61.6563 66.4131C61.481 66.4214 61.3053 66.4288 61.1296 66.4361C60.8658 66.448 60.5906 66.46 60.305 66.4719C60.0193 66.4838 59.766 66.4783 59.5446 66.4545C59.4128 66.46 59.2252 66.46 58.9833 66.4535C58.741 66.4471 58.5753 66.4462 58.4882 66.4499L57.956 66.4728C57.6288 66.4866 57.3372 66.4994 57.0807 66.5105C56.8238 66.5215 56.6709 66.4949 56.6221 66.4297L56.534 64.3658C56.5112 63.8296 56.4747 63.2512 56.4263 62.6315C56.377 62.0117 56.3405 61.3994 56.3145 60.7962L56.1963 58.0281C56.1803 57.659 56.1767 57.323 56.1862 57.02C56.1954 56.717 56.194 56.4141 56.1808 56.112L56.1164 54.6026C56.089 53.9655 56.0534 53.3953 56.0101 52.8931C55.9654 52.39 55.9352 51.9218 55.9165 51.4847L55.7504 47.6099L55.5049 40.3096C55.5464 40.2067 55.6596 40.1264 55.8431 40.0681C56.0261 40.0093 56.2109 39.9763 56.3975 39.9685L56.9566 39.9946L56.9872 42.2624L57.4285 52.5791C58.474 52.2991 59.2822 52.1458 59.8536 52.121C60.5131 52.0925 61.1876 52.1476 61.8762 52.2862C62.5649 52.4249 63.2043 52.6994 63.7939 53.1107C64.384 53.522 64.8837 54.1059 65.2903 54.8606C65.6974 55.6171 65.926 56.5811 65.9762 57.7554L66.2076 61.628C66.245 62.5011 66.1542 63.2273 65.9374 63.8076C65.7198 64.3896 65.4318 64.8551 65.0722 65.2068C64.7126 65.5584 64.2836 65.821 63.7852 65.9936C63.2859 66.1662 62.7734 66.2809 62.2482 66.3369ZM57.9109 65.4161L61.2766 65.4216C62.6781 65.294 63.6387 64.8487 64.1553 64.0867C64.6724 63.3256 64.8974 62.1384 64.8285 60.5281C64.7856 59.5218 64.7331 58.5661 64.6724 57.6608C64.6117 56.7556 64.4241 55.966 64.1101 55.2903C63.7948 54.6155 63.2996 54.0821 62.6233 53.6909C61.9465 53.2998 60.9717 53.1318 59.698 53.1869C59.1266 53.2117 58.4311 53.3926 57.611 53.7313L57.6325 54.2345C57.6366 54.3345 57.6297 54.4365 57.6119 54.5374C57.5937 54.6394 57.5873 54.7403 57.5919 54.8413C57.596 54.9414 57.5896 55.0516 57.5727 55.17C57.5549 55.2885 57.549 55.3977 57.5535 55.4987C57.5243 55.8696 57.5134 56.3911 57.5202 57.0632C57.5261 57.7352 57.559 58.7424 57.616 60.0837L57.7087 62.2477L57.8853 64.812L57.9109 65.4161ZM67.6132 43.113C67.5776 42.2748 67.4914 41.3034 67.3554 40.1998C67.3298 39.5957 67.4681 39.2037 67.7716 39.0224C67.6821 39.026 67.7702 38.9893 68.0331 38.9099C68.2097 38.9026 68.3886 38.9287 68.5693 38.9875C68.7487 39.0476 68.8445 39.195 68.8545 39.4291L69.6879 58.9058C69.7148 59.5439 69.7499 60.1131 69.7942 60.6153C69.8376 61.1184 69.8695 61.6041 69.8896 62.0742L70.0123 64.9423C70.037 65.5134 69.9416 65.8871 69.7276 66.0643C69.5094 66.1744 69.3351 66.2323 69.2023 66.2378C69.1128 66.2424 69.001 66.213 68.8655 66.1515C68.7295 66.09 68.6337 65.944 68.5803 65.7108L67.7469 46.2336C67.694 44.9928 67.6493 43.9521 67.6132 43.113Z" fill="#DDDDDD"/>
<path d="M83.7399 39.2004C83.9161 39.839 84.0493 40.4941 84.1388 41.1652C84.2273 41.8372 84.2721 42.5593 84.2721 43.3315V44.6664C84.2721 45.1195 84.2492 45.5983 84.2054 46.1018V46.1523C84.1607 46.7239 84.1278 47.3284 84.1059 47.9656C84.0831 48.6037 84.0722 49.2592 84.0722 49.9304V50.2829V50.9127C84.0722 50.9127 84.116 51.3911 84.2054 51.6922C84.1607 51.8593 84.1388 52.0347 84.1388 52.2192C84.1388 52.4037 84.1388 52.5791 84.1388 52.7462C84.1388 53.7166 84.1726 54.5622 84.2383 55.282C84.3049 56.0009 84.3387 56.863 84.3387 57.8674V59.2225V61.0808C84.3387 61.1808 84.3268 61.2818 84.3049 61.3819C84.2821 61.4829 84.2721 61.6004 84.2721 61.7335V62.1852C84.2721 62.4203 84.2821 62.6461 84.3049 62.8628C84.3268 63.0813 84.3387 63.2732 84.3387 63.4403V64.3942C84.3387 64.7963 84.3606 65.114 84.4053 65.349C84.4491 65.5832 84.4491 65.7502 84.4053 65.8503C84.3606 66.0183 84.3159 66.1515 84.2721 66.2525C84.2273 66.3525 84.0493 66.403 83.7399 66.403C83.5172 66.403 83.3173 66.3938 83.1412 66.3773C82.9632 66.3608 82.8518 66.3351 82.808 66.302L82.8747 60.0057C82.8747 59.2666 82.8518 58.5872 82.808 57.9647C82.7633 57.3441 82.7186 56.6472 82.6748 55.8742L82.4749 52.4487C82.076 52.2816 81.72 52.1806 81.4106 52.1467C81.0994 52.1136 80.8119 52.0962 80.5454 52.0962H79.8138C79.5477 52.0962 79.2255 52.0888 78.849 52.0714C78.4716 52.0549 78.039 52.0962 77.5516 52.1972C77.4183 52.1972 77.1856 52.2394 76.8529 52.3229C76.5202 52.4074 76.3089 52.6342 76.2208 53.0033V53.1042C76.2208 53.2723 76.2309 53.4311 76.2537 53.5826C76.2756 53.7332 76.287 53.8764 76.287 54.0104V54.6659C76.287 55.237 76.2756 55.6648 76.2537 55.9504C76.2309 56.2359 76.2094 56.5967 76.1875 57.0328C76.1647 57.4698 76.1428 58.0584 76.1209 58.7965C76.098 59.5356 76.0876 60.6272 76.0876 62.0705V63.3301C76.0876 63.8011 76.1095 64.2868 76.1542 64.7908C76.1542 64.9598 76.1428 65.136 76.1209 65.3197C76.098 65.5051 76.0647 65.6979 76.0209 65.899L75.7549 66.7556C75.6216 66.7556 75.3774 66.7473 75.0228 66.7299C74.6673 66.7133 74.4907 66.4875 74.4907 66.0523C74.4907 65.6511 74.524 65.1746 74.5902 64.6219C74.6568 64.0692 74.6902 63.4752 74.6902 62.8389C74.6902 62.2367 74.6787 61.7014 74.6568 61.2322C74.634 60.764 74.6235 60.3123 74.6235 59.8771V56.6133C74.6235 55.8769 74.6121 55.1323 74.5902 54.3786C74.5674 53.6257 74.5569 52.8637 74.5569 52.0943V47.6131C74.5569 47.311 74.5674 46.9759 74.5902 46.6059C74.6121 46.2368 74.634 45.8673 74.6568 45.4973C74.6787 45.1282 74.7007 44.7844 74.7235 44.4649C74.7454 44.1458 74.7568 43.903 74.7568 43.7345V43.684C74.7568 43.4155 74.7454 43.0377 74.7235 42.5506C74.7007 42.064 74.7007 41.577 74.7235 41.0899C74.7454 40.6033 74.8006 40.1828 74.8896 39.8303C74.9781 39.4777 75.1561 39.3014 75.4222 39.3014C75.7768 39.3014 76.0209 39.3689 76.1542 39.503L76.0209 45.2457C75.9762 45.9508 75.9648 46.6812 75.9876 47.4368C76.0095 48.1924 75.9981 48.9562 75.9543 49.7284V50.2324V50.6107C75.9543 50.6107 75.9981 50.8209 76.0876 50.988V51.3406C76.9743 51.3406 77.7843 51.3158 78.5163 51.2653C79.2484 51.2148 80.057 51.19 80.9451 51.19C81.4325 51.19 81.9428 51.2396 82.4749 51.3396V50.8374C82.5187 50.0653 82.5634 49.3933 82.6081 48.8222C82.6519 48.2511 82.6857 47.7393 82.7085 47.2857C82.7304 46.8327 82.7414 46.4131 82.7414 46.0266C82.7414 45.641 82.7414 45.2632 82.7414 44.8932C82.7414 43.8855 82.7304 42.9789 82.7085 42.1728C82.6857 41.3667 82.6519 40.7621 82.6081 40.3591V39.8555C82.6081 39.587 82.8518 39.4525 83.3401 39.4525H83.7399V39.2004Z" fill="#DDDDDD"/>
<path d="M93.6889 66.3021C93.468 66.3352 93.2699 66.3526 93.0938 66.3526C92.9185 66.3526 92.7424 66.3526 92.5671 66.3526C92.3024 66.3526 92.0277 66.3526 91.7411 66.3526C91.4554 66.3526 91.2026 66.3352 90.9826 66.3021C90.8503 66.3021 90.6632 66.2939 90.4222 66.2774C90.1794 66.2599 90.0142 66.2516 89.9275 66.2516H89.3945C89.0677 66.2516 88.7747 66.2516 88.5182 66.2516C88.2618 66.2516 88.1093 66.2186 88.0637 66.1516V64.0858C88.0637 63.5487 88.0527 62.9694 88.0308 62.3479C88.008 61.7272 87.9971 61.1139 87.9971 60.5089V57.739C87.9971 57.369 88.008 57.0329 88.0308 56.7309C88.0527 56.4288 88.0637 56.1268 88.0637 55.8247V54.3126C88.0637 53.6754 88.0527 53.1044 88.0308 52.6003C88.008 52.0963 87.9971 51.6262 87.9971 51.1901V47.3111L88.0637 40.0066C88.1093 39.9061 88.2262 39.8304 88.4124 39.7799C88.5976 39.7298 88.7838 39.7046 88.971 39.7046L89.5277 39.7551L89.4611 42.0219V52.3488C90.518 52.1137 91.3322 51.9962 91.9036 51.9962C92.5635 51.9962 93.2353 52.0798 93.9171 52.2478C94.5998 52.4158 95.2268 52.7188 95.7982 53.1539C96.3705 53.591 96.8442 54.196 97.2184 54.9681C97.5926 55.7412 97.7798 56.7144 97.7798 57.8895L97.8455 61.7685C97.8455 62.6426 97.7241 63.3642 97.4831 63.9343C97.2403 64.5063 96.9327 64.9599 96.5585 65.295C96.1843 65.631 95.7444 65.8743 95.2387 66.0249C94.733 66.1764 94.2155 66.2682 93.6889 66.3021ZM89.3945 65.194L92.757 65.3455C94.1626 65.2785 95.141 64.8754 95.6905 64.1363C96.2391 63.3982 96.5147 62.2221 96.5147 60.6099C96.5147 59.6027 96.5028 58.6451 96.4818 57.739C96.4599 56.8319 96.3057 56.034 96.0209 55.3455C95.7352 54.6578 95.2633 54.1033 94.6034 53.6837C93.9444 53.2641 92.9779 53.0539 91.7028 53.0539C91.1314 53.0539 90.4286 53.2044 89.5944 53.5074V54.0105C89.5944 54.1115 89.5834 54.2125 89.5615 54.3126C89.5387 54.4136 89.5277 54.5146 89.5277 54.6156C89.5277 54.7156 89.5168 54.8258 89.4949 54.9424C89.472 55.0608 89.4611 55.1692 89.4611 55.2702C89.4164 55.6402 89.3835 56.1607 89.3616 56.8319C89.3388 57.5039 89.3278 58.5111 89.3278 59.8543V62.0201L89.3945 64.5899V65.194Z" fill="#DDDDDD"/>
<path d="M9.77621 84.4309V84.7191C9.77621 84.8064 9.79492 84.878 9.83371 84.9358C9.79492 85.0423 9.6758 85.1387 9.47592 85.225C9.31573 85.225 9.22035 85.1791 9.19023 85.0873C9.16011 84.9964 9.14551 84.8826 9.14551 84.7485V84.2426C9.14551 84.1462 9.14551 84.0526 9.14551 83.9608C9.14551 83.869 9.13592 83.7854 9.11675 83.7083C9.11675 83.6596 9.11219 83.6165 9.10261 83.5779C9.09257 83.5394 9.088 83.5054 9.088 83.4769V83.3181C8.68686 83.3181 8.28069 83.3154 7.86996 83.3108C7.45877 83.3062 7.05306 83.3034 6.65192 83.3034C6.55608 83.3034 6.45568 83.3034 6.35071 83.3034C6.24575 83.3034 6.13576 83.2988 6.02122 83.2887C5.90667 83.2795 5.79166 83.2722 5.67711 83.2676C5.56257 83.2621 5.46673 83.2603 5.39052 83.2603C5.33301 83.2603 5.27597 83.2621 5.21847 83.2676C5.16142 83.2722 5.09388 83.2795 5.01812 83.2887V83.3034C5.03683 83.3034 4.97477 83.308 4.83147 83.3181C4.68817 83.3273 4.50197 83.342 4.27287 83.3613L4.07207 83.4044C3.86169 83.4044 3.75672 83.2841 3.75672 83.0436C3.75672 82.9959 3.76128 82.9472 3.77087 82.8995C3.78045 82.8508 3.78547 82.8031 3.78547 82.7544C3.80418 82.6874 3.81422 82.613 3.81422 82.5304C3.81422 82.4487 3.81422 82.355 3.81422 82.2485V81.8877L3.75672 81.2524V79.071C3.75672 78.8488 3.7517 78.6615 3.74257 78.5072C3.73253 78.353 3.72797 78.2089 3.72797 78.0739C3.7088 77.9105 3.69922 77.691 3.69922 77.4165C3.69922 77.142 3.69922 76.8124 3.69922 76.4268C3.69922 76.2248 3.71839 76.0945 3.75672 76.0366V75.5023C3.7946 75.483 3.88085 75.4729 4.01457 75.4729C4.18662 75.4729 4.29158 75.4977 4.32992 75.5454L4.30117 75.9641V76.1808C4.30117 76.2873 4.31075 76.4121 4.32992 76.5572C4.34863 76.8941 4.36825 77.3054 4.38742 77.792C4.40613 78.2786 4.41617 78.734 4.41617 79.1573V79.5181C4.41617 79.6145 4.41115 79.7283 4.40157 79.8578C4.39198 79.9881 4.38742 80.1203 4.38742 80.2553C4.36825 80.4096 4.35867 80.561 4.35867 80.7107V81.1073V81.3818C4.35867 81.4305 4.36323 81.481 4.37282 81.5342C4.3824 81.5866 4.38742 81.6472 4.38742 81.7142V81.7289C4.40613 81.8354 4.41617 81.9501 4.41617 82.0759V82.4946V82.6966C4.41617 82.6966 4.40613 82.8177 4.38742 82.8848V83.0583H5.87792C6.08785 83.0482 6.38403 83.0408 6.76646 83.0363C7.14844 83.0317 7.50167 83.0289 7.82706 83.0289H7.97036V82.8701C7.97036 82.0227 7.97492 81.1753 7.98451 80.3278C7.99409 79.4804 7.99911 78.6321 7.99911 77.7847C7.99911 77.6984 7.99409 77.6093 7.98451 77.5175C7.97492 77.4257 7.97036 77.3275 7.97036 77.221C7.97036 77.0291 7.97036 76.8335 7.97036 76.6361C7.97036 76.4387 7.95119 76.2726 7.91286 76.1376V76.066C7.81702 75.9889 7.76956 75.9118 7.76956 75.8346C7.76956 75.786 7.79329 75.7144 7.84121 75.618C7.88867 75.5216 7.98907 75.4729 8.14241 75.4729C8.27567 75.4729 8.37607 75.5748 8.44316 75.7768C8.51024 75.9788 8.55816 76.2074 8.58646 76.4626C8.61521 76.7179 8.63392 76.9611 8.64396 77.1925C8.65354 77.4239 8.65811 77.568 8.65811 77.6259V78.3558C8.65811 78.5238 8.66769 78.6899 8.68686 78.8543C8.68686 78.9892 8.69644 79.1453 8.71561 79.3234C8.73432 79.5015 8.74892 79.7375 8.75851 80.0313C8.76809 80.3251 8.77722 80.7006 8.78726 81.1578C8.79684 81.6159 8.8014 82.1907 8.8014 82.8848V83.0289H9.0086C9.06701 83.0289 9.13638 83.0344 9.21487 83.0436C9.29382 83.0528 9.42161 83.0776 9.59868 83.1161V83.1299C9.65801 83.1299 9.70227 83.1666 9.73194 83.2382C9.7616 83.3108 9.77621 83.443 9.77621 83.6358C9.77621 83.7606 9.77118 83.8552 9.76206 83.9176C9.75202 83.9801 9.74745 84.0306 9.74745 84.0691V84.1848V84.2784C9.74745 84.2784 9.75704 84.373 9.77621 84.4309Z" fill="#DDDDDD"/>
<path d="M13.2613 83.2602C13.1459 83.2694 13.0395 83.2749 12.9437 83.2749C12.8474 83.2749 12.7511 83.2749 12.6553 83.2749C12.5206 83.2749 12.4097 83.2722 12.3235 83.2676C12.2372 83.2621 12.1455 83.2556 12.0497 83.2455C11.973 83.2364 11.9004 83.229 11.8329 83.2244C11.7658 83.2189 11.6841 83.2171 11.5878 83.2171H11.3573C11.0301 83.2171 10.8375 83.1712 10.78 83.0794C10.7221 82.9885 10.6938 82.8508 10.6938 82.668V81.6425C10.6938 81.2955 10.6888 80.9824 10.6792 80.7033C10.6696 80.4242 10.665 80.1635 10.665 79.9229V79.0562C10.665 78.8056 10.665 78.577 10.665 78.3695C10.665 78.1629 10.6742 77.9582 10.6938 77.7562V77.669C10.6938 77.6405 10.6888 77.6065 10.6792 77.568C10.6696 77.5294 10.665 77.4862 10.665 77.4376L10.6938 75.5454C10.6938 75.5261 10.7367 75.5096 10.8225 75.4949C10.9087 75.4802 10.9895 75.4728 11.0662 75.4728L11.2957 75.4875C11.6777 75.449 12.0214 75.4297 12.3276 75.4297C12.5754 75.4297 12.8433 75.4444 13.1299 75.4728C13.4169 75.5022 13.6839 75.5674 13.9326 75.6684C14.1809 75.7694 14.3863 75.9117 14.5487 76.0944C14.7112 76.2771 14.802 76.5232 14.8212 76.8316V77.1199C14.8399 77.265 14.8499 77.3926 14.8499 77.5028V77.7121C14.8499 77.7415 14.8545 77.7635 14.8641 77.7773C14.8737 77.792 14.8787 77.8232 14.8787 77.8719C14.8787 78.1702 14.7924 78.4374 14.6208 78.6734C14.4488 78.9093 14.2288 79.0709 13.9614 79.1572V79.1857L13.8468 79.2435V79.4602L14.3625 79.6337C14.5154 79.7788 14.6715 79.9449 14.8321 80.1322C14.9919 80.3204 15.0827 80.539 15.1041 80.7896L15.1365 81.4828C15.1365 81.8298 15.0932 82.1144 15.0065 82.3357C14.9198 82.557 14.7997 82.7332 14.6459 82.8627C14.4921 82.9931 14.295 83.0867 14.0545 83.1445C13.814 83.2024 13.5497 83.2409 13.2613 83.2602ZM11.3528 77.1548V77.4459C11.3528 77.5322 11.3432 77.6249 11.324 77.7213V77.736C11.324 77.9288 11.3286 78.1197 11.3386 78.3089C11.3478 78.498 11.3528 78.689 11.3528 78.8818V79.0268L12.1555 79.0847C12.213 79.0847 12.2559 79.0874 12.2847 79.092C12.313 79.0975 12.3463 79.0994 12.3846 79.0994C12.423 79.0994 12.4608 79.1021 12.4996 79.1067C12.5375 79.1113 12.5754 79.1141 12.6142 79.1141C13.2253 79.1141 13.6506 78.9782 13.8897 78.7073C14.1284 78.4365 14.248 78.0784 14.248 77.6341V77.6194C14.2288 77.5423 14.2192 77.4596 14.2192 77.3724C14.2192 77.2852 14.2192 77.1934 14.2192 77.097C14.2192 76.8748 14.1809 76.6811 14.1047 76.5167C14.028 76.3524 13.8468 76.1926 13.5602 76.0375V76.009L13.3307 75.9503C13.0628 75.8924 12.8579 75.8493 12.7146 75.8199C12.5713 75.7914 12.4321 75.7721 12.2988 75.762C12.2605 75.7721 12.1697 75.7795 12.0264 75.7841C11.8831 75.7887 11.7731 75.796 11.6969 75.8052L11.3528 75.8346V77.1548ZM11.3528 82.7259V82.87L12.213 82.9279C12.2701 82.938 12.3321 82.9426 12.3992 82.9426H12.5567H12.815C13.4836 82.9426 13.9326 82.8388 14.1622 82.6313C14.3913 82.4247 14.5058 82.0805 14.5058 81.5985V81.2083C14.5058 81.0164 14.4816 80.8135 14.4342 80.6023C14.3863 80.3902 14.2859 80.1974 14.1334 80.0239C13.9801 79.8504 13.7702 79.7062 13.5027 79.5906C13.2348 79.4749 12.9008 79.417 12.4996 79.417H12.2988C12.1843 79.417 12.0597 79.4225 11.926 79.4317C11.7923 79.4418 11.6202 79.4703 11.4103 79.518V79.6631C11.4103 79.6915 11.4002 79.7209 11.3815 79.7494C11.3624 79.7788 11.3528 79.8072 11.3528 79.8366C11.3336 80 11.324 80.1616 11.324 80.3204C11.324 80.4793 11.324 80.6455 11.324 80.819V81.9602L11.3528 82.7259Z" fill="#DDDDDD"/>
<path d="M19.8372 81.6425C19.9517 81.6994 20.0092 81.8151 20.0092 81.9887C20.0092 82.2779 19.9663 82.5065 19.8801 82.6754C19.7943 82.8434 19.6747 82.9765 19.5218 83.072C19.3685 83.1684 19.1873 83.2336 18.9774 83.2676C18.7666 83.3006 18.5375 83.3273 18.2892 83.3465C17.9259 83.3465 17.5535 83.2869 17.1716 83.1666C16.7891 83.0463 16.5217 82.8076 16.3688 82.4514L16.3401 82.3642C16.2442 82.2485 16.168 82.0419 16.111 81.7435C16.0535 81.4451 16.0106 81.1128 15.9818 80.7465C15.9531 80.3801 15.9339 80.0028 15.9248 79.6126C15.9147 79.2224 15.9102 78.8827 15.9102 78.5935C15.9102 77.9967 15.9485 77.4954 16.0247 77.0915C16.1009 76.6866 16.2205 76.3616 16.383 76.1164C16.5454 75.8704 16.7458 75.695 16.9849 75.5885C17.224 75.4829 17.5152 75.4297 17.8593 75.4297C18.2604 75.4297 18.5854 75.4829 18.8341 75.5885C19.0819 75.695 19.2781 75.8777 19.4214 76.1375C19.5647 76.3974 19.6697 76.7545 19.7368 77.2071C19.8034 77.6598 19.8559 78.2327 19.8947 78.9258C19.8372 79.0222 19.6651 79.0709 19.3785 79.0709C19.3019 79.0709 19.1253 79.0709 18.8482 79.0709C18.5712 79.0709 18.0692 79.0562 17.3436 79.0268C17.1903 79.0268 17.052 79.0268 16.9279 79.0268C16.8033 79.0268 16.6937 79.0369 16.5984 79.0562V79.2729C16.5984 79.3399 16.5933 79.4051 16.5838 79.4675C16.5742 79.5309 16.5696 79.5906 16.5696 79.6484C16.5696 80.2167 16.5883 80.7106 16.6267 81.1293C16.665 81.548 16.7458 81.8978 16.8704 82.1769C16.9945 82.456 17.1857 82.6653 17.4435 82.8049C17.7019 82.9444 18.0601 83.0142 18.5187 83.0142C18.6908 83.0142 18.8145 82.9977 18.8911 82.9637C18.9674 82.9306 19.0299 82.8746 19.0778 82.7975C19.1253 82.7213 19.1732 82.6148 19.2211 82.4798C19.2686 82.3449 19.3402 82.1815 19.436 81.9887V81.9308C19.4931 81.7867 19.6268 81.705 19.8372 81.6857V81.6425ZM16.9708 76.2248C16.8174 76.4653 16.7129 76.7132 16.6554 76.9684C16.5984 77.2237 16.5696 77.4954 16.5696 77.7846V78.218C16.5696 78.218 16.5787 78.4879 16.5984 78.6229V78.7523H17.2432C17.4819 78.7523 17.7635 78.7624 18.0889 78.7817C18.2413 78.7817 18.4421 78.7771 18.6908 78.767C18.9386 78.7578 19.0919 78.7523 19.1494 78.7523V78.6082C19.1494 77.9728 19.1253 77.467 19.0778 77.0915C19.0299 76.716 18.9532 76.4295 18.8482 76.2321C18.7428 76.0347 18.6141 75.9089 18.4612 75.8557C18.3084 75.8034 18.1363 75.7767 17.9456 75.7767H17.8023C17.6489 75.796 17.5056 75.8318 17.3719 75.8851C17.2382 75.9383 17.1045 76.0467 16.9708 76.2101V76.2248Z" fill="#DDDDDD"/>
<path d="M25.5985 75.7005V75.7464C25.5985 75.7666 25.5885 75.7767 25.5698 75.7767C25.3589 75.7575 25.1636 75.7474 24.982 75.7474C24.8004 75.7474 24.6237 75.7474 24.4517 75.7474C24.2796 75.7474 24.103 75.7428 23.9214 75.7336C23.7398 75.7235 23.544 75.7143 23.334 75.7042V75.863C23.334 75.9108 23.324 75.9493 23.3053 75.9787V76.0219C23.3053 76.0411 23.3003 76.0558 23.2907 76.065C23.2811 76.0742 23.2765 76.0889 23.2765 76.1082V76.3533C23.2765 76.401 23.2811 76.4543 23.2907 76.5121C23.3003 76.57 23.3053 76.6655 23.3053 76.8004C23.3053 77.0795 23.3003 77.298 23.2907 77.456C23.2811 77.6148 23.2765 77.747 23.2765 77.8526V78.1849C23.2765 78.2905 23.2811 78.4301 23.2907 78.6027C23.3003 78.7753 23.324 79.0351 23.3623 79.3812V82.568C23.3623 82.7314 23.324 82.8801 23.2478 83.0151C23.1711 83.1491 23.0566 83.2171 22.9037 83.2171C22.7508 83.2171 22.6746 83.2217 22.6746 83.2309C22.7125 82.9811 22.7362 82.6543 22.7462 82.2503C22.7558 81.8473 22.7604 81.4672 22.7604 81.1119C22.7604 80.8621 22.7604 80.6308 22.7604 80.4196C22.7604 80.2084 22.7412 80.0019 22.7033 79.7999C22.6842 79.5786 22.6696 79.3546 22.6604 79.1287C22.6504 78.9029 22.6458 78.6458 22.6458 78.3575C22.6458 78.1657 22.6504 77.9756 22.6604 77.7883C22.6696 77.601 22.6746 77.4156 22.6746 77.2329V76.1798C22.6746 76.0549 22.6646 75.942 22.6458 75.841C22.6267 75.7409 22.55 75.6895 22.4167 75.6895C22.378 75.6895 22.3255 75.6923 22.2588 75.6969C22.1918 75.7024 22.1105 75.7097 22.0151 75.7189C21.8239 75.7382 21.5998 75.7547 21.3415 75.7694C21.0837 75.7841 20.8687 75.7859 20.6967 75.7767C20.5246 75.7767 20.4197 75.6895 20.3813 75.5169C20.4001 75.4591 20.5721 75.4297 20.8975 75.4297H21.0408C21.0978 75.4297 21.1453 75.4352 21.1841 75.4444C21.3174 75.4545 21.4707 75.4637 21.6427 75.4728C21.8148 75.4829 21.9868 75.4875 22.1584 75.4875H22.7604H23.5056C23.5056 75.4875 24.1551 75.4728 24.7095 75.4444C24.8624 75.4444 25.0345 75.449 25.2257 75.4591C25.4165 75.4682 25.5219 75.4976 25.541 75.5454L25.5985 75.7005Z" fill="#DDDDDD"/>
<path d="M32.7353 78.464C32.7737 78.6467 32.807 78.8423 32.8357 79.0488C32.8645 79.2563 32.8786 79.4803 32.8786 79.7209C32.8786 79.8458 32.8741 79.9715 32.8645 80.0964C32.8544 80.2213 32.8403 80.3663 32.8216 80.5297C32.7851 80.7997 32.7266 81.0788 32.645 81.368C32.5637 81.6563 32.4501 81.9501 32.3054 82.2484C32.1142 82.6148 31.8084 82.9012 31.3881 83.1087C30.9678 83.3153 30.4517 83.419 29.8406 83.419H29.5252C28.4546 83.2455 27.6477 82.8507 27.1028 82.2347C26.5584 81.6177 26.2476 80.7372 26.1714 79.5905V79.1287C26.1714 78.9359 26.1901 78.7596 26.2284 78.6008C26.2663 78.442 26.3329 78.2611 26.4279 78.0591C26.5803 77.6937 26.7706 77.3292 26.9992 76.9684C27.2274 76.6076 27.5127 76.2918 27.8554 76.0218C28.0074 75.9163 28.2638 75.7914 28.6257 75.6463C28.9301 75.5499 29.2537 75.5022 29.5964 75.5022C30.1094 75.5022 30.5571 75.6179 30.9377 75.8492C31.1462 75.9548 31.3128 76.0678 31.4365 76.188C31.5602 76.3092 31.6702 76.4368 31.7651 76.5709C32.2406 77.1199 32.5646 77.7506 32.7353 78.464ZM32.2484 79.5905C32.2484 79.3307 32.2246 79.0608 32.1772 78.7817C32.1297 78.5026 32.0677 78.2372 31.9914 77.9866C31.8965 77.7947 31.8062 77.6111 31.7208 77.4376C31.635 77.265 31.5447 77.1107 31.4497 76.9758C31.3922 76.8986 31.3119 76.8123 31.2074 76.7159C31.1024 76.6195 31.0221 76.5332 30.9651 76.4552V76.4414C30.4704 76.0173 30.024 75.8052 29.6252 75.8052C29.4915 75.8052 29.3491 75.8245 29.1971 75.863C29.0451 75.9016 28.874 75.9548 28.6841 76.0218C28.5317 76.0898 28.2752 76.2964 27.9143 76.6434V76.6581L27.629 77.0483C27.5336 77.1631 27.4483 77.2787 27.3721 77.3944C27.2959 77.5101 27.2206 77.6359 27.1444 77.7699V77.7846C26.9919 78.083 26.897 78.3896 26.8591 78.7018C26.8208 79.0149 26.8021 79.3307 26.8021 79.6484C26.8021 79.9568 26.8395 80.2598 26.9157 80.5582C26.9919 80.8575 27.106 81.1458 27.2585 81.4258C27.7144 82.2925 28.456 82.8076 29.4828 82.971C29.5202 82.9811 29.5773 82.9857 29.653 82.9857H29.8242C30.1094 82.9857 30.3754 82.9517 30.6228 82.8847C30.8701 82.8177 31.0979 82.6965 31.3073 82.523C31.6113 82.2347 31.8349 81.8537 31.9773 81.3817C32.1197 80.9098 32.21 80.3801 32.2484 79.7925V79.5905Z" fill="#DDDDDD"/>
<path d="M37.8952 78.6514C37.8952 78.7285 37.8902 78.801 37.8806 78.868C37.871 78.936 37.8665 79.0076 37.8665 79.0847V79.5181V80.0671C37.8665 80.0671 37.8761 80.2893 37.8952 80.3857C37.8952 80.472 37.8998 80.5711 37.9094 80.6813C37.919 80.7924 37.924 80.9677 37.924 81.2083C37.924 81.2863 37.919 81.3726 37.9094 81.469C37.8998 81.5654 37.8952 81.6664 37.8952 81.772V82.7397C37.8952 82.7599 37.8902 82.8003 37.8806 82.8627C37.871 82.9261 37.8614 82.9903 37.8523 83.0583C37.8423 83.1253 37.8186 83.1859 37.7807 83.2382C37.7419 83.2915 37.6944 83.3181 37.6374 83.3181C37.5799 83.3181 37.5082 83.2749 37.422 83.1877C37.3362 83.1014 37.2933 82.8893 37.2933 82.5524V82.1622C37.2933 82.0658 37.2978 81.9648 37.3074 81.8592C37.317 81.7527 37.322 81.6324 37.322 81.4975C37.322 81.0742 37.317 80.7006 37.3074 80.3783C37.2978 80.0551 37.2741 79.7109 37.2358 79.3454V79.3014C37.0254 79.552 36.8059 79.7549 36.5768 79.9082C36.3472 80.0625 36.0702 80.1396 35.7453 80.1396C35.0762 80.1396 34.5701 79.9037 34.226 79.4317C33.8824 78.9598 33.7103 78.319 33.7103 77.5102V77.1493C33.7103 76.8216 33.7103 76.5856 33.7103 76.4415C33.7103 76.2964 33.7003 76.1761 33.6816 76.0797C33.6816 76.0219 33.6766 75.9641 33.667 75.9062C33.6574 75.8493 33.6528 75.7621 33.6528 75.6464C33.6528 75.5114 33.7386 75.4444 33.9107 75.4444C34.1211 75.4444 34.2548 75.4949 34.3123 75.5968C34.3693 75.6978 34.3981 75.8263 34.3981 75.9806V76.1256L34.3693 77.0529C34.3693 77.411 34.3789 77.7562 34.3981 78.0895C34.4168 78.4228 34.4697 78.7156 34.556 78.9663C34.6418 79.2178 34.775 79.4207 34.9571 79.5759C35.1383 79.7301 35.3916 79.8073 35.7165 79.8073C36.0031 79.8073 36.2418 79.7154 36.4335 79.5318C36.6242 79.3482 36.7817 79.1306 36.9063 78.88C37.0304 78.6284 37.1162 78.3649 37.1641 78.0895C37.2116 77.814 37.2358 77.5891 37.2358 77.4156V77.0676C37.2358 76.9905 37.2358 76.8886 37.2358 76.7628C37.2358 76.638 37.2262 76.5067 37.207 76.3717C37.1879 76.2266 37.1737 76.0843 37.1641 75.9439C37.1545 75.8043 37.15 75.6712 37.15 75.5454C37.15 75.4683 37.1591 75.3985 37.1787 75.3361C37.1974 75.2736 37.2645 75.2424 37.3791 75.2424C37.6465 75.2424 37.809 75.3434 37.8665 75.5454C37.924 75.7474 37.9523 75.9641 37.9523 76.1954V76.7013C37.9523 76.7013 37.9523 77.1007 37.9523 77.3229C37.9523 77.5441 37.9477 77.77 37.9381 78.0013C37.9281 78.2327 37.9139 78.4494 37.8952 78.6514Z" fill="#DDDDDD"/>
<path d="M43.3981 75.4297C43.4744 75.6133 43.5319 75.8006 43.5702 75.9934C43.6081 76.1862 43.6277 76.3928 43.6277 76.615V76.9978C43.6277 77.1273 43.6177 77.265 43.5989 77.4091V77.4238C43.5798 77.5872 43.5652 77.7608 43.5561 77.9435C43.546 78.1271 43.5414 78.3144 43.5414 78.5072V78.6082V78.789C43.5414 78.789 43.5602 78.9258 43.5989 79.0121C43.5798 79.0608 43.5702 79.1104 43.5702 79.1636V79.3142C43.5702 79.5933 43.5843 79.8357 43.6131 80.0423C43.6418 80.2479 43.656 80.4958 43.656 80.7832V81.1724V81.7049C43.656 81.7334 43.6514 81.7628 43.6418 81.7912C43.6318 81.8206 43.6277 81.8537 43.6277 81.8922V82.0217C43.6277 82.0887 43.6318 82.1539 43.6418 82.2163C43.6514 82.2788 43.656 82.3338 43.656 82.3816V82.6552C43.656 82.7709 43.6656 82.8618 43.6847 82.9288C43.7035 82.9967 43.7035 83.0445 43.6847 83.0729C43.6656 83.1207 43.6464 83.1592 43.6277 83.1877C43.6081 83.2171 43.5319 83.2308 43.3981 83.2308C43.3023 83.2308 43.2165 83.229 43.1403 83.2244C43.0636 83.2189 43.0157 83.2116 42.997 83.2024L43.0258 81.3965C43.0258 81.1844 43.0157 80.9897 42.997 80.8116C42.9778 80.6335 42.9582 80.4334 42.9395 80.2121L42.8537 79.2297C42.6817 79.1811 42.5283 79.1526 42.3951 79.1425C42.2609 79.1333 42.1372 79.1287 42.0222 79.1287H41.7069C41.5923 79.1287 41.4536 79.126 41.2916 79.1214C41.1286 79.1159 40.9424 79.1287 40.7325 79.1572C40.675 79.1572 40.5746 79.1691 40.4313 79.193C40.288 79.2178 40.1972 79.2821 40.1593 79.3886V79.417C40.1593 79.4657 40.1639 79.5116 40.1735 79.5547C40.183 79.5979 40.1881 79.6392 40.1881 79.6768V79.8651C40.1881 80.0294 40.183 80.1515 40.1735 80.2332C40.1639 80.3159 40.1543 80.4187 40.1447 80.5445C40.1351 80.6693 40.1255 80.8383 40.116 81.0494C40.1064 81.2615 40.1018 81.5746 40.1018 81.9886V82.3504C40.1018 82.3504 40.1114 82.6249 40.1306 82.769C40.1306 82.8177 40.1255 82.8682 40.116 82.9205C40.1064 82.9738 40.0918 83.0289 40.0731 83.0867L39.9585 83.3327C39.901 83.3327 39.796 83.33 39.6432 83.3254C39.4898 83.3199 39.4141 83.2556 39.4141 83.1308C39.4141 83.016 39.4282 82.8792 39.457 82.7204C39.4857 82.5615 39.4999 82.3917 39.4999 82.209C39.4999 82.0364 39.4948 81.8831 39.4857 81.7481C39.4757 81.6141 39.4711 81.4846 39.4711 81.3597V80.4233C39.4711 80.2121 39.4661 79.9991 39.457 79.7833C39.4469 79.5667 39.4424 79.3482 39.4424 79.1278V77.8425C39.4424 77.7562 39.4469 77.6598 39.457 77.5533C39.4661 77.4477 39.4757 77.3421 39.4857 77.2356C39.4948 77.13 39.5044 77.0309 39.514 76.94C39.5236 76.8482 39.5286 76.7784 39.5286 76.7297V76.716C39.5286 76.6388 39.5236 76.5305 39.514 76.3909C39.5044 76.2514 39.5044 76.1109 39.514 75.9714C39.5236 75.8318 39.5473 75.7115 39.5861 75.6106C39.624 75.5096 39.7007 75.4591 39.8152 75.4591C39.9681 75.4591 40.0731 75.4783 40.1306 75.5169L40.0731 77.1631C40.0539 77.366 40.0489 77.5753 40.0589 77.792C40.068 78.0086 40.0635 78.2281 40.0443 78.4493V78.5935V78.7018C40.0443 78.7266 40.0635 78.7624 40.1018 78.8102V78.9111C40.4838 78.9111 40.8329 78.9047 41.1483 78.89C41.4636 78.8753 41.8118 78.868 42.1943 78.868C42.4042 78.868 42.6241 78.8827 42.8537 78.9111V78.767C42.8724 78.5457 42.8916 78.3529 42.9107 78.1895C42.9299 78.0252 42.9441 77.8783 42.9541 77.7488C42.9632 77.6185 42.9683 77.4982 42.9683 77.3871C42.9683 77.2769 42.9683 77.1686 42.9683 77.0621C42.9683 76.7738 42.9632 76.5131 42.9541 76.2826C42.9441 76.0512 42.9299 75.8777 42.9107 75.762V75.6179C42.9107 75.5408 43.0157 75.5022 43.2261 75.5022H43.3981V75.4297Z" fill="#DDDDDD"/>
<path d="M48.5289 80.5582C48.5289 80.7804 48.5435 81.0375 48.5723 81.3313C48.6006 81.6251 48.6152 81.8978 48.6152 82.1475C48.6152 82.3118 48.6006 82.4679 48.5723 82.6176C48.5435 82.7663 48.4618 82.8994 48.3286 83.0142C48.1944 83.1299 47.9941 83.2217 47.7266 83.2887C47.4587 83.3566 47.0859 83.3906 46.6085 83.3906H46.4652C46.1973 83.3612 45.9587 83.2942 45.7487 83.1886C45.5383 83.083 45.3617 82.9527 45.2184 82.7993C45.0751 82.6451 44.9647 82.4743 44.8889 82.287C44.8123 82.0997 44.7739 81.9152 44.7739 81.7316C44.7739 81.155 44.9423 80.6748 45.28 80.2902C45.6178 79.9055 46.2302 79.6319 47.1174 79.4684C47.1361 79.4684 47.189 79.4657 47.2757 79.4611C47.3629 79.4565 47.4542 79.44 47.5509 79.4106C47.6472 79.3821 47.7339 79.3289 47.8111 79.2518C47.8882 79.1756 47.927 79.0645 47.927 78.9203V77.7093C47.927 77.6993 47.9224 77.6901 47.9128 77.68C47.9028 77.6708 47.8987 77.6561 47.8987 77.6368V77.5652C47.8987 77.411 47.8786 77.2384 47.8403 77.0456C47.8019 76.8537 47.7485 76.6756 47.6815 76.5121C47.6135 76.3487 47.5267 76.2119 47.4204 76.1017C47.3145 75.9907 47.184 75.9356 47.0298 75.9356C46.9526 75.9356 46.8559 75.9576 46.7404 76.0008C46.624 76.0439 46.5081 76.0972 46.3927 76.1596C46.2767 76.222 46.1608 76.2945 46.0454 76.3763C45.929 76.458 45.8423 76.5333 45.7843 76.6003C45.7077 76.6673 45.6301 76.7297 45.5529 76.7876C45.4754 76.8454 45.3791 76.8748 45.2636 76.8748C45.1285 76.8748 45.0605 76.8124 45.0605 76.6866C45.0605 76.5131 45.1367 76.357 45.2901 76.2174C45.443 76.0779 45.6241 75.9585 45.8345 75.8594C46.0449 75.7602 46.2548 75.6849 46.4652 75.6353C46.6752 75.5848 46.8472 75.5601 46.9814 75.5601C47.2867 75.5601 47.5445 75.6298 47.7549 75.7694C47.9653 75.9089 48.1278 76.0972 48.2423 76.3331C48.3569 76.5691 48.4381 76.8454 48.486 77.1631C48.5335 77.4817 48.5577 77.8186 48.5577 78.1748C48.5577 78.3961 48.5527 78.6394 48.5435 78.9047C48.5335 79.1691 48.5289 79.4225 48.5289 79.6631V80.5582ZM47.603 82.9132C47.7787 82.8462 47.8909 82.7231 47.9398 82.545C47.9886 82.3669 48.0132 82.1723 48.0132 81.9602C48.0132 81.8638 48.0082 81.7288 47.9986 81.5553C47.989 81.3818 47.9795 81.2037 47.9703 81.021C47.9603 80.8383 47.9507 80.6721 47.9416 80.5224C47.9315 80.3737 47.927 80.2791 47.927 80.2406V79.7641C47.5359 79.7641 47.1347 79.8192 46.7244 79.9303C46.3137 80.0413 45.9719 80.2644 45.6981 80.6023V80.6161C45.6 80.7611 45.5265 80.9246 45.4776 81.1073C45.4288 81.2909 45.4046 81.4828 45.4046 81.6857C45.4046 81.8206 45.4192 81.9602 45.4484 82.1043C45.4776 82.2485 45.5411 82.3642 45.6392 82.4514V82.4651C45.8929 82.6681 46.0691 82.8149 46.1663 82.9058C46.264 82.9977 46.4598 83.0436 46.7527 83.0436H46.9289C46.9869 83.0436 47.0704 83.0344 47.1776 83.0142C47.2853 82.9958 47.4268 82.9618 47.603 82.9132Z" fill="#DDDDDD"/>
<path d="M51.2058 75.4444C51.2446 75.4352 51.3016 75.4297 51.3787 75.4297C51.4559 75.4297 51.5421 75.4297 51.6389 75.4297L53.1974 75.4875C53.4671 75.4875 53.6209 75.5362 53.6592 75.6326C53.698 75.7281 53.7071 75.8493 53.6884 75.9934V77.9728V79.1645C53.6884 79.1645 53.6784 79.8843 53.6597 80.1543C53.6597 80.3471 53.6547 80.5206 53.6455 80.6739C53.6355 80.8282 53.6309 80.9732 53.6309 81.1073V81.7435L53.5739 83.1739C53.5739 83.2116 53.5369 83.2382 53.4639 83.2529C53.3909 83.2676 53.3179 83.2749 53.2453 83.2749H52.9719C52.9719 83.1684 52.9669 83.0748 52.9573 82.9931C52.9477 82.9113 52.9432 82.8177 52.9432 82.7112C52.9432 82.6148 52.9432 82.4606 52.9432 82.2485C52.9432 82.0373 52.9477 81.8105 52.9573 81.57C52.9669 81.3294 52.9765 81.1054 52.9861 80.8979C52.9957 80.6914 53.0007 80.5445 53.0007 80.4572V80.2984C52.788 80.337 52.5562 80.3664 52.3052 80.3856C52.0542 80.4049 51.8707 80.4141 51.7548 80.4141H51.6101V80.5298C51.5134 80.7419 51.4317 80.9218 51.3641 81.0715C51.2961 81.2211 51.2386 81.3533 51.1903 81.469C51.1419 81.5847 51.0985 81.6903 51.0597 81.7867C51.0214 81.8831 50.9826 81.9795 50.9443 82.0759C50.906 82.22 50.8576 82.3697 50.7996 82.523C50.7412 82.6772 50.6449 82.9086 50.5103 83.2171C50.4719 83.2364 50.3556 83.2455 50.163 83.2455C49.9809 83.2455 49.8905 83.2171 49.8905 83.1592C49.9307 82.9187 50.0147 82.6341 50.1424 82.3063C50.2707 81.9795 50.4108 81.6471 50.5641 81.3102L50.9078 80.4866V80.3278C50.6595 80.2507 50.382 80.0652 50.0767 79.7714C49.771 79.4776 49.6181 79.0268 49.6181 78.42C49.6181 78.1895 49.6131 78.0087 49.6039 77.8783C49.5939 77.7488 49.5893 77.6478 49.5893 77.5753C49.5893 77.5028 49.5848 77.4523 49.5752 77.4238C49.5651 77.3944 49.561 77.3752 49.561 77.366V77.2934C49.561 76.9565 49.5943 76.6774 49.6614 76.4552C49.729 76.2339 49.8349 76.054 49.9791 75.9135C50.1233 75.774 50.2967 75.6711 50.4989 75.6032C50.7006 75.5362 50.9361 75.4875 51.2058 75.4591V75.4444ZM53.0865 75.7914L52.3047 75.7474C52.208 75.7382 52.0729 75.7336 51.899 75.7336C51.7256 75.7336 51.6001 75.7336 51.523 75.7336C50.9247 75.7336 50.5482 75.8823 50.3944 76.1807C50.2397 76.48 50.163 76.9372 50.163 77.5533L50.1913 78.1317C50.1913 78.3529 50.2109 78.577 50.2492 78.8028C50.2876 79.0296 50.3652 79.2343 50.4811 79.417C50.5965 79.6007 50.7704 79.7494 51.0022 79.8651C51.2336 79.9807 51.5522 80.0386 51.9574 80.0386C52.0542 80.0386 52.218 80.0267 52.4498 80.0028C52.6817 79.978 52.8747 79.9376 53.029 79.8798V79.7494L53.0577 79.5327C53.0764 79.3977 53.0865 79.2564 53.0865 79.1067C53.0865 78.9571 53.0865 78.8102 53.0865 78.666V75.7914Z" fill="#DDDDDD"/>
<path d="M59.0194 75.7044C59.0572 75.6851 59.1289 75.6686 59.2343 75.6539C59.3393 75.6392 59.4392 75.6328 59.5351 75.6328C59.6113 75.6328 59.6542 75.642 59.6642 75.6613C59.6738 75.6805 59.6879 75.7145 59.7071 75.7622C59.7454 75.8495 59.7883 75.9642 59.8363 76.1093C59.8837 76.2534 59.9554 76.4031 60.0512 76.5573C60.1845 76.7501 60.2949 76.9521 60.3807 77.1633C60.467 77.3754 60.5573 77.626 60.6532 77.9152C60.7485 78.2035 60.8681 78.5386 61.0114 78.9187C61.1547 79.2997 61.3313 79.7404 61.5417 80.2408L61.7425 80.6603L61.7713 80.6456L62.7456 77.9152C62.7835 77.8087 62.8314 77.6646 62.8889 77.4819C62.9464 77.2992 63.0034 77.1008 63.0609 76.8897C63.0988 76.7253 63.1467 76.5665 63.2042 76.4123C63.2617 76.2589 63.3092 76.1185 63.3475 75.9936C63.405 75.8495 63.4525 75.7099 63.4908 75.575C63.5287 75.575 63.6246 75.5814 63.7774 75.5961C63.9303 75.6108 64.0257 75.6328 64.064 75.6613L64.2073 75.7338V75.7622C64.3223 75.8586 64.394 75.9358 64.4223 75.9936C64.451 76.0514 64.4844 76.1671 64.5227 76.3407C64.4844 76.7253 64.451 77.1229 64.4223 77.5324C64.394 77.9418 64.3794 78.3632 64.3794 78.7966C64.3794 79.0564 64.384 79.3043 64.394 79.5402C64.4031 79.7762 64.4177 80.0195 64.4369 80.2701C64.4556 80.5685 64.4748 80.8862 64.4939 81.2231C64.5131 81.561 64.5227 81.9503 64.5227 82.3937C64.5227 82.5865 64.5085 82.76 64.4798 82.9134C64.451 83.0676 64.3698 83.1447 64.2361 83.1447C64.007 83.1447 63.892 83.1062 63.892 83.0291C63.892 82.9905 63.8966 82.9501 63.9066 82.906C63.9157 82.8629 63.9207 82.8179 63.9207 82.7692C63.9207 82.7398 63.9253 82.6921 63.9353 82.6251C63.9445 82.5571 63.9495 82.4828 63.9495 82.4011C63.9495 82.3194 63.9495 82.2395 63.9495 82.1624C63.9495 82.0852 63.9495 82.0274 63.9495 81.9888C63.9495 81.9025 63.9395 81.7318 63.9207 81.4765C63.9016 81.2213 63.8874 80.9128 63.8778 80.5511C63.8678 80.1903 63.8587 79.7909 63.8491 79.352C63.8395 78.9141 63.8349 78.4642 63.8349 78.0015V77.4819C63.8349 77.3368 63.8299 77.1972 63.8203 77.0623C63.8108 76.9282 63.8158 76.774 63.8349 76.6005V76.5711C63.7008 76.9668 63.5529 77.39 63.3904 77.8427C63.228 78.2953 63.0609 78.7461 62.8889 79.1932C62.7168 79.6412 62.5402 80.07 62.3586 80.4795C62.177 80.8889 61.9903 81.2378 61.7995 81.527C61.5513 81.3241 61.3505 81.0717 61.1976 80.7687C61.0447 80.4648 60.9014 80.1545 60.7677 79.8368C60.7294 79.7211 60.6819 79.5981 60.6244 79.4677C60.5674 79.3383 60.5099 79.2152 60.4524 79.0996C60.3378 78.7241 60.2087 78.3366 60.0654 77.9363C59.9221 77.5369 59.7737 77.1972 59.6213 76.9181V76.9613C59.6213 77.2028 59.6259 77.4405 59.6355 77.6765C59.645 77.9124 59.6501 78.1512 59.6501 78.3917V78.8755C59.6501 78.8755 59.6592 79.1859 59.6784 79.3309C59.6975 79.5715 59.7117 79.8028 59.7217 80.0241C59.7308 80.2463 59.7359 80.4767 59.7359 80.7173L59.6213 83.231C59.6213 83.2411 59.5638 83.2485 59.4493 83.2531C59.3347 83.2577 59.2485 83.2604 59.1914 83.2604C59.0381 83.2604 58.9619 83.1833 58.9619 83.0291C58.9619 82.962 58.9619 82.8941 58.9619 82.8271C58.9619 82.76 58.9714 82.6728 58.9906 82.5672V82.5526C59.0093 82.4084 59.0239 82.2441 59.0335 82.0614C59.0431 81.8787 59.0481 81.6666 59.0481 81.426C59.0668 81.3774 59.0764 81.303 59.0764 81.202C59.0764 81.1001 59.0764 80.978 59.0764 80.8329C59.0764 80.5254 59.0668 80.1636 59.0481 79.7496C59.0285 79.3355 59.0093 78.9453 58.9906 78.5799C58.9714 78.3293 58.9568 78.1053 58.9477 77.9079C58.9377 77.7105 58.9331 77.559 58.9331 77.4525C58.9331 76.8557 58.9619 76.2443 59.0194 75.6181V75.7044Z" fill="#DDDDDD"/>
<path d="M69.2233 80.5582C69.2233 80.7804 69.2379 81.0375 69.2666 81.3313C69.2949 81.6251 69.3095 81.8978 69.3095 82.1475C69.3095 82.3118 69.2949 82.4679 69.2666 82.6176C69.2379 82.7663 69.1562 82.8994 69.0229 83.0142C68.8887 83.1299 68.6884 83.2217 68.421 83.2887C68.1531 83.3566 67.7802 83.3906 67.3029 83.3906H67.1596C66.8917 83.3612 66.653 83.2942 66.4431 83.1886C66.2327 83.083 66.0561 82.9527 65.9128 82.7993C65.7695 82.6451 65.659 82.4743 65.5833 82.287C65.5066 82.0997 65.4683 81.9152 65.4683 81.7316C65.4683 81.155 65.6367 80.6748 65.9744 80.2902C66.3121 79.9055 66.9245 79.6319 67.8117 79.4684C67.8304 79.4684 67.8834 79.4657 67.9701 79.4611C68.0572 79.4565 68.1485 79.44 68.2453 79.4106C68.3416 79.3821 68.4283 79.3289 68.5054 79.2518C68.5825 79.1756 68.6213 79.0645 68.6213 78.9203V77.7093C68.6213 77.6993 68.6167 77.6901 68.6072 77.68C68.5971 77.6708 68.593 77.6561 68.593 77.6368V77.5652C68.593 77.411 68.5729 77.2384 68.5346 77.0456C68.4963 76.8537 68.4429 76.6756 68.3758 76.5121C68.3078 76.3487 68.2211 76.2119 68.1147 76.1017C68.0089 75.9907 67.8783 75.9356 67.7241 75.9356C67.647 75.9356 67.5502 75.9576 67.4348 76.0008C67.3184 76.0439 67.2025 76.0972 67.087 76.1596C66.9711 76.222 66.8552 76.2945 66.7397 76.3763C66.6233 76.458 66.5366 76.5333 66.4787 76.6003C66.402 76.6673 66.3244 76.7297 66.2473 76.7876C66.1697 76.8454 66.0734 76.8748 65.9579 76.8748C65.8229 76.8748 65.7549 76.8124 65.7549 76.6866C65.7549 76.5131 65.8311 76.357 65.9844 76.2174C66.1373 76.0779 66.3185 75.9585 66.5289 75.8594C66.7392 75.7602 66.9492 75.6849 67.1596 75.6353C67.3695 75.5848 67.5415 75.5601 67.6757 75.5601C67.981 75.5601 68.2389 75.6298 68.4493 75.7694C68.6596 75.9089 68.8221 76.0972 68.9367 76.3331C69.0512 76.5691 69.1324 76.8454 69.1804 77.1631C69.2278 77.4817 69.252 77.8186 69.252 78.1748C69.252 78.3961 69.247 78.6394 69.2379 78.9047C69.2278 79.1691 69.2233 79.4225 69.2233 79.6631V80.5582ZM68.2973 82.9132C68.473 82.8462 68.5853 82.7231 68.6341 82.545C68.6829 82.3669 68.7076 82.1723 68.7076 81.9602C68.7076 81.8638 68.7025 81.7288 68.693 81.5553C68.6834 81.3818 68.6738 81.2037 68.6647 81.021C68.6546 80.8383 68.645 80.6721 68.6359 80.5224C68.6259 80.3737 68.6213 80.2791 68.6213 80.2406V79.7641C68.2302 79.7641 67.8291 79.8192 67.4188 79.9303C67.008 80.0413 66.6662 80.2644 66.3924 80.6023V80.6161C66.2943 80.7611 66.2208 80.9246 66.172 81.1073C66.1232 81.2909 66.099 81.4828 66.099 81.6857C66.099 81.8206 66.1136 81.9602 66.1428 82.1043C66.172 82.2485 66.2354 82.3642 66.3335 82.4514V82.4651C66.5873 82.6681 66.7634 82.8149 66.8606 82.9058C66.9583 82.9977 67.1541 83.0436 67.4471 83.0436H67.6232C67.6812 83.0436 67.7647 83.0344 67.872 83.0142C67.9797 82.9958 68.1211 82.9618 68.2973 82.9132Z" fill="#DDDDDD"/>
<path d="M73.9246 81.6857C74.192 81.7243 74.3257 81.8207 74.3257 81.974C74.3257 82.1384 74.2778 82.3211 74.1824 82.523C74.0866 82.7259 73.9912 82.8802 73.8958 82.9858C73.7621 83.1299 73.59 83.2364 73.3801 83.3034C73.1693 83.3705 72.9306 83.4044 72.6632 83.4044C72.3003 83.4044 71.9613 83.342 71.6459 83.2171C71.3306 83.0923 71.0965 82.9187 70.9436 82.6966V82.6828C70.7715 82.4799 70.6661 82.254 70.6282 82.0034C70.5899 81.7528 70.5707 81.503 70.5707 81.2524V79.8798C70.5324 79.62 70.5137 79.362 70.5137 79.1068C70.5137 78.8515 70.5137 78.5844 70.5137 78.3053V77.5102C70.5324 77.2311 70.5707 76.94 70.6282 76.6361C70.6857 76.3332 70.829 76.0706 71.0581 75.8493V75.8346C71.1727 75.7098 71.3447 75.618 71.5743 75.5601C71.8034 75.5023 72.0516 75.4729 72.3195 75.4729C72.4528 75.4729 72.6536 75.483 72.9215 75.5023C73.1889 75.5216 73.3701 75.5408 73.4659 75.5601C73.6758 75.6464 73.8625 75.8034 74.025 76.0293C74.187 76.256 74.2687 76.4938 74.2687 76.7445C74.2687 76.8023 74.2586 76.851 74.2399 76.8895V76.9327C74.2399 76.9905 74.1824 77.019 74.0679 77.019H73.9246V77.0043C73.7908 76.9566 73.7096 76.8987 73.6809 76.8317C73.6521 76.7638 73.6279 76.6921 73.6092 76.615C73.6092 76.5957 73.6042 76.5856 73.5951 76.5856C73.585 76.5856 73.5805 76.5765 73.5805 76.5572V76.5278C73.5042 76.2873 73.3655 76.1091 73.1652 75.9935C72.9644 75.8778 72.7681 75.8199 72.5774 75.8199H72.2908C71.7938 75.9549 71.4784 76.1863 71.3447 76.5131C71.211 76.8409 71.1444 77.2026 71.1444 77.5974V77.9288C71.1444 78.0353 71.1535 78.1409 71.1727 78.2474V78.5357C71.1918 78.7772 71.206 79.0397 71.216 79.3234C71.2251 79.6081 71.2302 79.8697 71.2302 80.1112V80.4362C71.2302 80.5372 71.2201 80.6455 71.2014 80.7612V81.3534C71.2014 81.5361 71.211 81.7169 71.2302 81.8951C71.2489 82.0732 71.3064 82.2439 71.4022 82.4083C71.5168 82.6387 71.6888 82.793 71.9179 82.8701C72.1475 82.9472 72.367 82.9858 72.5774 82.9858H72.6919C72.9215 82.9665 73.1026 82.8802 73.2368 82.7259C73.3701 82.5717 73.4846 82.3642 73.5805 82.1044V82.0759C73.5805 82.0566 73.585 82.0392 73.5951 82.0254C73.6042 82.0107 73.6092 81.9942 73.6092 81.974C73.6279 81.9171 73.6567 81.8537 73.6955 81.7867C73.7333 81.7197 73.81 81.6857 73.9246 81.6857Z" fill="#DDDDDD"/>
<path d="M80.0302 75.7005V75.7464C80.0302 75.7666 80.0201 75.7767 80.0014 75.7767C79.7906 75.7575 79.5953 75.7474 79.4136 75.7474C79.232 75.7474 79.0554 75.7474 78.8833 75.7474C78.7113 75.7474 78.5347 75.7428 78.353 75.7336C78.1714 75.7235 77.9756 75.7143 77.7657 75.7042V75.863C77.7657 75.9108 77.7556 75.9493 77.7369 75.9787V76.0219C77.7369 76.0411 77.7319 76.0558 77.7223 76.065C77.7127 76.0742 77.7082 76.0889 77.7082 76.1082V76.3533C77.7082 76.401 77.7127 76.4543 77.7223 76.5121C77.7319 76.57 77.7369 76.6655 77.7369 76.8004C77.7369 77.0795 77.7319 77.298 77.7223 77.456C77.7127 77.6148 77.7082 77.747 77.7082 77.8526V78.1849C77.7082 78.2905 77.7127 78.4301 77.7223 78.6027C77.7319 78.7753 77.7556 79.0351 77.794 79.3812V82.568C77.794 82.7314 77.7556 82.8801 77.6794 83.0151C77.6028 83.1491 77.4882 83.2171 77.3353 83.2171C77.1824 83.2171 77.1062 83.2217 77.1062 83.2309C77.1441 82.9811 77.1678 82.6543 77.1779 82.2503C77.1875 81.8473 77.192 81.4672 77.192 81.1119C77.192 80.8621 77.192 80.6308 77.192 80.4196C77.192 80.2084 77.1729 80.0019 77.135 79.7999C77.1158 79.5786 77.1012 79.3546 77.0921 79.1287C77.082 78.9029 77.0775 78.6458 77.0775 78.3575C77.0775 78.1657 77.082 77.9756 77.0921 77.7883C77.1012 77.601 77.1062 77.4156 77.1062 77.2329V76.1798C77.1062 76.0549 77.0962 75.942 77.0775 75.841C77.0583 75.7409 76.9816 75.6895 76.8484 75.6895C76.8096 75.6895 76.7571 75.6923 76.6905 75.6969C76.6234 75.7024 76.5422 75.7097 76.4468 75.7189C76.2556 75.7382 76.0315 75.7547 75.7732 75.7694C75.5153 75.7841 75.3004 75.7859 75.1283 75.7767C74.9563 75.7767 74.8513 75.6895 74.813 75.5169C74.8317 75.4591 75.0037 75.4297 75.3291 75.4297H75.4724C75.5295 75.4297 75.5769 75.4352 75.6157 75.4444C75.749 75.4545 75.9023 75.4637 76.0744 75.4728C76.2464 75.4829 76.4185 75.4875 76.5901 75.4875H77.192H77.9373C77.9373 75.4875 78.5867 75.4728 79.1412 75.4444C79.2941 75.4444 79.4661 75.449 79.6573 75.4591C79.8481 75.4682 79.9535 75.4976 79.9727 75.5454L80.0302 75.7005Z" fill="#DDDDDD"/>
<path d="M84.6727 81.6425C84.7877 81.6994 84.8452 81.8151 84.8452 81.9887C84.8452 82.2779 84.8023 82.5065 84.7156 82.6754C84.6298 82.8434 84.5102 82.9765 84.3578 83.072C84.2044 83.1684 84.0228 83.2336 83.8129 83.2676C83.602 83.3006 83.3729 83.3273 83.1247 83.3465C82.7614 83.3465 82.389 83.2869 82.0075 83.1666C81.6251 83.0463 81.3576 82.8076 81.2043 82.4514L81.176 82.3642C81.0802 82.2485 81.0035 82.0419 80.9469 81.7435C80.8894 81.4451 80.8465 81.1128 80.8173 80.7465C80.789 80.3801 80.7698 80.0028 80.7607 79.6126C80.7507 79.2224 80.7461 78.8827 80.7461 78.5935C80.7461 77.9967 80.7844 77.4954 80.8602 77.0915C80.9369 76.6866 81.0564 76.3616 81.2189 76.1164C81.3814 75.8704 81.5812 75.695 81.8204 75.5885C82.0595 75.4829 82.3507 75.4297 82.6948 75.4297C83.0964 75.4297 83.4213 75.4829 83.6696 75.5885C83.9178 75.695 84.1141 75.8777 84.2574 76.1375C84.4007 76.3974 84.5056 76.7545 84.5723 77.2071C84.6389 77.6598 84.6918 78.2327 84.7302 78.9258C84.6727 79.0222 84.5011 79.0709 84.2145 79.0709C84.1378 79.0709 83.9607 79.0709 83.6842 79.0709C83.4067 79.0709 82.9047 79.0562 82.1791 79.0268C82.0257 79.0268 81.8879 79.0268 81.7638 79.0268C81.6387 79.0268 81.5292 79.0369 81.4343 79.0562V79.2729C81.4343 79.3399 81.4288 79.4051 81.4197 79.4675C81.4097 79.5309 81.4051 79.5906 81.4051 79.6484C81.4051 80.2167 81.4243 80.7106 81.4626 81.1293C81.5009 81.548 81.5812 81.8978 81.7063 82.1769C81.8304 82.456 82.0212 82.6653 82.2795 82.8049C82.5378 82.9444 82.8956 83.0142 83.3547 83.0142C83.5263 83.0142 83.6504 82.9977 83.7271 82.9637C83.8028 82.9306 83.8658 82.8746 83.9133 82.7975C83.9607 82.7213 84.0091 82.6148 84.0566 82.4798C84.104 82.3449 84.1761 82.1815 84.272 81.9887V81.9308C84.3286 81.7867 84.4627 81.705 84.6727 81.6857V81.6425ZM81.8067 76.2248C81.6534 76.4653 81.5484 76.7132 81.4909 76.9684C81.4343 77.2237 81.4051 77.4954 81.4051 77.7846V78.218C81.4051 78.218 81.4142 78.4879 81.4343 78.6229V78.7523H82.0787C82.0787 78.7523 82.5989 78.7624 82.9248 78.7817C83.0772 78.7817 83.278 78.7771 83.5263 78.767C83.7745 78.7578 83.9279 78.7523 83.9854 78.7523V78.6082C83.9854 77.9728 83.9607 77.467 83.9133 77.0915C83.8658 76.716 83.7891 76.4295 83.6842 76.2321C83.5783 76.0347 83.4496 75.9089 83.2972 75.8557C83.1438 75.8034 82.9723 75.7767 82.7815 75.7767H82.6382C82.4849 75.796 82.3416 75.8318 82.2074 75.8851C82.0741 75.9383 81.9399 76.0467 81.8067 76.2101V76.2248Z" fill="#DDDDDD"/>
<path d="M90.4054 79.1572C90.4246 79.3592 90.4346 79.5712 90.4346 79.7925V80.4719V80.9484C90.4346 81.2954 90.3954 81.6306 90.3187 81.9528C90.2421 82.2751 90.0969 82.5615 89.8852 82.8122C89.7118 83.0141 89.4854 83.1564 89.2061 83.2382C88.9268 83.3199 88.6238 83.3612 88.2961 83.3612C88.0268 83.3612 87.7521 83.3346 87.4728 83.2822C87.1935 83.229 86.958 83.1491 86.7654 83.0435L86.7937 83.1445V83.9754C86.7937 83.9754 86.7937 84.5217 86.7937 84.7916C86.7937 85.0707 86.7983 85.3452 86.8083 85.6151C86.8175 85.8841 86.8229 86.1541 86.8229 86.424V87.1172C86.8229 87.3393 86.8129 87.5652 86.7937 87.7965C86.7937 87.825 86.7892 87.8617 86.7791 87.9049C86.77 87.948 86.7654 87.9894 86.7654 88.0279V88.2584C86.7654 88.3263 86.7554 88.3795 86.7362 88.4181L86.6504 88.4613C86.4597 88.4613 86.3255 88.4199 86.2488 88.3382C86.1731 88.2565 86.1347 88.1528 86.1347 88.0279V87.825C86.1347 87.7194 86.1393 87.5652 86.1493 87.3632C86.1585 87.1612 86.163 86.838 86.163 86.3955C86.2014 86.2027 86.2205 86.0072 86.2205 85.8098C86.2205 85.6124 86.2205 85.4177 86.2205 85.2249C86.2205 84.9651 86.216 84.7145 86.2059 84.4739C86.1968 84.2325 86.1731 83.9772 86.1347 83.7082L86.0891 81.7719L86.0197 79.8072L85.9622 79.2435V79.2297C85.9239 78.969 85.8956 78.7073 85.8764 78.442C85.8573 78.1776 85.8481 77.915 85.8481 77.6542C85.8481 77.4045 85.8618 77.1658 85.891 76.94C85.9193 76.7132 85.9914 76.4892 86.1055 76.2679V76.2532C86.2589 75.9456 86.54 75.7216 86.9516 75.5812C87.3624 75.4416 87.7777 75.3718 88.1984 75.3718C88.6183 75.3718 88.9049 75.4058 89.0582 75.4728C89.364 75.5885 89.6077 75.7473 89.7893 75.9502C89.971 76.1522 90.1042 76.379 90.1909 76.6287C90.2767 76.8794 90.3342 77.1493 90.3625 77.4376C90.3908 77.7268 90.4054 78.0206 90.4054 78.3189V79.1572ZM88.8209 82.8847C89.0327 82.8177 89.2015 82.702 89.3266 82.5376C89.4516 82.3742 89.5484 82.1814 89.6159 81.9602C89.6835 81.7389 89.7264 81.4974 89.7455 81.2376C89.7647 80.9778 89.7747 80.7124 89.7747 80.4425V79.9513C89.7747 79.798 89.7793 79.6511 89.7893 79.5116C89.7985 79.372 89.7939 79.2435 89.7747 79.1287C89.7556 79.0709 89.7464 78.9864 89.7464 78.8753C89.7464 78.7651 89.7464 78.6467 89.7464 78.5218C89.7464 78.3768 89.741 78.2235 89.7318 78.0591C89.7218 77.8957 89.7081 77.7341 89.6889 77.5753C89.6698 77.4164 89.6506 77.265 89.6314 77.1199C89.6123 76.9758 89.5931 76.8555 89.5739 76.7591C89.4772 76.4221 89.2992 76.1504 89.0391 75.9429C88.778 75.7354 88.5133 75.6326 88.2441 75.6326C88.1857 75.6326 88.1181 75.6326 88.0405 75.6326C87.9639 75.6326 87.8963 75.6372 87.8379 75.6463V75.661C87.6846 75.6996 87.5203 75.7767 87.3469 75.8924C87.1725 76.0081 86.99 76.1375 86.7974 76.2826C86.7198 76.3689 86.6568 76.4754 86.6085 76.6003C86.5601 76.7251 86.5272 76.8601 86.5081 77.0042C86.488 77.1493 86.4743 77.2962 86.4642 77.4449C86.4542 77.5946 86.4496 77.7323 86.4496 77.8571C86.4496 78.0784 86.4597 78.2951 86.4788 78.5072C86.4971 78.7192 86.5163 78.9258 86.5354 79.1287V79.1425C86.5546 79.2875 86.5692 79.4271 86.5792 79.5621C86.5884 79.697 86.5929 79.8311 86.5929 79.966C86.5929 80.0532 86.5975 80.1423 86.6075 80.2332C86.6167 80.325 86.6221 80.4141 86.6221 80.5004C86.6413 80.8088 86.665 81.1146 86.6943 81.4185C86.7225 81.7214 86.7956 82.0033 86.9115 82.2631V82.2778C87.0849 82.5184 87.2866 82.6965 87.5185 82.8122C87.7494 82.9278 87.9812 82.9857 88.213 82.9857C88.4056 82.9857 88.6083 82.9563 88.8209 82.8994V82.8847Z" fill="#DDDDDD"/>
<path d="M94.9055 81.6857C95.173 81.7243 95.3071 81.8207 95.3071 81.974C95.3071 82.1384 95.2588 82.3211 95.1638 82.523C95.068 82.7259 94.9722 82.8802 94.8772 82.9858C94.7431 83.1299 94.5715 83.2364 94.3615 83.3034C94.1507 83.3705 93.9116 83.4044 93.6441 83.4044C93.2818 83.4044 92.9422 83.342 92.6273 83.2171C92.3115 83.0923 92.0779 82.9187 91.9245 82.6966V82.6828C91.7529 82.4799 91.6471 82.254 91.6096 82.0034C91.5713 81.7528 91.5521 81.503 91.5521 81.2524V79.8798C91.5138 79.62 91.4946 79.362 91.4946 79.1068C91.4946 78.8515 91.4946 78.5844 91.4946 78.3053V77.5102C91.5138 77.2311 91.5521 76.94 91.6096 76.6361C91.6671 76.3332 91.8104 76.0706 92.0395 75.8493V75.8346C92.1536 75.7098 92.3261 75.618 92.5552 75.5601C92.7843 75.5023 93.0326 75.4729 93.3009 75.4729C93.4342 75.4729 93.635 75.483 93.9024 75.5023C94.1699 75.5216 94.3515 75.5408 94.4473 75.5601C94.6573 75.6464 94.8435 75.8034 95.0059 76.0293C95.1684 76.256 95.2496 76.4938 95.2496 76.7445C95.2496 76.8023 95.2396 76.851 95.2214 76.8895V76.9327C95.2214 76.9905 95.1638 77.019 95.0488 77.019H94.9055V77.0043C94.7723 76.9566 94.691 76.8987 94.6618 76.8317C94.6335 76.7638 94.6089 76.6921 94.5906 76.615C94.5906 76.5957 94.5852 76.5856 94.576 76.5856C94.566 76.5856 94.5614 76.5765 94.5614 76.5572V76.5278C94.4857 76.2873 94.3469 76.1091 94.1461 75.9935C93.9453 75.8778 93.7491 75.8199 93.5583 75.8199H93.2717C92.7752 75.9549 92.4594 76.1863 92.3261 76.5131C92.192 76.8409 92.1253 77.2026 92.1253 77.5974V77.9288C92.1253 78.0353 92.1345 78.1409 92.1536 78.2474V78.5357C92.1728 78.7772 92.1874 79.0397 92.1974 79.3234C92.2066 79.6081 92.2111 79.8697 92.2111 80.1112V80.4362C92.2111 80.5372 92.2011 80.6455 92.1828 80.7612V81.3534C92.1828 81.5361 92.192 81.7169 92.2111 81.8951C92.2303 82.0732 92.2878 82.2439 92.3836 82.4083C92.4977 82.6387 92.6702 82.793 92.8993 82.8701C93.1284 82.9472 93.3484 82.9858 93.5583 82.9858H93.6733C93.9024 82.9665 94.0841 82.8802 94.2182 82.7259C94.3515 82.5717 94.4656 82.3642 94.5614 82.1044V82.0759C94.5614 82.0566 94.566 82.0392 94.576 82.0254C94.5852 82.0107 94.5906 81.9942 94.5906 81.974C94.6089 81.9171 94.6381 81.8537 94.6764 81.7867C94.7148 81.7197 94.7914 81.6857 94.9055 81.6857Z" fill="#DDDDDD"/>
<path d="M100.867 82.5376C100.906 82.5863 100.954 82.656 101.011 82.7469C101.068 82.8387 101.126 82.9186 101.183 82.9856C101.145 83.1298 101.011 83.2023 100.781 83.2023C100.686 83.2023 100.595 83.1683 100.509 83.1013C100.424 83.0343 100.337 82.9498 100.251 82.8479C100.165 82.7469 100.089 82.6313 100.022 82.5018C99.9545 82.3714 99.8833 82.2392 99.8075 82.1043L99.552 81.5984C99.4005 81.3964 99.2544 81.1843 99.112 80.9631C98.9706 80.7418 98.8291 80.527 98.6876 80.3204C98.5452 80.1129 98.4129 79.921 98.2906 79.742C98.1683 79.5639 98.0587 79.417 97.9647 79.3013C97.9273 79.3013 97.8652 79.3591 97.7804 79.4748C97.6955 79.5905 97.6051 79.7016 97.5111 79.8072L97.2564 80.1111V80.168C97.2364 80.3608 97.2272 80.5967 97.2272 80.8768V81.6994V82.2199C97.2272 82.2199 97.2364 82.533 97.2564 82.668V82.7974C97.2564 82.8746 97.2364 82.9765 97.1989 83.1013C97.1597 83.2262 97.0839 83.2886 96.9689 83.2886C96.7654 83.2886 96.6376 83.195 96.5865 83.0077C96.5354 82.8195 96.5107 82.6386 96.5107 82.4651C96.5107 81.8297 96.5153 81.2688 96.5253 80.7822C96.5345 80.2965 96.539 79.865 96.539 79.4895V78.3483C96.539 78.0976 96.539 77.8883 96.539 77.7194C96.539 77.5514 96.5345 77.4091 96.5253 77.2934C96.5153 77.1777 96.5107 77.0841 96.5107 77.0115C96.5107 76.9399 96.5107 76.8747 96.5107 76.8169V76.311C96.5107 76.0796 96.5253 75.8896 96.5555 75.7409C96.5847 75.5912 96.6896 75.5168 96.8694 75.5168C96.9689 75.5168 97.0483 75.5628 97.1086 75.6536C97.1688 75.7455 97.1989 75.8538 97.1989 75.9787V76.1522C97.1989 76.1522 97.1889 76.2679 97.1697 76.3257V76.3404C97.1697 76.3973 97.1652 76.4579 97.156 76.5203C97.146 76.5837 97.1414 76.6388 97.1414 76.6865C97.1414 77.0528 97.136 77.3439 97.1268 77.5606C97.1168 77.7772 97.1122 77.9535 97.1122 78.0885V78.363V78.7743C97.1122 78.7743 97.1314 79.114 97.1697 79.3738V79.4317C97.4536 79.181 97.7338 78.8753 98.0085 78.5145C98.2833 78.1527 98.5534 77.7993 98.8181 77.4522V77.4375C98.8556 77.3898 98.8893 77.3494 98.9176 77.3154C98.9459 77.2814 98.9797 77.2355 99.0171 77.1777L99.4151 76.5855C99.5666 76.3257 99.7363 76.0824 99.9262 75.8556C100.116 75.6298 100.305 75.5168 100.495 75.5168C100.743 75.5168 100.867 75.5692 100.867 75.6757C100.867 75.7234 100.815 75.8033 100.71 75.9135C100.604 76.0246 100.505 76.1329 100.409 76.2385L100.122 76.5855L99.4634 77.4522L98.6894 78.464L98.4311 78.7669V78.8973L98.6894 79.2875C98.7844 79.4317 98.9039 79.6098 99.0472 79.8218C99.1905 80.0339 99.3484 80.2644 99.52 80.515C99.6925 80.7657 99.8641 81.0282 100.037 81.3028C100.208 81.5773 100.381 81.849 100.552 82.119C100.591 82.2053 100.638 82.2824 100.696 82.3503C100.753 82.4173 100.811 82.4798 100.867 82.5376ZM101.183 82.9278C101.241 83.0343 101.264 83.0848 101.254 83.0793C101.245 83.0747 101.221 83.0435 101.183 82.9856V82.971V82.9278Z" fill="#DDDDDD"/>
<path d="M105.597 80.5582C105.597 80.7804 105.612 81.0375 105.64 81.3313C105.668 81.6251 105.683 81.8978 105.683 82.1475C105.683 82.3118 105.668 82.4679 105.64 82.6176C105.612 82.7663 105.53 82.8994 105.397 83.0142C105.262 83.1299 105.062 83.2217 104.795 83.2887C104.527 83.3566 104.154 83.3906 103.677 83.3906H103.534C103.265 83.3612 103.027 83.2942 102.817 83.1886C102.606 83.083 102.43 82.9527 102.287 82.7993C102.143 82.6451 102.033 82.4743 101.957 82.287C101.881 82.0997 101.842 81.9152 101.842 81.7316C101.842 81.155 102.01 80.6748 102.348 80.2902C102.686 79.9055 103.298 79.6319 104.185 79.4684C104.204 79.4684 104.257 79.4657 104.344 79.4611C104.431 79.4565 104.522 79.44 104.619 79.4106C104.716 79.3821 104.802 79.3289 104.879 79.2518C104.957 79.1756 104.995 79.0645 104.995 78.9203V77.7093C104.995 77.6993 104.99 77.6901 104.981 77.68C104.971 77.6708 104.967 77.6561 104.967 77.6368V77.5652C104.967 77.411 104.947 77.2384 104.908 77.0456C104.87 76.8537 104.817 76.6756 104.749 76.5121C104.682 76.3487 104.595 76.2119 104.488 76.1017C104.382 75.9907 104.252 75.9356 104.098 75.9356C104.021 75.9356 103.924 75.9576 103.808 76.0008C103.692 76.0439 103.576 76.0972 103.461 76.1596C103.345 76.222 103.229 76.2945 103.114 76.3763C102.997 76.458 102.91 76.5333 102.853 76.6003C102.776 76.6673 102.698 76.7297 102.621 76.7876C102.543 76.8454 102.447 76.8748 102.332 76.8748C102.196 76.8748 102.129 76.8124 102.129 76.6866C102.129 76.5131 102.205 76.357 102.358 76.2174C102.511 76.0779 102.692 75.9585 102.903 75.8594C103.113 75.7602 103.323 75.6849 103.534 75.6353C103.744 75.5848 103.915 75.5601 104.049 75.5601C104.355 75.5601 104.612 75.6298 104.823 75.7694C105.033 75.9089 105.196 76.0972 105.311 76.3331C105.425 76.5691 105.506 76.8454 105.554 77.1631C105.602 77.4817 105.626 77.8186 105.626 78.1748C105.626 78.3961 105.621 78.6394 105.612 78.9047C105.602 79.1691 105.597 79.4225 105.597 79.6631V80.5582ZM104.671 82.9132C104.847 82.8462 104.959 82.7231 105.008 82.545C105.057 82.3669 105.082 82.1723 105.082 81.9602C105.082 81.8638 105.076 81.7288 105.067 81.5553C105.057 81.3818 105.048 81.2037 105.039 81.021C105.029 80.8383 105.019 80.6721 105.009 80.5224C104.999 80.3737 104.995 80.2791 104.995 80.2406V79.7641C104.604 79.7641 104.203 79.8192 103.793 79.9303C103.382 80.0413 103.04 80.2644 102.766 80.6023V80.6161C102.668 80.7611 102.594 80.9246 102.546 81.1073C102.497 81.2909 102.473 81.4828 102.473 81.6857C102.473 81.8206 102.488 81.9602 102.517 82.1043C102.546 82.2485 102.609 82.3642 102.708 82.4514V82.4651C102.961 82.6681 103.137 82.8149 103.234 82.9058C103.332 82.9977 103.528 83.0436 103.821 83.0436H103.997C104.055 83.0436 104.139 83.0344 104.246 83.0142C104.353 82.9958 104.495 82.9618 104.671 82.9132Z" fill="#DDDDDD"/>
<path d="M108.273 75.4444C108.312 75.4352 108.369 75.4297 108.447 75.4297H108.707L110.265 75.4875C110.535 75.4875 110.688 75.5362 110.727 75.6326C110.766 75.7281 110.775 75.8493 110.756 75.9934V77.9728V79.1645C110.756 79.1645 110.746 79.8843 110.728 80.1543C110.728 80.3471 110.722 80.5206 110.713 80.6739C110.703 80.8282 110.698 80.9732 110.698 81.1073V81.7435L110.642 83.1739C110.642 83.2116 110.604 83.2382 110.531 83.2529C110.458 83.2676 110.385 83.2749 110.313 83.2749H110.039C110.039 83.1684 110.035 83.0748 110.025 82.9931C110.016 82.9113 110.011 82.8177 110.011 82.7112C110.011 82.6148 110.011 82.4606 110.011 82.2485C110.011 82.0373 110.016 81.8105 110.025 81.57C110.035 81.3294 110.044 81.1054 110.054 80.8979C110.063 80.6914 110.069 80.5445 110.069 80.4572V80.2984C109.856 80.337 109.624 80.3664 109.373 80.3856C109.122 80.4049 108.939 80.4141 108.823 80.4141H108.678V80.5298C108.581 80.7419 108.5 80.9218 108.432 81.0715C108.364 81.2211 108.306 81.3533 108.258 81.469C108.209 81.5847 108.166 81.6903 108.127 81.7867C108.089 81.8831 108.05 81.9795 108.012 82.0759C107.974 82.22 107.925 82.3697 107.867 82.523C107.809 82.6772 107.713 82.9086 107.578 83.2171C107.539 83.2364 107.423 83.2455 107.231 83.2455C107.048 83.2455 106.958 83.2171 106.958 83.1592C106.998 82.9187 107.082 82.6341 107.21 82.3063C107.339 81.9795 107.478 81.6471 107.632 81.3102L107.976 80.4866V80.3278C107.727 80.2507 107.45 80.0652 107.144 79.7714C106.838 79.4776 106.686 79.0268 106.686 78.42C106.686 78.1895 106.68 78.0087 106.671 77.8783C106.661 77.7488 106.657 77.6478 106.657 77.5753C106.657 77.5028 106.652 77.4523 106.643 77.4238C106.633 77.3944 106.628 77.3752 106.628 77.366V77.2934C106.628 76.9565 106.662 76.6774 106.729 76.4552C106.796 76.2339 106.902 76.054 107.046 75.9135C107.191 75.774 107.364 75.6711 107.567 75.6032C107.768 75.5362 108.004 75.4875 108.273 75.4591V75.4444ZM110.154 75.7914L109.372 75.7474C109.275 75.7382 109.14 75.7336 108.967 75.7336C108.793 75.7336 108.667 75.7336 108.591 75.7336C107.992 75.7336 107.616 75.8823 107.462 76.1807C107.307 76.48 107.231 76.9372 107.231 77.5533L107.259 78.1317C107.259 78.3529 107.278 78.577 107.317 78.8028C107.355 79.0296 107.433 79.2343 107.548 79.417C107.664 79.6007 107.838 79.7494 108.07 79.8651C108.301 79.9807 108.62 80.0386 109.025 80.0386C109.122 80.0386 109.285 80.0267 109.517 80.0028C109.749 79.978 109.943 79.9376 110.097 79.8798V79.7494L110.125 79.5327C110.144 79.3977 110.154 79.2564 110.154 79.1067C110.154 78.9571 110.154 78.8102 110.154 78.666V75.7914Z" fill="#DDDDDD"/>
</svg>
