<svg width="81" height="24" viewBox="0 0 81 24" fill="none" xmlns="http://www.w3.org/2000/svg">
<path d="M29.7793 23.6362L33.9629 0H40.4998L36.4469 23.6362H29.7793Z" fill="#3C58BF"/>
<path d="M29.7793 23.6362L35.1396 0H40.4998L36.4469 23.6362H29.7793Z" fill="#293688"/>
<path d="M59.5586 0.995207C58.2351 0.497603 56.1174 0 53.4704 0C46.8527 0 42.088 3.11002 42.088 7.58846C42.088 10.9473 45.3968 12.6889 48.0439 13.8085C50.6909 14.9281 51.4851 15.6745 51.4851 16.6697C51.4851 18.1626 49.3674 18.909 47.5145 18.909C44.8674 18.909 43.4115 18.5358 41.1615 17.665L40.2351 17.2917L39.3086 22.3922C40.8968 23.0142 43.8086 23.6362 46.8527 23.6362C53.8674 23.6362 58.4998 20.5262 58.4998 15.7989C58.4998 13.1865 56.7792 11.1961 52.8086 9.57888C50.4262 8.45927 48.9704 7.83727 48.9704 6.71766C48.9704 5.72245 50.1615 4.72724 52.8086 4.72724C55.0586 4.72724 56.6468 5.10044 57.838 5.59805L58.4998 5.84685L59.5586 0.995207Z" fill="#3C58BF"/>
<path d="M59.5586 0.995207C58.2351 0.497603 56.1174 0 53.4704 0C46.8527 0 43.2792 3.11002 43.2792 7.58846C43.2792 10.9473 45.3968 12.6889 48.0439 13.8085C50.6909 14.9281 51.4851 15.6745 51.4851 16.6697C51.4851 18.1626 49.3674 18.909 47.5145 18.909C44.8674 18.909 43.4115 18.5358 41.1615 17.665L40.2351 17.2917L39.3086 22.3922C40.8968 23.0142 43.8086 23.6362 46.8527 23.6362C53.8674 23.6362 58.4998 20.5262 58.4998 15.7989C58.4998 13.1865 56.7792 11.1961 52.8086 9.57888C50.4262 8.45927 48.9704 7.83727 48.9704 6.71766C48.9704 5.72245 50.1615 4.72724 52.8086 4.72724C55.0586 4.72724 56.6468 5.10044 57.838 5.59805L58.4998 5.84685L59.5586 0.995207Z" fill="#293688"/>
<path d="M70.3975 0C68.8267 0 67.6486 0.131314 66.9941 1.70706L57.1768 23.6362H64.2453L65.5543 19.6968H73.9318L74.7171 23.6362H81.0003L75.5025 0H70.3975ZM67.3868 15.7575C67.7795 14.5757 70.0048 8.79792 70.0048 8.79792C70.0048 8.79792 70.5284 7.35349 70.9211 6.4343L71.3138 8.66661C71.3138 8.66661 72.6228 14.5757 72.8846 15.8888H67.3868V15.7575Z" fill="#3C58BF"/>
<path d="M71.9683 0C70.3975 0 69.2194 0.131314 68.5649 1.70706L57.1768 23.6362H64.2453L65.5543 19.6968H73.9318L74.7171 23.6362H81.0003L75.5025 0H71.9683ZM67.3868 15.7575C67.9104 14.4443 70.0048 8.79792 70.0048 8.79792C70.0048 8.79792 70.5284 7.35349 70.9211 6.4343L71.3138 8.66661C71.3138 8.66661 72.6228 14.5757 72.8846 15.8888H67.3868V15.7575Z" fill="#293688"/>
<path d="M17.7681 16.414L17.1394 12.9999C16.0078 9.06054 12.3614 4.72724 8.33789 2.62624L13.996 23.6362H20.7857L30.9704 0H24.1806L17.7681 16.414Z" fill="#3C58BF"/>
<path d="M17.7681 16.414L17.1394 12.9999C16.0078 9.06054 12.3614 4.72724 8.33789 2.62624L13.996 23.6362H20.7857L30.9704 0H25.438L17.7681 16.414Z" fill="#293688"/>
<path d="M0 0L1.12006 0.259996C9.08496 2.20996 14.5608 7.14985 16.6765 12.9997L14.4364 1.94996C14.063 0.389992 12.943 0 11.574 0H0Z" fill="#FFBC00"/>
<path d="M0 0C7.96489 1.96966 14.5608 7.09076 16.6765 12.9997L14.5608 3.67669C14.1875 2.10097 12.943 1.1818 11.574 1.1818L0 0Z" fill="#F7981D"/>
<path d="M0 0C7.96489 1.96966 14.5608 7.09076 16.6765 12.9997L15.1831 7.87862C14.8097 6.3029 14.3119 4.72718 12.5696 4.07062L0 0Z" fill="#ED7C00"/>
<path d="M24.3003 15.7084L19.9289 11.3714L17.8717 16.2187L17.3574 13.0297C16.2003 9.20285 12.4717 4.99336 8.35742 2.95239L14.1431 23.362H21.086L24.3003 15.7084Z" fill="#051244"/>
<path d="M36.2574 23.3619L30.7288 17.7493L29.7002 23.3619H36.2574Z" fill="#051244"/>
<path d="M51.0431 15.4534C51.5574 15.9636 51.8145 16.3463 51.686 16.8565C51.686 18.3872 49.6288 19.1526 47.8288 19.1526C45.2574 19.1526 43.8431 18.7699 41.6574 17.877L40.7574 17.4943L39.8574 22.7242C41.4003 23.362 44.2288 23.9998 47.186 23.9998C51.3003 23.9998 54.6431 22.8518 56.5717 20.8108L51.0431 15.4534Z" fill="#051244"/>
<path d="M58.5 23.3618H64.5429L65.8286 19.535H74.0571L74.8286 23.3618H81L78.8143 14.05L71.1 6.65161L71.4857 8.69254C71.4857 8.69254 72.7714 14.4327 73.0286 15.7083H67.6286C68.1428 14.4327 70.2 8.94766 70.2 8.94766C70.2 8.94766 70.7143 7.54452 71.1 6.65161" fill="#051244"/>
</svg>
