<svg width="30" height="30" viewBox="0 0 30 30" fill="none" xmlns="http://www.w3.org/2000/svg">
<g clip-path="url(#clip0_83_21)">
<path d="M15.001 30L14.9919 29.9985H14.9678C10.1642 29.9985 7.09516 27.7135 6.79324 27.5816L1.13221 29.0599L2.64936 23.5331L2.28857 22.9645C0.794054 20.5749 0 17.8228 0 14.9889C0 1.65636 16.2207 -5.01068 25.6075 4.41294C34.9716 13.738 28.3972 30 15.001 30Z" fill="#4CAF50"/>
<path d="M23.0907 18.4631L23.0774 18.5735C22.6312 18.3526 20.4583 17.2968 20.0537 17.1511C19.1451 16.8168 19.4015 17.0981 17.6569 19.083C17.3975 19.3701 17.1396 19.3922 16.6994 19.1934C16.2548 18.9725 14.8274 18.5087 13.1377 17.0068C11.8215 15.8361 10.9381 14.4005 10.6772 13.9587C10.2429 13.2137 11.1515 13.1076 11.9786 11.5527C12.1268 11.2435 12.0512 11.0005 11.9415 10.7811C11.8304 10.5602 10.9455 8.39569 10.5749 7.53282C10.2192 6.67289 9.85311 6.78185 9.5789 6.78185C8.72515 6.70823 8.10114 6.72001 7.55124 7.28838C5.15896 9.90057 5.76222 12.5952 7.80915 15.4607C11.8319 20.6909 13.9751 21.6539 17.8941 22.9909C18.9524 23.3252 19.9173 23.2781 20.6806 23.1691C21.5314 23.0351 23.2997 22.1074 23.6688 21.0693C24.0467 20.0312 24.0467 19.1698 23.9356 18.9711C23.8259 18.7723 23.5354 18.6618 23.0907 18.4631Z" fill="#FAFAFA"/>
</g>
<defs>
<clipPath id="clip0_83_21">
<rect width="30" height="30" fill="white"/>
</clipPath>
</defs>
</svg>
